{"glyphs":{"0":{"ha":875,"x_min":31,"x_max":849,"o":"m 429 -26 q 800 224 693 -26 q 849 460 849 332 q 747 785 849 654 q 450 932 638 932 q 250 875 346 932 q 31 436 31 747 q 56 263 31 342 q 133 118 82 185 q 429 -26 246 -26 m 668 565 q 678 472 675 514 q 682 394 682 429 q 635 167 682 257 q 454 44 576 44 q 317 99 371 44 q 197 503 197 222 q 222 689 197 615 q 432 860 282 860 q 572 801 515 860 q 668 565 650 715 m 433 115 l 482 399 l 638 447 l 482 494 l 433 778 l 385 494 l 231 447 l 385 399 l 433 115 z "},"1":{"ha":531,"x_min":7,"x_max":524,"o":"m 519 -3 l 524 61 q 365 90 389 71 q 343 369 343 108 q 381 810 343 743 q 451 869 393 833 q 458 875 457 875 l 458 876 q 456 875 458 875 q 449 876 451 875 q 439 890 444 882 l 500 965 q 423 919 456 939 q 367 885 390 899 q 215 803 304 849 q 7 700 126 757 l 8 639 q 93 674 57 660 q 150 694 129 688 q 189 689 183 704 q 189 500 190 671 l 181 215 q 139 76 176 96 q 44 64 114 64 l 49 -6 q 351 3 200 3 q 408 1 367 3 q 519 -3 450 0 z "},"2":{"ha":807,"x_min":7,"x_max":790,"o":"m 751 64 l 790 165 l 714 193 q 705 165 710 179 q 697 136 700 151 q 690 130 694 133 q 674 124 685 126 q 604 110 651 114 q 482 107 557 107 l 253 108 q 290 141 276 129 q 307 156 304 153 l 450 281 q 556 374 514 335 q 622 435 599 413 q 758 697 758 571 q 661 876 758 813 q 461 935 579 935 q 317 910 383 935 q 219 860 271 894 q 108 774 167 825 l 172 732 q 397 817 265 817 q 533 781 481 817 q 599 660 599 736 q 365 314 599 543 q 19 10 282 232 q 22 6 22 8 q 15 -18 22 -1 q 7 -43 7 -35 q 8 -50 7 -49 q 119 15 85 15 q 151 -1 128 15 q 176 -18 172 -18 l 615 -19 q 646 -21 635 -19 q 664 -24 657 -22 q 701 -53 681 -31 l 749 -56 q 753 -22 751 -40 q 753 18 756 -3 q 751 49 751 38 q 751 64 750 60 z "},"3":{"ha":769,"x_min":7,"x_max":742,"o":"m 397 47 q 268 56 306 47 q 181 132 193 72 l 160 233 l 7 114 q 333 -28 132 -28 q 532 11 440 -28 q 676 119 621 49 q 742 285 742 200 q 674 444 742 381 q 612 494 646 469 q 536 542 578 518 q 661 749 661 643 q 576 890 661 840 q 408 932 507 932 q 90 808 264 932 l 140 760 q 340 832 251 832 q 457 799 404 832 q 514 699 514 761 q 432 561 514 632 q 378 521 413 546 q 293 464 344 496 l 372 478 l 400 447 q 536 361 500 393 q 607 225 607 303 q 540 93 607 144 q 397 47 482 47 z "},"4":{"ha":867,"x_min":7,"x_max":817,"o":"m 817 256 l 783 368 q 656 360 703 357 l 657 567 q 660 810 658 713 q 665 960 661 908 q 623 948 642 953 q 593 942 604 943 q 314 601 481 785 q 201 482 278 561 q 7 283 124 403 q 21 267 15 275 q 31 251 26 258 q 94 254 71 253 q 124 257 117 256 q 263 262 213 260 q 324 264 313 264 l 501 264 q 500 193 500 228 q 499 125 500 158 q 481 78 496 96 q 440 51 467 61 q 414 46 426 49 q 386 43 401 43 l 386 -28 q 427 -21 403 -26 q 485 -7 451 -15 q 540 6 517 3 q 583 10 564 10 q 672 -3 614 10 q 723 -15 701 -11 q 758 -19 744 -18 l 758 39 q 667 82 679 51 q 658 144 660 100 q 656 260 656 189 q 817 256 754 260 m 507 707 q 508 640 508 672 q 508 576 508 608 q 508 466 508 519 q 506 360 507 413 l 189 360 l 308 440 q 336 490 324 454 q 351 532 349 532 q 447 638 408 594 q 507 707 485 681 z "},"5":{"ha":772,"x_min":7,"x_max":739,"o":"m 660 793 l 714 815 l 739 924 q 693 918 731 915 q 647 897 676 919 l 622 872 q 586 918 597 918 l 185 926 l 161 682 q 140 607 158 650 q 111 533 117 553 q 493 418 349 529 q 593 253 593 343 q 572 172 593 218 q 401 56 519 56 q 219 69 260 56 q 168 93 188 85 q 142 107 149 101 q 118 156 118 124 q 207 206 206 199 q 125 268 174 268 q 67 253 99 268 q 38 158 53 200 q 7 85 22 117 q 324 -31 156 -31 q 539 15 443 -31 q 618 65 583 36 q 681 128 653 93 q 724 209 708 168 q 739 294 739 250 q 694 431 739 357 q 236 661 592 594 q 249 702 243 676 q 265 765 256 728 q 294 815 275 808 l 306 815 q 335 813 318 815 q 376 807 353 810 q 449 799 424 799 q 586 794 533 796 q 660 793 639 793 z "},"6":{"ha":797,"x_min":28,"x_max":768,"o":"m 410 -28 q 715 131 608 -28 q 768 293 768 204 q 681 494 768 417 q 472 569 599 569 q 389 561 414 569 q 281 474 326 540 q 251 418 261 438 q 238 393 242 399 l 226 375 q 261 314 229 315 q 314 417 275 363 q 404 478 358 478 q 563 400 500 478 q 622 228 622 328 q 574 93 622 146 q 443 39 524 39 q 329 75 388 39 q 188 374 188 163 q 285 653 188 522 q 672 903 403 814 l 646 960 q 344 844 463 915 q 28 349 28 664 q 135 75 28 178 q 410 -28 242 -28 z "},"7":{"ha":796,"x_min":-4,"x_max":804,"o":"m 650 682 q 728 799 690 744 q 804 901 767 853 l 778 936 q 676 926 729 929 q 565 925 624 924 l 471 925 q 433 919 444 925 q 417 892 415 913 q 356 908 401 892 q 292 925 314 925 q 250 924 271 924 q 208 924 229 924 q 157 901 200 924 q 140 891 147 894 q 131 885 133 888 l 131 914 q 122 957 131 957 q 78 901 108 957 q 35 833 56 864 q -4 776 15 801 l 71 774 l 99 782 q 111 784 106 783 q 124 785 117 785 q 200 775 153 785 q 275 767 250 767 q 313 769 296 767 q 347 778 331 771 q 488 803 426 807 l 607 794 l 599 778 l 406 443 q 281 235 331 317 q 206 111 232 153 l 164 47 q 133 -15 133 -3 q 169 -44 133 -44 q 177 -32 169 -44 q 200 7 185 -19 q 249 64 232 57 q 253 58 253 68 q 243 15 253 43 q 233 -28 233 -12 q 236 -31 233 -31 q 249 -32 239 -31 q 272 -36 258 -33 q 650 682 471 399 z "},"8":{"ha":807,"x_min":29,"x_max":779,"o":"m 731 106 q 779 240 779 169 q 704 415 779 342 q 539 518 651 467 q 711 725 711 606 q 671 831 711 779 q 399 939 582 939 q 238 908 310 939 q 92 708 92 843 q 286 478 92 576 q 29 215 29 374 q 81 92 29 149 q 399 -28 183 -28 q 731 106 626 -28 m 425 431 q 632 201 632 358 q 574 83 632 129 q 444 43 521 43 q 275 106 358 43 q 188 253 188 169 q 247 369 188 318 q 313 406 283 392 q 365 432 343 421 l 404 433 q 415 432 411 432 q 425 431 421 432 m 544 781 q 564 701 564 742 q 461 556 564 625 q 397 572 425 563 q 344 597 368 582 q 244 667 310 615 q 197 756 197 704 q 261 843 197 811 q 374 869 313 869 q 544 781 490 869 z "},"9":{"ha":776,"x_min":7,"x_max":747,"o":"m 367 942 q 60 785 167 942 q 7 622 7 707 q 94 418 7 499 q 303 343 178 343 q 351 346 331 343 q 386 353 371 349 l 475 417 q 533 497 517 450 l 549 539 l 515 600 q 494 549 508 574 q 461 499 481 524 q 372 435 414 435 q 211 514 274 435 q 151 686 151 586 q 201 823 151 771 q 333 875 250 875 q 447 839 389 875 q 586 540 586 751 q 492 260 586 392 q 101 10 371 97 l 131 -47 q 432 68 313 -1 q 747 567 747 251 q 640 836 747 733 q 367 942 533 942 z "}," ":{"ha":665,"x_min":0,"x_max":0,"o":""},"˘":{"ha":694,"x_min":153,"x_max":542,"o":"m 350 782 q 245 799 282 782 q 193 853 208 815 q 182 874 185 872 q 169 876 179 876 q 165 877 168 876 q 161 878 163 878 q 153 869 153 878 l 153 864 q 208 746 153 797 q 347 694 264 694 q 486 747 429 694 q 542 868 542 799 q 532 878 542 878 q 504 864 510 878 q 503 860 503 863 q 451 799 485 817 q 350 782 417 782 z "},"˙":{"ha":364,"x_min":28,"x_max":335,"o":"m 335 1157 l 231 1108 l 182 1003 l 133 1108 l 28 1157 l 133 1206 l 182 1310 l 231 1206 l 335 1157 z "},"˚":{"ha":1168,"x_min":411,"x_max":726,"o":"m 706 1050 q 726 1117 726 1079 q 675 1214 726 1176 q 626 1238 651 1229 q 568 1247 600 1247 q 512 1238 538 1247 q 464 1214 486 1229 q 411 1117 411 1178 q 461 1018 411 1056 q 510 994 485 1003 q 568 985 536 985 q 706 1050 657 985 m 568 1176 q 619 1161 600 1176 q 647 1117 647 1146 q 619 1072 647 1088 q 568 1057 600 1057 q 518 1074 539 1057 q 492 1117 492 1090 q 517 1161 492 1144 q 568 1176 538 1176 z "},"˝":{"ha":478,"x_min":7,"x_max":474,"o":"m 135 736 q 206 819 161 749 q 286 910 249 893 l 133 907 q 92 832 129 904 q 7 736 54 758 l 135 736 m 322 733 q 393 817 349 746 q 474 907 436 890 l 321 904 q 279 829 317 901 q 194 733 242 756 l 322 733 z "},"˛":{"ha":694,"x_min":221,"x_max":456,"o":"m 392 21 q 265 -90 308 -31 q 221 -212 221 -150 q 318 -304 221 -304 q 410 -282 365 -304 q 456 -242 456 -261 q 451 -231 456 -236 q 443 -225 447 -225 q 434 -228 442 -225 q 416 -236 426 -232 q 393 -244 406 -240 q 369 -247 381 -247 q 323 -225 340 -247 q 306 -164 306 -203 q 425 21 306 -69 l 392 21 z "},"ˇ":{"ha":544,"x_min":7,"x_max":494,"o":"m 367 1007 l 494 1007 q 443 933 475 960 l 372 876 l 275 751 l 232 751 q 158 835 185 803 q 124 882 132 868 q 58 943 108 899 q 7 1007 21 976 l 140 1007 q 178 918 171 928 q 215 891 197 904 q 251 864 232 878 q 288 887 271 875 q 325 910 306 899 q 367 1007 353 961 z "},"ı":{"ha":408,"x_min":7,"x_max":358,"o":"m 7 -22 l 17 35 q 60 39 46 38 q 76 40 75 40 q 110 85 106 50 q 132 183 110 129 l 114 268 q 108 333 111 294 q 100 424 106 372 q 88 424 96 424 q 67 426 79 425 q 10 453 10 433 q 40 485 10 479 q 242 578 139 508 q 285 569 256 578 q 267 482 275 536 q 257 353 260 428 q 254 297 256 325 q 253 243 253 269 q 265 58 253 100 q 318 44 271 50 l 326 44 q 324 43 325 43 q 331 42 325 42 l 358 -14 l 7 -22 z "},"∕":{"ha":1199,"x_min":44,"x_max":1146,"o":"m 113 443 l 44 443 l 44 -58 q 93 -77 74 -58 q 113 -125 113 -96 l 522 -125 l 522 125 l 764 125 l 765 -56 l 768 -56 q 815 -76 796 -56 q 835 -124 835 -96 l 1024 -124 q 1110 -81 1075 -124 q 1146 13 1146 -36 l 1146 64 q 1099 168 1146 126 q 1146 271 1146 210 l 1146 306 q 1108 401 1146 361 l 1111 401 l 1111 469 l 903 469 q 851 521 883 501 l 851 660 l 1042 660 l 1042 729 l 851 729 l 851 850 q 903 901 885 868 l 1111 901 l 1111 971 l 851 971 l 851 931 l 782 929 l 781 733 l 692 732 q 689 685 693 701 q 650 664 681 665 q 617 686 622 664 q 616 699 617 688 q 614 732 615 710 l 525 733 l 525 929 l 454 931 l 454 971 l 256 971 q 261 1033 261 992 q 243 1117 261 1090 l 213 1161 q 199 1154 210 1161 q 209 1137 203 1147 q 225 1115 215 1126 q 172 1110 204 1110 q 78 1169 78 1110 q 151 1268 78 1228 q 286 1301 211 1301 q 344 1271 344 1301 q 282 1214 344 1228 q 248 1207 267 1211 q 210 1197 229 1203 l 186 1192 q 290 1217 221 1197 q 361 1279 361 1235 q 303 1311 361 1311 q 149 1271 222 1311 q 63 1161 63 1222 q 154 1100 63 1100 q 229 1110 189 1100 q 244 1021 244 1075 q 244 994 244 1007 q 242 971 243 982 l 113 971 q 93 922 113 942 q 44 903 74 903 l 44 854 l 113 854 q 161 903 143 872 l 222 903 q 213 895 218 897 q 199 886 207 893 q 225 903 215 890 l 250 903 l 250 401 l 319 401 l 319 903 l 403 903 q 454 851 421 869 l 454 -58 l 161 -58 q 113 -8 143 -28 l 113 443 m 764 447 l 525 447 l 525 664 l 561 664 q 611 613 579 632 l 699 613 q 749 664 731 629 l 781 664 l 781 442 l 835 442 q 821 403 832 418 q 782 414 790 408 q 764 447 764 424 m 574 401 l 714 401 q 764 353 733 369 l 764 196 l 522 196 l 522 351 q 574 401 556 371 m 1008 132 q 1057 113 1038 132 q 1076 64 1076 93 l 1076 13 q 1057 -35 1076 -15 q 1008 -56 1038 -56 l 885 -56 q 835 -4 867 -24 l 835 132 l 1008 132 m 1008 374 q 1057 354 1038 374 q 1076 306 1076 335 l 1076 271 q 1057 223 1076 243 q 1010 203 1038 203 l 835 203 l 835 325 q 885 374 865 346 l 1008 374 m 150 278 l 151 278 l 147 271 l 154 274 l 149 271 q 276 140 219 217 q 265 124 271 133 q 250 103 258 115 q 282 136 263 108 l 303 110 q 318 117 313 111 q 308 130 314 122 q 292 149 301 138 q 417 278 343 221 q 347 225 400 278 q 285 154 303 176 q 285 158 282 154 l 286 158 l 253 278 l 288 278 l 306 278 q 326 279 319 278 l 318 274 q 301 215 310 242 q 286 169 293 189 l 300 178 q 313 219 306 194 q 332 279 321 244 q 368 281 350 279 q 406 285 386 282 l 410 278 l 421 288 q 386 354 410 318 l 379 351 q 383 353 382 353 q 386 356 383 354 q 274 356 315 356 q 221 358 233 357 l 207 349 l 211 349 q 150 278 186 339 m 1094 1154 l 1106 1161 q 818 1169 1010 1161 q 823 1210 821 1193 q 825 1239 825 1228 q 821 1276 825 1249 l 806 1267 q 807 1247 806 1260 q 808 1228 808 1235 l 808 1214 q 807 1201 808 1206 l 804 1171 q 725 1206 725 1179 q 727 1212 725 1210 q 729 1215 729 1214 l 733 1215 q 754 1208 743 1215 q 761 1213 756 1210 q 768 1218 767 1217 q 749 1225 761 1225 q 710 1196 710 1225 q 804 1161 710 1172 q 790 1061 790 1092 q 836 999 790 1017 q 924 976 871 976 l 1039 976 q 1053 983 1046 976 l 1014 983 q 993 982 1010 982 l 976 982 q 806 1074 806 982 q 808 1110 806 1089 q 817 1160 811 1132 q 878 1156 839 1157 q 978 1154 918 1154 l 1094 1154 m 511 1021 l 511 1113 l 511 1140 q 513 1157 511 1153 q 529 1155 522 1156 q 542 1154 536 1154 l 556 1154 q 569 1161 549 1154 l 513 1168 q 596 1314 525 1314 q 658 1269 658 1314 q 635 1220 658 1240 q 582 1200 611 1200 l 568 1192 q 639 1215 599 1189 q 674 1276 674 1244 q 611 1321 674 1321 q 504 1194 522 1321 q 494 1011 494 1161 q 501 1016 497 1014 q 511 1021 506 1018 m 665 1111 q 640 1051 665 1078 q 613 1056 635 1051 q 574 1115 574 1069 q 603 1150 574 1150 q 625 1131 625 1150 q 617 1111 625 1121 q 640 1140 640 1118 q 618 1160 640 1160 q 577 1143 596 1160 q 558 1104 558 1126 q 576 1062 558 1082 q 617 1042 594 1042 q 663 1067 644 1042 q 682 1119 682 1092 q 675 1147 682 1129 q 660 1139 661 1140 q 663 1126 660 1135 q 665 1111 665 1117 m 265 293 l 263 297 q 282 329 267 314 q 324 290 299 299 q 333 297 329 296 l 376 343 q 406 289 394 311 q 250 285 318 285 q 265 293 251 286 m 372 349 l 375 343 q 358 330 369 340 q 332 301 347 319 q 294 343 308 311 q 256 304 275 336 q 241 320 250 310 q 218 349 232 331 l 372 349 m 768 1140 q 725 1129 744 1140 q 717 1143 722 1138 q 701 1135 715 1142 q 713 1111 706 1129 l 713 1108 q 711 1106 713 1107 l 713 1107 q 714 1089 714 1104 l 714 1060 q 731 1068 722 1061 l 731 1094 q 729 1108 729 1100 l 729 1119 q 757 1133 731 1133 q 771 1107 771 1133 q 714 990 771 1072 q 731 999 724 992 q 786 1119 786 1075 q 768 1140 786 1140 m 399 1115 q 392 1151 392 1139 q 399 1164 392 1164 l 400 1160 q 403 1146 400 1160 q 418 1153 414 1149 q 447 1178 424 1178 q 457 1157 457 1178 q 419 1029 457 1114 l 426 1033 q 433 1038 431 1035 q 474 1164 474 1131 q 468 1188 474 1188 q 417 1164 440 1188 l 414 1172 q 376 1140 376 1169 q 379 1130 378 1138 q 383 1107 381 1122 q 399 1115 404 1115 m 253 278 l 240 271 l 265 179 q 216 234 242 210 q 164 278 190 258 l 253 278 m 164 285 q 181 308 171 294 q 204 339 190 321 q 219 324 208 336 q 246 290 229 313 l 244 289 l 247 290 l 250 285 l 164 285 m 353 1068 q 368 1076 351 1068 q 317 1151 317 1118 q 326 1168 317 1168 q 339 1154 339 1168 q 318 1140 339 1150 q 357 1165 357 1150 q 344 1176 357 1176 q 316 1165 331 1176 q 301 1140 301 1154 q 353 1068 301 1107 m 881 1125 q 888 1129 883 1126 q 897 1135 892 1132 q 867 1140 888 1140 q 821 1104 821 1140 q 876 1076 876 1096 q 860 1060 876 1060 q 846 1065 851 1060 q 832 1057 842 1065 q 846 1051 838 1051 q 876 1062 860 1051 q 892 1085 892 1072 q 840 1111 892 1103 q 838 1119 838 1111 q 850 1133 838 1133 q 881 1125 865 1133 z "},"ﬁ":{"ha":831,"x_min":7,"x_max":815,"o":"m 464 -19 l 815 -11 l 786 43 q 781 44 782 43 q 783 47 782 44 l 775 47 q 722 60 728 51 q 710 244 710 103 q 714 356 710 297 q 724 484 717 431 q 742 572 731 538 q 716 578 726 575 q 699 581 706 581 q 649 549 671 560 q 571 541 611 542 q 494 542 531 540 q 431 545 458 543 q 390 547 403 547 q 333 549 360 547 q 278 557 306 551 q 301 767 282 686 q 458 901 336 901 q 469 885 468 901 q 544 817 478 833 l 557 850 q 674 931 583 926 q 717 935 713 933 q 649 989 717 969 q 550 1001 596 1001 q 450 985 504 1001 q 333 936 396 969 q 172 782 218 874 q 142 684 151 740 q 131 557 132 628 l 14 556 l 14 476 l 126 481 q 151 481 140 481 q 169 482 161 482 q 163 478 167 481 q 156 474 158 476 q 132 435 133 456 l 125 114 q 64 49 114 54 q 44 47 58 47 q 7 44 31 47 l 7 -14 q 260 -15 157 -14 q 424 -17 363 -15 l 424 47 q 344 49 375 49 q 300 50 314 50 q 289 51 293 51 q 283 53 286 51 q 275 240 275 63 q 275 344 275 286 q 276 474 275 403 q 401 447 369 447 q 464 456 431 447 l 467 457 l 467 456 q 524 428 467 433 q 544 426 536 426 q 557 425 553 425 q 569 269 568 322 l 589 185 q 567 86 567 131 q 533 42 563 53 q 517 40 532 42 q 474 36 501 39 l 464 -19 z "},"ﬂ":{"ha":911,"x_min":7,"x_max":893,"o":"m 675 0 q 744 -2 690 0 q 893 -11 799 -4 l 893 50 q 790 82 797 58 q 780 141 783 97 q 776 258 776 185 q 778 357 776 310 q 782 449 779 404 q 783 491 782 465 q 783 540 783 517 q 784 585 783 565 q 785 610 785 604 q 826 935 797 843 l 719 851 q 726 883 717 871 q 735 893 735 894 q 729 910 735 897 q 717 935 724 924 q 649 989 717 969 q 550 1001 596 1001 q 450 985 504 1001 q 333 936 396 969 q 172 782 218 874 q 142 684 151 740 q 131 557 132 628 l 14 556 l 14 476 l 126 481 q 151 481 140 481 q 169 482 161 482 q 163 478 167 481 q 156 474 158 476 q 132 435 133 456 l 125 114 q 64 49 114 54 q 44 47 58 47 q 7 44 31 47 l 7 -14 q 260 -15 157 -14 q 424 -17 363 -15 l 424 47 q 344 49 375 49 q 300 50 314 50 q 289 51 293 51 q 283 53 286 51 q 275 240 275 63 q 275 344 275 286 q 276 474 275 403 q 401 447 369 447 q 464 456 431 447 l 514 557 q 449 549 481 551 q 390 547 418 547 q 333 549 360 547 q 278 557 306 551 q 301 767 282 686 q 458 901 336 901 q 469 885 464 901 q 507 830 489 844 q 540 815 525 815 q 571 822 557 815 q 596 830 585 829 q 615 820 607 831 q 626 774 622 810 q 632 735 628 763 q 640 669 636 707 q 644 587 643 631 q 644 500 646 543 l 632 247 q 627 181 629 207 q 622 139 625 154 q 578 68 614 89 q 494 49 556 54 l 494 -8 q 675 0 599 0 z "},"Ł":{"ha":1000,"x_min":-69,"x_max":950,"o":"m -51 236 l 136 357 l 136 292 q 135 201 135 238 q 133 150 135 167 q 94 57 129 72 q 7 36 75 50 l 11 -18 l 640 -18 q 765 -21 707 -18 q 874 -28 822 -24 q 878 -11 878 -19 l 868 1 q 858 24 858 13 q 864 44 858 33 q 910 126 869 65 q 950 201 949 186 l 886 208 q 817 110 865 133 q 492 60 713 60 q 307 75 333 60 q 290 228 290 90 l 290 456 l 508 594 q 501 601 504 597 q 497 608 499 606 q 490 628 492 615 q 489 658 489 642 q 489 718 490 708 l 293 593 q 301 763 296 703 q 314 839 306 824 q 332 856 319 849 q 394 867 365 863 q 447 874 424 872 l 450 936 q 424 940 439 936 q 386 950 408 943 q 349 960 365 957 q 324 964 333 964 q 239 933 281 964 q 178 915 214 915 q 100 925 147 915 q 19 935 51 935 l 19 875 q 74 872 53 874 q 106 867 94 871 q 126 842 119 863 q 137 766 133 825 q 139 606 140 707 l 136 493 l -69 360 q -56 343 -60 351 q -48 324 -50 336 q -49 292 -46 311 q -51 256 -51 271 q -51 236 -51 242 z "},"ł":{"ha":456,"x_min":-60,"x_max":518,"o":"m -42 186 l 147 307 l 143 233 q 138 168 140 194 q 133 125 136 142 q 90 56 125 74 q 7 35 67 43 l 7 -22 q 186 -14 108 -14 q 256 -16 201 -14 q 406 -25 311 -18 l 406 36 q 301 68 310 44 q 289 244 289 101 q 289 324 289 286 q 292 399 289 363 l 518 544 q 507 558 510 553 q 500 578 501 565 q 499 608 499 592 q 499 668 500 658 l 297 539 q 314 728 304 650 q 339 851 324 807 l 232 768 q 247 810 247 796 q 231 824 247 824 q 214 819 226 824 q 178 808 201 815 l 81 778 l 81 724 l 76 700 q 92 701 78 701 q 139 690 129 701 q 157 486 164 660 l 156 447 l -60 310 q -44 293 -51 304 q -38 274 -40 286 q -39 242 -36 261 q -42 206 -42 221 q -42 186 -42 192 z "},"Ž":{"ha":1190,"x_min":7,"x_max":1140,"o":"m 1025 -43 q 1047 2 1033 -25 q 1081 68 1061 29 q 1115 137 1100 107 q 1140 189 1129 167 l 1033 144 q 1028 135 1028 139 q 953 99 1006 114 q 843 71 901 82 q 717 56 785 60 q 478 51 654 51 q 372 54 419 51 q 286 60 324 57 q 408 168 358 126 q 485 232 457 210 q 492 244 492 235 q 474 278 492 256 l 453 301 q 456 303 453 303 l 582 361 q 719 481 656 396 l 814 601 q 964 756 893 682 q 1097 899 1035 829 l 1097 936 q 760 931 925 933 q 431 928 594 928 q 333 928 381 928 q 244 931 288 928 q 101 956 121 932 q 75 969 89 969 q 36 875 36 969 q 38 853 36 867 q 40 827 39 840 q 42 801 40 814 q 43 781 43 789 q 39 747 43 761 l 93 724 q 106 761 106 746 l 106 790 q 118 814 107 807 q 192 840 143 829 q 311 856 240 851 q 388 857 331 857 q 542 857 446 857 q 704 856 631 857 q 839 851 778 854 q 435 408 640 615 q 14 17 231 200 q 7 -28 14 4 q 160 -21 88 -24 q 303 -18 233 -18 l 753 -18 q 956 -24 924 -18 q 976 -6 968 -14 q 989 7 985 1 q 994 0 990 4 q 1006 -15 997 -4 q 1025 -43 1021 -43 m 678 1247 q 636 1150 663 1200 q 599 1127 617 1139 q 563 1104 582 1115 q 526 1131 543 1118 q 489 1158 508 1144 q 476 1185 486 1163 q 451 1247 467 1207 l 318 1247 q 369 1183 331 1219 q 435 1122 419 1139 q 469 1076 443 1108 q 543 992 496 1043 l 586 992 l 683 1117 l 754 1174 q 806 1247 788 1201 l 678 1247 z "},"ž":{"ha":797,"x_min":7,"x_max":747,"o":"m 669 -28 q 668 -15 668 -21 q 668 -3 668 -10 q 732 178 668 85 l 672 178 q 615 92 651 115 q 390 50 554 50 q 322 51 354 50 q 260 53 289 51 l 507 294 q 747 543 654 438 l 333 543 q 224 544 267 543 q 161 549 182 546 q 114 558 129 551 l 65 578 q 50 482 68 525 q 18 393 42 435 l 78 393 q 182 467 101 450 q 315 475 221 475 l 482 475 q 232 213 350 328 q 7 15 114 99 l 33 -28 q 119 -22 76 -25 q 203 -19 161 -19 l 522 -18 q 573 -19 544 -18 q 636 -25 601 -21 q 651 -27 643 -26 q 669 -28 658 -28 m 519 883 q 478 786 504 836 q 441 763 458 775 q 404 740 424 751 q 367 767 385 754 q 331 794 350 781 q 318 821 328 799 q 293 883 308 843 l 160 883 q 211 819 172 856 q 276 758 261 775 q 311 712 285 744 q 385 628 338 679 l 428 628 l 525 753 l 596 810 q 647 883 629 838 l 519 883 z "},"!":{"ha":364,"x_min":7,"x_max":314,"o":"m 249 811 l 249 828 q 217 856 249 856 q 108 814 147 828 q 60 797 69 800 q 31 767 26 790 q 39 719 31 749 q 64 674 51 679 q 89 703 68 671 q 115 736 110 736 q 118 728 115 736 q 103 656 111 688 q 86 600 96 624 q 98 385 94 478 q 103 226 101 293 l 203 222 q 203 240 203 233 q 206 249 203 247 q 213 356 208 286 q 224 528 218 425 q 249 811 229 682 m 160 -110 l 208 -6 l 314 43 l 208 92 l 160 197 l 111 92 l 7 43 l 111 -6 l 160 -110 z "},"\"":{"ha":483,"x_min":7,"x_max":433,"o":"m 174 758 q 132 594 151 675 q 93 431 113 514 l 31 726 q 13 811 19 781 q 7 850 7 842 q 32 913 7 889 q 97 936 57 936 q 158 911 133 936 q 183 850 183 886 q 174 758 183 796 m 424 758 q 381 594 400 675 q 343 431 361 514 l 281 726 q 263 811 269 781 q 257 850 257 842 q 282 913 257 889 q 347 936 307 936 q 408 911 383 936 q 433 850 433 886 q 424 758 433 796 z "},"#":{"ha":700,"x_min":7,"x_max":650,"o":"m 478 361 l 650 361 l 650 449 l 501 449 l 528 550 l 650 550 l 650 636 l 551 636 l 597 797 l 494 797 l 453 636 l 282 636 l 325 797 l 225 797 l 182 636 l 7 636 l 7 550 l 157 550 l 131 449 l 7 449 l 7 361 l 106 361 l 61 203 l 165 203 l 206 361 l 378 361 l 333 203 l 435 203 l 478 361 m 257 550 l 431 550 l 401 449 l 228 449 l 257 550 z "},"$":{"ha":803,"x_min":7,"x_max":753,"o":"m 715 128 q 753 249 753 188 q 601 461 753 374 q 533 498 575 476 q 433 547 492 519 l 435 858 q 574 703 579 836 l 592 661 q 732 818 615 722 q 435 931 611 924 l 435 997 l 358 997 l 356 928 q 214 889 279 922 q 68 694 68 815 q 168 522 68 593 q 353 422 215 488 l 351 50 q 290 68 318 57 q 243 99 263 79 l 167 156 q 131 208 131 182 q 137 212 131 210 q 151 215 143 214 q 167 218 160 217 q 174 219 174 219 q 164 254 169 242 q 151 274 158 267 q 111 293 144 281 q 7 182 35 275 q 86 101 47 135 q 160 44 125 67 q 351 -19 247 -11 l 351 -99 q 401 -132 351 -132 q 431 -99 431 -132 l 428 -19 q 715 128 631 -7 m 422 392 q 626 208 626 301 q 623 184 626 197 q 610 151 619 171 q 418 49 571 65 l 422 392 m 192 744 q 347 864 192 851 l 344 586 q 244 647 276 622 q 192 744 192 692 z "},"%":{"ha":1335,"x_min":7,"x_max":1285,"o":"m 1267 128 q 1285 224 1285 179 q 1200 406 1285 335 q 1006 472 1121 472 q 801 399 886 472 q 715 203 715 325 q 800 18 715 86 q 997 -44 876 -44 q 1160 0 1089 -44 q 1267 128 1233 47 m 542 590 q 576 717 576 651 q 492 897 576 829 q 299 961 415 961 q 93 892 175 961 q 7 697 7 818 q 92 511 7 579 q 289 447 168 447 q 542 590 465 447 m 283 897 q 403 826 358 897 q 439 686 439 769 q 415 576 439 617 q 300 511 371 511 q 178 582 225 511 q 140 722 140 644 q 156 778 140 758 q 207 801 175 807 q 214 813 207 801 q 235 849 221 825 q 283 897 263 897 m 1100 231 q 1131 214 1107 214 q 1149 194 1149 210 q 1010 19 1149 19 q 889 90 935 19 q 847 231 847 150 q 882 351 847 304 q 992 406 921 406 q 1061 342 1033 406 q 1081 283 1072 308 q 1094 242 1090 258 l 1100 231 m 725 494 q 861 675 806 601 q 949 790 917 749 l 906 818 q 853 826 893 826 l 828 794 q 782 729 807 767 q 726 647 757 692 q 682 576 686 581 l 683 576 l 635 511 q 488 321 554 404 q 365 175 421 238 l 301 106 q 391 165 339 144 q 510 189 443 185 q 547 245 532 222 q 569 282 561 268 q 665 414 626 361 q 725 494 704 467 z "},"&":{"ha":1008,"x_min":6,"x_max":958,"o":"m 885 581 q 717 635 775 581 l 685 576 q 719 547 704 567 q 729 531 724 542 q 743 506 735 521 q 726 435 728 443 q 711 399 721 411 q 697 372 703 383 q 685 353 690 361 l 576 197 q 356 81 481 76 q 272 93 322 81 q 147 282 147 131 q 176 250 163 250 l 176 251 l 174 332 q 186 403 171 388 q 227 449 214 433 q 242 465 240 464 q 308 494 275 494 q 411 514 382 514 q 453 508 431 514 q 499 492 475 503 q 508 565 508 500 q 499 611 508 592 q 493 626 493 621 q 524 644 493 632 q 551 658 542 653 q 565 665 561 663 q 589 736 585 693 q 525 881 594 826 q 468 915 489 908 q 444 922 461 918 q 399 928 426 925 q 324 918 364 933 q 132 718 138 849 q 228 540 124 615 q 97 449 158 503 q 7 253 13 375 q 10 187 6 219 q 28 122 15 154 q 276 -32 88 -29 q 614 122 476 -35 q 783 -25 690 -25 q 785 -22 785 -25 q 783 -8 785 -18 q 781 6 781 1 q 782 10 781 8 q 799 5 788 10 q 818 0 811 0 q 833 10 832 0 l 858 60 q 711 243 778 61 l 715 249 q 760 315 721 261 q 785 364 783 347 l 794 464 q 800 482 799 482 q 811 458 803 482 q 824 435 822 435 q 842 476 829 435 q 858 506 850 501 q 958 528 922 525 q 951 551 951 538 q 943 575 951 557 q 935 601 935 593 q 936 607 935 606 q 910 592 925 603 q 885 581 894 581 m 472 710 q 389 617 468 654 q 261 675 286 650 q 222 747 218 718 q 240 767 225 763 q 253 771 243 768 q 281 776 264 774 q 332 811 332 786 q 330 822 332 815 q 328 832 328 828 q 333 835 328 835 q 456 764 407 835 q 472 710 474 732 z "},"'":{"ha":233,"x_min":7,"x_max":183,"o":"m 174 758 q 132 594 151 675 q 93 431 113 514 l 31 726 q 13 811 19 781 q 7 850 7 842 q 32 913 7 889 q 97 936 57 936 q 158 911 133 936 q 183 850 183 886 q 174 758 183 796 z "},"(":{"ha":576,"x_min":7,"x_max":526,"o":"m 486 897 q 526 975 526 947 q 511 1015 526 992 q 398 955 450 986 q 301 890 346 924 q 7 283 7 663 q 40 48 7 157 q 143 -153 74 -61 q 294 -305 204 -233 q 506 -440 383 -376 q 518 -374 518 -393 q 500 -339 518 -353 q 430 -290 461 -311 q 375 -251 399 -269 q 106 293 93 -40 q 203 624 114 499 q 374 775 256 693 q 486 897 474 842 z "},")":{"ha":582,"x_min":7,"x_max":532,"o":"m 51 897 q 235 692 161 835 q 269 613 244 672 q 333 450 293 553 q 433 293 385 319 q 449 256 449 286 q 364 6 449 171 q 164 -251 271 -171 q 118 -284 149 -262 q 39 -339 88 -306 q 17 -383 17 -351 q 35 -440 17 -411 q 394 -153 278 -314 q 532 283 532 28 q 239 890 532 663 q 142 955 194 924 q 26 1015 89 986 q 7 965 7 989 q 51 897 7 922 z "},"*":{"ha":522,"x_min":7,"x_max":472,"o":"m 92 547 q 61 540 78 540 q 15 564 32 540 q 7 589 7 576 q 35 631 7 618 q 96 649 58 638 q 183 674 133 660 l 183 675 l 110 697 q 73 707 92 701 q 35 719 54 713 q 8 760 8 732 q 15 786 8 775 q 65 810 32 810 q 94 803 81 810 q 192 726 104 797 q 212 806 200 763 q 239 908 224 850 q 289 732 267 831 q 328 761 307 749 q 389 806 346 776 q 415 811 399 811 q 464 786 447 811 q 469 774 467 779 q 472 761 472 768 q 392 701 472 726 q 294 676 368 700 l 294 669 q 358 653 322 663 q 442 626 393 643 q 468 585 468 613 q 461 560 468 571 q 414 535 444 535 q 386 542 397 535 q 325 586 358 565 q 314 596 324 589 q 286 617 304 603 q 262 523 274 565 q 239 447 250 481 q 219 519 231 475 q 193 622 208 563 q 92 547 161 590 z "},"+":{"ha":885,"x_min":7,"x_max":835,"o":"m 657 582 q 449 532 558 554 q 508 831 508 758 q 484 892 508 867 q 424 917 460 917 q 358 894 383 917 q 333 832 333 871 q 339 797 333 828 q 356 707 344 765 q 393 532 376 596 q 311 552 349 543 q 244 568 274 561 q 94 592 153 592 q 33 567 58 592 q 7 506 7 542 q 31 442 7 469 q 93 415 54 415 l 217 439 q 317 458 274 449 q 394 476 361 468 q 369 363 379 407 q 356 299 358 318 q 351 274 353 289 q 342 236 349 260 q 333 175 333 204 q 358 113 333 136 q 424 90 383 90 q 484 115 460 90 q 508 176 508 140 q 499 267 508 239 q 469 383 482 331 q 449 476 457 436 q 625 439 576 444 q 647 433 632 436 q 686 424 663 431 q 749 415 719 415 q 811 440 788 415 q 835 506 835 465 q 810 567 835 542 q 747 592 786 592 q 657 582 692 592 z "},",":{"ha":311,"x_min":7,"x_max":264,"o":"m 50 -199 l 7 -151 q 57 -126 38 -136 q 85 -108 76 -115 q 133 -42 133 -75 q 107 1 133 -11 l 92 7 l 85 8 l 83 11 q 31 99 31 43 q 64 172 31 143 q 142 200 97 200 q 233 156 204 200 q 256 90 249 121 q 261 26 264 58 q 50 -199 236 -129 z "},"-":{"ha":574,"x_min":32,"x_max":549,"o":"m 32 283 l 499 283 q 496 292 497 288 q 494 300 494 296 q 515 347 494 318 q 539 381 531 368 q 549 397 547 393 l 82 397 q 86 376 86 386 q 65 328 86 354 q 43 300 51 311 q 32 283 35 289 z "},".":{"ha":321,"x_min":7,"x_max":314,"o":"m 314 43 l 208 -6 l 160 -110 l 111 -6 l 7 43 l 111 92 l 160 197 l 208 92 l 314 43 z "},"/":{"ha":964,"x_min":7,"x_max":914,"o":"m 131 -231 l 7 -231 l 790 1103 l 914 1103 l 131 -231 z "},":":{"ha":365,"x_min":7,"x_max":315,"o":"m 161 349 l 114 453 l 8 501 l 114 551 l 161 657 l 210 551 l 315 501 l 210 453 l 161 349 m 160 -110 l 111 -6 l 7 43 l 111 92 l 160 197 l 208 92 l 314 43 l 208 -6 l 160 -110 z "},";":{"ha":364,"x_min":7,"x_max":314,"o":"m 65 -199 l 19 -151 q 99 -108 82 -121 q 147 -42 147 -75 q 119 1 147 -11 l 100 8 l 97 11 q 43 99 43 42 q 76 172 43 143 q 156 200 110 200 q 249 156 217 200 q 275 26 276 86 q 65 -199 250 -131 m 160 349 l 111 453 l 7 501 l 111 551 l 160 657 l 208 551 l 314 501 l 208 453 l 160 349 z "},"<":{"ha":682,"x_min":7,"x_max":632,"o":"m 7 458 l 7 543 l 632 900 l 632 732 q 500 690 557 713 q 399 643 443 667 q 311 589 363 624 q 189 501 260 554 q 283 439 236 469 q 374 381 329 408 q 501 311 438 339 q 632 267 565 283 l 632 100 l 7 458 z "},"=":{"ha":786,"x_min":7,"x_max":736,"o":"m 7 311 l 686 311 q 685 319 685 315 q 685 328 685 325 q 706 375 685 347 q 736 425 735 419 l 57 425 q 61 406 61 414 q 40 357 61 382 q 18 328 26 339 q 7 311 10 317 m 7 626 l 686 626 q 685 642 685 632 q 706 690 685 663 q 727 723 719 711 q 736 739 735 735 l 57 739 q 61 718 61 728 q 40 669 61 696 q 18 642 26 653 q 7 626 10 631 z "},">":{"ha":682,"x_min":7,"x_max":632,"o":"m 632 458 l 7 100 l 7 267 q 138 311 74 283 q 265 381 201 339 q 356 439 310 408 q 450 501 401 469 q 327 589 379 554 q 240 643 275 624 q 7 732 153 692 l 7 900 l 632 543 l 632 458 z "},"?":{"ha":564,"x_min":7,"x_max":514,"o":"m 399 301 q 283 368 283 304 q 343 468 283 408 q 421 547 393 518 q 456 583 449 576 q 514 733 514 661 q 442 892 514 833 q 269 943 376 943 q 111 907 196 943 q 7 801 7 861 q 22 749 7 778 l 85 814 q 206 856 124 856 q 313 812 272 856 q 353 701 353 768 q 251 493 353 669 q 150 290 150 319 q 169 233 150 272 q 264 256 226 256 q 349 235 299 256 q 381 274 368 258 q 399 301 393 290 m 247 -110 l 294 -6 l 400 43 l 294 92 l 247 197 l 199 92 l 93 43 l 199 -6 l 247 -110 z "},"@":{"ha":1728,"x_min":7,"x_max":1678,"o":"m 1678 199 l 1556 60 q 1557 82 1557 72 q 1557 100 1557 93 q 1550 124 1557 124 q 1497 50 1539 124 q 1426 -56 1450 -33 q 840 -274 1193 -274 q 558 -232 688 -274 q 250 -28 363 -169 q 131 318 131 117 q 185 576 131 449 q 476 911 279 793 q 910 1025 668 1025 q 1150 992 1042 1025 q 1394 840 1301 944 q 1494 575 1494 728 q 1328 193 1494 350 q 1229 123 1279 147 q 1126 97 1179 99 q 1089 125 1090 125 q 1067 144 1071 125 q 1065 162 1065 149 q 1061 199 1064 175 q 1099 372 1065 235 q 1135 519 1122 467 q 1151 586 1149 572 q 1243 826 1186 701 l 1203 847 q 1134 808 1167 825 q 1069 781 1101 792 l 1060 775 q 1054 750 1057 761 q 1050 732 1051 739 q 925 808 1008 806 q 635 699 782 813 q 505 562 556 636 q 433 399 454 488 q 424 351 426 374 q 422 308 422 328 q 464 165 422 225 q 636 76 524 79 q 928 260 839 72 q 903 97 903 147 q 919 53 903 53 l 951 22 l 960 111 l 997 50 q 1056 6 1024 6 q 1281 57 1178 6 q 1503 265 1419 125 q 1586 561 1586 403 q 1543 764 1586 668 q 1278 1026 1467 939 q 906 1101 1115 1101 q 728 1088 814 1101 q 560 1044 642 1074 q 167 781 315 961 q 7 339 7 588 q 69 64 7 190 q 390 -253 174 -146 q 835 -353 590 -353 q 1678 199 1461 -353 m 1011 481 q 1015 415 1015 440 q 1010 375 1014 389 q 1007 368 1010 371 q 972 476 988 471 q 964 478 969 478 q 924 415 936 482 q 911 350 917 378 q 901 307 906 322 q 878 251 894 268 q 756 193 819 190 q 603 278 651 194 q 575 394 575 329 q 578 444 575 418 q 589 499 582 469 q 678 640 608 581 q 833 699 749 701 q 947 672 901 696 q 1010 576 1010 639 q 1008 551 1008 572 q 1009 519 1008 538 q 1011 481 1010 501 m 1056 725 l 1051 728 q 1056 738 1053 729 l 1056 725 z "},"A":{"ha":1122,"x_min":7,"x_max":1118,"o":"m 964 -11 q 1035 -14 996 -11 q 1118 -19 1074 -17 l 1118 42 q 1019 68 1038 50 q 981 129 1003 90 q 931 226 958 168 l 853 389 q 773 563 804 493 q 725 668 742 633 q 659 819 689 749 q 608 956 629 890 l 576 911 q 574 910 576 910 q 566 913 569 910 q 557 918 563 915 l 544 926 q 543 925 543 926 q 506 835 528 882 q 458 733 485 788 l 265 357 q 233 293 246 318 q 214 253 221 268 q 184 199 201 229 q 144 133 167 169 q 90 65 114 81 q 7 33 65 46 l 7 -19 q 103 -15 60 -17 q 183 -14 147 -14 q 266 -16 219 -14 q 375 -25 313 -18 l 375 33 q 235 86 235 50 q 336 306 235 99 q 406 311 364 308 q 507 314 449 314 l 575 314 q 665 313 626 314 q 728 308 703 311 q 826 67 826 103 q 739 36 826 49 l 739 -22 q 883 -14 826 -17 q 964 -11 939 -11 m 382 392 l 533 708 q 608 558 572 631 q 676 418 644 486 l 718 410 q 768 383 763 403 l 586 389 l 547 389 l 524 386 l 511 386 q 437 388 469 386 q 382 392 404 389 z "},"B":{"ha":896,"x_min":7,"x_max":867,"o":"m 419 -22 q 714 24 560 -24 q 867 243 867 74 q 590 508 867 444 q 756 708 756 571 q 708 839 756 782 q 428 949 628 936 l 297 957 q 218 947 274 960 q 182 936 183 940 l 182 935 q 104 938 147 935 q 8 943 61 940 l 8 881 q 114 843 94 871 q 142 558 142 800 q 133 207 142 382 q 107 60 125 74 q 86 49 97 53 q 58 42 75 44 q 41 40 54 40 q 7 36 28 39 l 7 -25 l 207 -25 q 215 -7 215 -25 q 205 55 215 15 q 175 157 194 94 l 269 -25 q 290 -33 275 -33 q 323 -26 300 -33 q 357 -19 346 -19 q 404 -22 389 -22 q 419 -22 419 -22 m 676 315 q 697 233 697 271 q 603 85 697 133 q 422 47 532 47 q 303 61 315 47 q 289 197 289 79 l 289 460 q 333 464 311 463 q 375 465 354 465 q 676 315 610 465 m 365 876 q 517 832 456 876 q 585 693 585 781 q 482 550 585 583 q 289 528 436 535 l 289 599 q 303 868 289 858 q 365 876 311 876 z "},"C":{"ha":1082,"x_min":33,"x_max":1058,"o":"m 1018 122 q 1039 165 1029 146 q 1058 200 1049 183 q 1053 208 1058 208 q 1037 201 1051 208 q 1015 194 1022 194 q 1006 198 1011 194 q 996 201 1000 201 q 971 182 983 201 q 878 90 926 119 q 679 40 800 40 q 392 135 535 40 q 218 468 218 247 q 338 772 218 726 l 483 842 q 644 883 564 883 q 801 860 707 883 q 889 829 856 846 q 938 793 922 813 q 949 742 944 783 q 965 703 951 714 q 1008 692 975 696 l 1008 706 q 1006 742 1008 719 q 1003 781 1003 765 q 1058 893 1003 854 q 1026 911 1036 914 q 1012 910 1019 911 q 993 908 1004 910 q 963 910 979 908 q 926 919 946 913 q 683 957 799 957 q 383 907 521 957 q 242 838 304 878 q 133 744 179 797 q 33 468 33 628 q 232 97 33 238 q 649 -28 408 -28 q 1050 40 776 -28 q 1054 69 1054 57 q 1036 110 1054 96 q 1024 117 1029 115 q 1018 122 1019 119 z "},"D":{"ha":1232,"x_min":7,"x_max":1208,"o":"m 532 -15 q 1103 199 914 -15 q 1208 469 1208 314 q 1151 674 1208 582 q 1042 797 1108 744 q 881 886 975 850 q 531 939 754 939 q 474 937 507 939 q 400 932 442 935 q 322 926 354 928 q 269 925 289 925 q 213 925 246 925 q 135 926 179 925 q 108 924 124 926 q 74 920 92 922 q 40 917 56 918 q 14 915 24 915 l 17 851 l 75 856 q 100 849 94 857 q 126 418 126 817 q 108 72 126 108 q 81 60 100 60 l 7 61 l 7 0 l 94 -17 l 335 -11 l 397 26 q 418 0 404 29 q 457 -35 436 -33 q 474 -32 464 -35 q 496 -25 485 -29 q 517 -18 507 -21 q 532 -15 526 -15 m 944 692 q 1019 468 1019 600 q 811 115 1019 229 q 525 53 699 53 q 289 90 431 53 l 285 228 q 283 254 283 240 q 283 282 283 268 q 285 431 283 346 q 289 624 286 517 q 292 769 290 713 q 299 849 294 825 q 507 865 346 865 q 689 824 582 865 q 832 783 794 783 q 850 785 844 783 q 906 757 883 788 l 944 692 z "},"E":{"ha":982,"x_min":7,"x_max":976,"o":"m 976 226 l 917 226 q 882 161 900 188 q 844 118 864 135 q 524 53 772 53 q 409 58 461 53 q 311 72 357 63 q 299 282 299 139 q 299 351 299 315 q 301 428 300 388 q 350 432 328 431 q 392 433 372 433 q 633 392 608 433 q 642 359 640 381 q 647 303 644 338 l 719 300 q 692 481 692 407 q 714 599 692 549 l 660 607 q 611 517 632 525 q 533 508 594 510 q 364 506 471 506 q 340 533 357 506 q 318 564 321 564 q 258 474 288 553 q 228 394 239 424 q 211 358 217 365 q 210 357 211 357 l 253 606 q 289 672 265 672 q 294 671 290 672 q 299 669 297 669 q 301 674 301 669 q 305 757 301 711 q 315 857 308 803 q 567 869 444 869 q 744 856 671 869 q 807 807 807 843 q 803 779 807 796 q 800 753 800 763 q 840 725 800 725 q 903 944 886 725 q 722 940 799 942 q 600 939 646 939 l 28 939 q 22 886 22 918 q 110 865 100 874 q 136 781 131 847 q 139 746 139 769 q 140 689 139 724 q 144 474 143 558 q 143 351 144 390 l 142 317 q 134 176 138 231 q 126 97 131 122 q 110 53 121 61 q 58 39 82 44 q 11 31 33 33 l 7 -28 q 204 -22 115 -25 q 364 -19 293 -19 l 549 -19 q 601 -6 565 -19 q 635 6 621 3 q 658 10 650 10 q 665 8 664 10 q 654 -4 664 6 q 626 -33 644 -14 l 626 -35 q 692 -33 650 -35 q 794 -28 733 -32 q 874 -24 843 -25 q 918 -25 904 -24 q 921 38 919 14 q 924 68 922 61 q 940 156 926 117 q 976 226 954 196 z "},"F":{"ha":876,"x_min":3,"x_max":857,"o":"m 849 756 q 851 861 850 814 q 857 944 853 908 q 667 935 769 938 q 442 933 564 933 q 408 933 429 933 q 357 935 388 933 q 317 936 338 936 q 275 936 296 936 l 143 940 l 115 940 l 43 939 l 43 883 q 100 868 89 879 q 103 858 101 863 q 108 847 106 854 q 128 475 128 803 q 124 227 128 324 q 110 90 119 131 q 68 49 104 61 q 46 44 61 47 q 7 39 31 42 l 3 -19 q 103 -15 58 -17 q 182 -14 147 -14 l 268 -14 l 418 -18 l 418 43 q 350 61 353 56 q 308 82 319 71 q 289 214 289 100 q 283 385 289 318 q 261 483 276 453 q 307 465 279 483 q 324 451 318 456 q 331 442 331 446 q 569 417 528 442 q 607 457 586 457 q 608 376 608 456 l 667 344 q 656 414 668 365 q 643 478 643 457 q 647 505 643 489 q 657 542 650 521 q 667 607 669 582 q 640 593 658 604 q 611 583 622 583 q 603 543 611 556 l 590 532 q 374 508 575 508 q 367 510 372 508 q 328 511 343 511 q 303 514 313 511 l 290 515 l 290 611 q 292 757 290 696 q 297 858 293 818 q 367 864 322 863 q 476 865 411 865 q 760 818 729 865 q 781 726 775 794 l 807 800 q 808 807 807 806 q 826 776 810 807 q 847 749 846 749 q 849 756 849 749 z "},"G":{"ha":1192,"x_min":26,"x_max":1192,"o":"m 1126 389 q 1182 397 1136 392 l 1192 456 q 931 499 1119 451 q 636 547 729 547 q 547 536 589 547 l 543 435 q 614 442 583 433 q 736 471 693 461 q 789 481 779 481 q 797 478 794 481 l 769 461 q 742 439 742 446 q 751 432 742 433 q 833 422 793 426 q 915 415 874 418 q 947 353 935 403 q 953 308 950 338 q 956 236 956 278 q 944 107 956 121 q 900 81 929 92 q 826 60 871 69 q 699 44 754 44 q 490 85 586 44 q 286 239 371 133 q 199 475 199 351 q 257 667 199 571 q 339 718 263 679 q 424 774 414 756 q 533 850 458 824 q 667 875 597 875 q 864 840 778 875 q 922 801 890 832 q 972 778 950 778 q 995 782 981 778 q 1017 786 1010 786 q 1023 782 1018 786 q 1033 774 1028 778 q 1042 765 1038 769 q 1047 761 1046 761 q 1075 790 1075 761 q 1070 800 1075 793 q 1065 810 1065 807 q 1055 864 1058 842 q 1051 900 1051 886 q 1022 944 1051 944 q 964 914 1008 944 l 925 925 q 907 930 918 928 q 881 935 896 932 q 791 946 833 942 q 708 950 749 950 q 458 919 572 950 q 160 761 275 874 q 26 458 26 632 q 182 128 26 265 q 672 -28 354 -28 q 851 -21 768 -28 q 1007 0 933 -14 q 1083 15 1047 7 q 1140 33 1118 22 l 917 40 l 1047 57 l 1100 61 q 1125 72 1119 64 q 1125 85 1131 79 q 1114 203 1114 101 l 1114 319 q 1126 389 1115 385 z "},"H":{"ha":1365,"x_min":7,"x_max":1353,"o":"m 1349 -32 l 1353 28 q 1258 50 1278 36 q 1228 307 1224 75 l 1236 635 q 1242 767 1239 717 q 1251 840 1244 818 q 1192 890 1254 843 l 1193 892 l 1251 885 q 1322 882 1313 881 l 1353 890 l 1343 942 q 1303 941 1328 942 q 1247 939 1279 940 q 1150 935 1185 935 q 1058 939 1110 935 q 942 950 1006 943 l 932 890 q 1001 877 975 883 q 1039 867 1028 871 q 1060 844 1054 861 q 1074 650 1075 808 l 1072 515 q 1058 521 1065 515 q 1044 526 1051 526 q 932 539 1000 539 q 699 518 853 539 q 565 503 622 508 q 468 499 507 499 q 322 533 363 499 l 322 608 q 358 861 322 844 q 422 873 392 868 q 476 881 451 878 q 474 910 475 896 q 474 939 474 924 l 328 936 q 290 938 313 936 q 236 940 267 939 q 144 944 174 944 q 99 942 125 944 q 40 935 74 940 l 35 878 q 95 874 71 876 q 131 865 119 872 q 156 822 147 856 q 165 740 163 786 q 165 636 167 694 q 163 520 164 567 q 160 450 161 474 q 149 168 157 265 q 133 60 142 71 q 75 42 124 50 q 47 38 64 40 q 7 33 29 36 l 35 -26 q 149 -21 106 -24 q 208 -19 192 -18 l 453 -31 l 458 26 q 336 58 353 46 q 318 194 318 76 q 322 426 318 344 q 553 374 368 374 q 688 380 613 374 q 856 397 763 386 q 1032 418 992 414 l 1069 415 l 1072 347 q 1057 85 1074 163 q 1007 43 1049 56 q 983 38 1000 40 q 939 33 965 36 l 944 -25 q 994 -24 965 -25 q 1060 -22 1022 -24 q 1175 -18 1136 -18 q 1269 -22 1226 -18 q 1349 -32 1313 -25 z "},"I":{"ha":551,"x_min":7,"x_max":536,"o":"m 364 515 l 364 593 q 332 547 344 547 q 328 549 331 547 q 318 583 318 568 q 340 644 318 608 q 367 694 364 685 l 386 794 q 419 853 397 843 q 536 874 474 874 l 536 943 q 409 919 472 928 q 282 910 346 910 q 153 919 218 910 q 18 943 88 928 l 18 876 q 60 874 38 876 q 108 865 82 872 q 186 825 174 847 q 189 817 189 824 q 187 785 189 804 q 182 743 185 767 q 178 701 179 719 q 176 669 176 682 q 184 565 176 618 q 208 458 192 513 l 247 325 l 247 319 q 244 318 247 318 q 228 339 244 318 q 210 360 213 360 q 208 358 208 360 q 147 100 208 132 q 106 81 124 89 q 78 65 89 72 q 7 40 33 42 l 11 -19 q 138 5 74 -4 q 274 14 203 14 q 406 5 343 14 q 525 -19 468 -4 l 533 43 q 449 56 500 43 q 374 90 383 68 q 364 515 364 114 z "},"J":{"ha":556,"x_min":-215,"x_max":551,"o":"m 386 -218 q 385 -217 386 -217 q 385 -217 385 -217 l 385 -8 q 385 74 385 25 q 383 190 385 124 q 382 306 382 257 q 382 390 382 356 l 382 500 q 383 596 382 544 q 385 708 383 647 q 388 769 386 749 q 389 793 389 790 q 426 860 394 849 q 551 876 457 872 l 549 940 q 300 932 358 932 q 299 928 299 932 q 301 915 299 924 q 308 896 304 906 q 315 877 313 886 q 318 864 318 868 q 308 850 318 851 q 231 882 292 847 q 164 918 167 918 q 134 921 153 918 q 92 928 115 924 q 18 940 43 940 l 31 875 q 119 875 78 878 q 208 819 194 867 q 224 686 219 788 q 228 410 228 585 l 228 126 q 174 -128 228 -49 q -93 -317 92 -247 q -97 -302 -94 -315 q -100 -261 -99 -289 q -122 -211 -103 -211 q -192 -265 -164 -211 q -215 -343 -215 -308 q -185 -378 -215 -364 q -139 -392 -160 -392 q 39 -317 -49 -392 q 201 -206 179 -215 q 307 -158 283 -158 q 385 -217 349 -158 q 385 -219 385 -218 q 386 -218 386 -219 z "},"K":{"ha":1117,"x_min":7,"x_max":1111,"o":"m 290 389 q 338 360 318 372 q 368 342 357 349 q 707 139 426 303 q 818 35 818 71 l 817 35 q 808 37 815 35 q 799 36 801 39 q 744 25 771 33 l 749 -28 q 869 -3 799 -25 q 926 10 904 6 q 960 15 949 15 q 974 10 961 15 q 1011 -3 988 6 q 1111 -28 1065 -26 l 1107 25 q 981 97 1021 67 q 653 329 799 232 q 399 490 508 426 l 465 542 q 670 705 588 642 q 797 797 753 768 q 992 881 907 872 l 989 944 q 811 919 901 919 q 622 936 735 919 l 626 875 q 710 857 710 872 q 694 826 710 840 q 644 779 672 804 q 582 726 615 754 l 290 493 l 290 542 q 294 706 290 607 q 314 856 303 838 q 439 886 328 878 l 439 947 q 239 935 318 935 q 151 936 207 935 q 14 940 96 938 l 17 881 q 107 864 93 872 q 139 826 119 856 q 160 767 157 796 q 135 717 147 725 q 138 556 136 621 q 140 460 139 492 q 138 332 142 401 q 128 178 135 263 q 93 50 121 61 q 63 41 85 44 q 7 35 40 38 l 7 -25 q 91 -21 51 -22 q 169 -19 131 -19 q 439 -32 357 -19 l 439 28 q 367 39 411 28 q 303 69 317 51 q 297 118 300 81 q 293 219 294 156 q 291 314 292 272 q 290 389 290 356 z "},"L":{"ha":943,"x_min":7,"x_max":950,"o":"m 864 44 q 910 126 869 65 q 950 201 949 186 l 886 208 q 817 110 865 133 q 492 60 713 60 q 307 75 333 60 q 290 228 290 90 q 314 839 290 792 q 332 856 319 849 q 394 867 365 863 q 447 874 424 872 l 450 936 q 424 940 439 936 q 386 950 408 943 q 349 960 365 957 q 324 964 333 964 q 239 933 281 964 q 178 915 214 915 q 100 925 147 915 q 19 935 51 935 l 19 875 q 74 872 53 874 q 106 867 94 871 q 126 842 119 863 q 137 766 133 825 q 139 606 140 707 l 136 292 q 135 201 135 238 q 133 150 135 167 q 94 57 129 72 q 7 36 75 50 l 11 -18 l 640 -18 q 765 -21 707 -18 q 874 -28 822 -24 q 878 -11 878 -19 l 868 1 q 858 24 858 13 q 864 44 858 33 z "},"M":{"ha":1557,"x_min":7,"x_max":1547,"o":"m 1081 -22 q 1212 2 1147 -6 q 1339 10 1276 10 q 1547 -11 1443 10 l 1547 50 q 1482 65 1521 50 q 1459 74 1475 68 q 1418 90 1443 79 q 1374 719 1374 179 q 1378 807 1374 774 q 1392 856 1383 840 q 1503 906 1417 897 l 1508 967 q 1402 939 1446 947 q 1333 931 1358 931 q 1314 931 1325 931 q 1293 932 1304 931 l 1253 936 q 803 236 1108 674 q 778 269 800 243 q 717 343 756 296 q 651 464 671 399 q 644 492 650 464 q 642 503 643 500 q 642 506 642 507 q 623 417 631 453 q 611 358 615 382 q 608 385 611 356 q 597 476 604 414 q 574 610 578 608 q 556 624 564 621 q 444 765 493 665 q 425 816 442 774 q 376 935 408 858 q 239 918 286 918 q 94 944 172 918 l 86 868 q 169 856 139 865 q 210 831 199 846 q 225 703 225 807 q 223 606 225 658 q 214 490 221 554 q 201 356 206 408 q 193 278 196 303 q 167 101 181 126 q 11 33 136 50 l 7 -19 q 225 8 125 8 q 335 1 279 8 q 447 -22 390 -7 l 450 36 q 310 81 361 58 q 294 113 299 96 q 289 144 289 129 q 297 401 289 263 q 325 703 306 539 q 452 506 396 593 q 550 356 508 419 q 659 166 613 258 q 740 -14 706 74 l 803 19 q 883 192 836 104 q 993 374 931 281 l 1217 701 q 1242 243 1242 535 q 1208 101 1242 140 q 1076 40 1176 63 l 1081 -22 z "},"N":{"ha":1176,"x_min":7,"x_max":1167,"o":"m 333 -19 q 344 -14 344 -19 q 315 31 344 -6 l 286 67 q 289 68 286 68 q 231 178 236 88 q 229 222 228 189 q 232 315 231 256 l 243 718 q 368 592 315 663 l 435 501 l 611 307 q 840 94 697 211 q 975 -33 950 4 l 1040 -36 q 1033 104 1035 25 q 1031 281 1031 183 q 1057 831 1031 729 q 1101 874 1063 861 q 1124 877 1108 875 q 1167 883 1140 879 l 1161 942 q 1057 940 1097 940 q 997 940 1017 940 q 965 899 985 896 q 937 906 954 900 q 894 922 919 911 q 855 939 869 933 q 833 944 840 944 q 803 944 817 944 q 778 943 789 944 l 756 892 q 831 880 801 885 q 875 872 861 875 q 914 843 899 864 q 942 606 942 800 l 942 468 q 940 335 942 393 q 936 232 939 276 q 803 353 858 303 q 717 435 749 404 l 524 611 q 344 800 404 719 q 269 899 296 864 q 239 939 243 933 l 156 936 q 43 936 71 933 l 43 872 q 75 865 74 868 q 89 853 81 861 q 140 736 131 826 q 140 601 142 711 l 135 260 q 115 75 133 113 q 51 43 103 49 q 7 8 7 40 q 50 -26 7 -29 q 173 -21 125 -24 q 243 -18 221 -18 q 293 -17 271 -17 q 333 -19 315 -18 z "},"O":{"ha":1269,"x_min":25,"x_max":1238,"o":"m 918 24 q 1146 197 1060 86 q 1238 464 1238 314 q 1049 826 1238 685 q 646 957 875 957 q 357 897 497 957 q 125 726 213 835 q 25 460 25 607 q 179 128 25 278 q 615 -35 350 -35 q 699 -33 664 -35 q 757 -28 733 -32 q 918 24 824 -19 m 1033 586 q 1061 499 1053 544 q 1069 407 1069 454 q 963 143 1069 238 q 690 51 860 51 q 340 178 483 51 q 192 515 192 311 q 310 782 192 683 q 592 869 419 869 q 719 814 643 869 q 846 743 803 751 q 963 692 919 731 q 1033 586 1000 656 z "},"P":{"ha":926,"x_min":7,"x_max":901,"o":"m 818 486 q 901 657 901 583 q 772 865 901 769 q 393 950 661 950 q 349 949 375 950 q 290 944 324 947 q 230 942 256 943 q 186 942 204 942 q 96 943 140 942 q 8 947 51 944 q 13 940 8 944 q 23 929 17 935 q 34 918 29 924 q 39 911 39 913 q 34 907 39 911 q 23 897 29 903 q 12 888 17 892 q 7 883 7 883 q 117 858 104 874 q 131 808 126 847 l 133 761 q 135 743 135 753 q 135 722 135 733 q 134 685 135 707 q 132 632 133 663 q 131 581 131 603 q 131 544 131 560 q 160 343 131 418 q 178 239 178 294 q 167 160 178 203 q 132 65 156 117 q 82 40 129 50 l 19 25 l 19 -24 q 48 -29 35 -26 q 72 -32 61 -32 l 117 -28 q 192 -22 154 -25 q 265 -19 229 -19 q 347 -21 315 -19 q 393 -25 379 -22 l 468 36 q 311 65 322 44 q 318 132 311 101 q 313 233 315 190 q 308 306 310 276 l 299 451 q 313 438 301 444 q 343 422 324 432 q 533 374 429 374 q 818 486 719 374 m 689 767 q 715 708 706 736 q 724 650 724 679 q 657 500 724 575 q 518 453 614 453 q 372 497 425 453 q 337 523 356 510 q 299 551 318 536 q 297 621 297 599 q 297 647 297 644 l 307 867 q 360 874 335 872 q 408 876 385 876 q 689 767 622 876 z "},"Q":{"ha":1289,"x_min":40,"x_max":1253,"o":"m 374 -233 l 950 -228 l 922 -172 q 915 -171 917 -172 q 918 -169 917 -171 l 910 -169 q 873 -165 897 -168 q 824 -160 849 -162 q 779 -155 799 -157 q 758 -150 760 -153 q 746 -31 749 -119 q 759 -30 753 -31 q 772 -28 765 -29 q 892 4 832 -19 q 1004 60 951 28 q 1099 129 1057 93 q 1161 197 1140 165 q 1253 464 1253 314 q 1064 826 1253 685 q 661 957 890 957 q 372 897 513 957 q 140 726 228 835 q 40 460 40 607 q 194 128 40 278 q 621 -35 358 -31 q 603 -124 603 -83 q 569 -168 599 -157 q 546 -169 569 -168 q 491 -171 522 -169 q 428 -174 460 -172 q 383 -176 397 -175 l 374 -233 m 1049 586 q 1076 499 1068 544 q 1085 407 1085 454 q 978 143 1085 238 q 939 114 958 128 q 897 89 919 100 q 828 65 869 74 q 746 53 786 56 q 747 98 746 75 q 750 144 749 121 q 760 274 753 219 q 778 361 768 328 q 735 369 749 369 q 533 276 631 299 q 503 244 503 271 q 560 218 503 224 q 581 216 572 217 q 593 215 589 215 q 601 125 599 164 q 607 60 604 86 l 607 58 q 356 178 465 81 q 207 515 207 311 q 326 776 207 676 q 410 803 358 803 q 435 802 419 803 q 466 800 450 801 q 497 798 482 799 q 522 797 513 797 q 563 802 538 797 q 619 818 588 807 q 719 840 685 840 q 869 793 800 840 q 1049 586 990 717 z "},"R":{"ha":997,"x_min":7,"x_max":993,"o":"m 974 -31 q 993 -6 993 -22 q 960 28 993 25 q 900 47 907 32 q 819 165 875 104 q 782 215 804 181 q 732 297 760 249 q 677 385 700 350 q 640 440 654 421 q 869 686 869 519 q 842 785 869 736 q 676 914 793 871 q 465 949 579 949 q 399 946 439 949 q 307 939 360 943 q 149 931 199 931 q 79 931 113 931 q 15 932 47 931 l 49 883 q 94 860 94 871 q 119 835 111 856 q 133 593 133 800 l 133 278 q 106 58 133 86 q 73 44 88 50 q 47 35 58 39 q 7 0 7 22 q 44 -31 7 -31 l 103 -40 q 117 -42 110 -42 q 131 -42 124 -42 q 152 -38 139 -42 q 180 -31 165 -35 q 208 -23 194 -26 q 232 -19 222 -19 q 397 -32 286 -19 q 426 1 426 -32 q 383 33 426 21 q 253 8 365 33 l 235 40 q 297 47 294 43 q 306 65 307 64 q 286 425 283 110 q 364 419 322 421 q 451 418 406 418 q 548 317 508 360 q 611 244 588 274 q 681 148 651 196 q 732 51 710 100 q 839 -40 799 -40 q 874 -36 842 -40 q 926 -33 901 -35 q 974 -31 951 -32 m 674 761 q 701 668 701 710 q 415 492 701 492 q 292 500 343 492 q 310 857 294 824 q 368 844 319 875 q 385 840 378 840 q 417 860 394 840 l 436 882 q 674 761 603 882 z "},"S":{"ha":832,"x_min":-12,"x_max":803,"o":"m 754 97 q 803 232 803 157 q 625 467 803 400 q 475 522 554 493 q 308 582 396 550 q 199 722 199 619 q 254 811 199 786 l 419 882 q 478 897 447 897 q 647 814 543 897 q 662 801 654 807 q 679 789 669 796 q 685 771 682 782 q 692 740 689 760 l 758 697 q 758 737 761 710 q 750 808 756 764 l 765 933 q 725 942 738 942 l 714 936 q 669 925 693 925 q 654 926 665 925 q 628 931 643 928 q 599 937 621 932 q 540 951 576 942 q 454 967 482 967 q 438 966 444 967 q 425 964 432 965 q 374 947 406 956 q 297 926 342 938 q 186 889 224 910 q 54 676 54 817 q 283 433 54 510 q 419 390 365 407 q 500 364 472 372 q 649 190 649 314 q 586 75 649 100 q 444 44 513 44 q 289 65 361 44 q 115 135 149 101 q 78 194 90 158 l 50 261 l 25 208 q -12 150 -1 154 q 1 116 -10 139 q 29 56 13 93 q 40 -18 42 22 l 106 -33 q 106 8 103 -25 q 108 40 108 40 q 138 0 129 18 q 274 -23 208 -15 q 397 -31 339 -31 q 754 97 656 -31 z "},"T":{"ha":1089,"x_min":-39,"x_max":1124,"o":"m 289 849 q 372 847 331 849 q 453 842 413 846 q 468 483 468 793 l 468 272 q 457 224 460 250 q 454 169 454 199 q 455 110 456 133 q 451 74 454 86 q 399 50 447 63 q 366 42 383 46 q 332 35 349 39 q 319 1 319 18 q 357 -32 319 -32 q 456 -28 390 -32 q 513 -26 488 -26 q 554 -25 538 -25 q 597 -27 571 -25 q 656 -35 622 -29 q 717 -42 692 -40 q 760 -44 743 -44 q 794 -39 788 -44 l 803 15 q 778 40 792 31 q 744 49 764 49 q 708 22 721 32 q 690 10 694 13 l 690 11 q 695 22 693 15 q 703 39 697 28 q 703 61 714 61 q 636 117 649 61 q 632 159 633 132 q 631 226 631 186 q 642 250 631 232 q 654 283 654 268 q 628 385 654 319 q 615 451 615 415 q 617 472 615 460 q 620 497 618 483 q 624 523 622 511 q 626 543 626 535 q 631 710 626 635 q 646 844 635 786 l 771 849 q 1004 819 939 853 q 1000 785 1003 804 q 994 743 997 765 l 1068 751 q 1124 924 1088 843 q 1100 940 1110 931 q 1081 960 1090 949 q 644 919 1033 913 l 236 926 q 146 928 182 928 q 90 928 110 928 l 81 931 l 81 928 q 4 958 39 928 q -39 922 -14 933 q 18 751 0 836 l 93 743 q 85 784 89 765 q 81 818 82 803 q 289 849 138 849 z "},"U":{"ha":1238,"x_min":0,"x_max":1233,"o":"m 1138 806 q 1110 839 1138 807 q 1083 875 1083 869 q 1086 876 1083 876 q 1147 873 1118 875 q 1201 867 1175 871 l 1213 882 q 1233 899 1225 899 l 1233 961 q 1181 960 1211 964 q 1110 950 1150 957 q 985 935 1021 935 q 913 931 975 935 l 921 869 q 1010 844 993 869 q 1038 633 1038 806 q 990 192 1038 307 q 836 81 958 118 q 739 58 788 65 q 638 51 690 51 q 307 217 349 51 q 294 322 297 249 q 290 510 290 396 q 313 835 290 797 q 392 872 332 860 q 407 874 401 872 l 399 899 l 401 939 q 260 933 324 935 q 149 932 197 932 q 71 932 107 932 q 8 933 36 932 l 0 872 q 72 865 46 868 q 104 860 97 863 q 113 851 110 860 q 135 594 135 790 q 110 507 135 569 q 91 452 97 475 q 83 414 85 429 q 107 335 83 386 q 132 283 132 286 q 285 32 132 114 q 590 -32 410 -32 q 1058 125 957 -32 q 1133 544 1121 221 q 1138 751 1138 653 q 1138 806 1142 794 z "},"V":{"ha":1300,"x_min":7,"x_max":1294,"o":"m 1151 861 q 1294 886 1233 881 l 1294 939 q 1218 928 1271 939 q 1174 922 1193 925 q 1143 919 1156 919 q 1047 931 1103 919 q 992 940 1015 938 q 951 944 968 943 l 940 881 q 1040 843 1040 874 q 949 643 1040 806 l 853 474 q 758 308 800 381 q 682 185 715 236 l 636 264 q 317 874 317 804 q 352 881 333 879 q 393 885 371 883 l 425 940 l 272 940 l 7 944 l 35 881 q 67 879 54 881 q 86 875 79 878 q 96 869 90 874 q 110 857 101 864 q 229 687 146 825 q 447 303 313 549 l 519 167 q 594 27 568 76 q 626 -33 621 -22 l 725 -139 q 692 -17 692 -72 q 753 153 692 39 q 794 223 768 181 q 856 324 819 265 l 1050 643 q 1110 740 1086 701 q 1149 799 1135 779 q 1153 811 1153 804 q 1147 830 1153 818 q 1142 847 1142 842 q 1151 861 1142 856 z "},"W":{"ha":1756,"x_min":7,"x_max":1750,"o":"m 1217 197 q 1162 317 1197 238 q 1076 517 1126 396 q 995 723 1024 649 q 964 817 967 797 q 851 636 921 732 l 706 368 q 670 302 686 333 q 642 243 654 271 l 622 200 q 349 831 349 764 q 493 869 349 863 l 486 933 l 408 933 q 336 911 389 933 q 264 890 286 890 q 250 899 250 888 q 255 914 250 904 q 260 926 260 924 q 257 931 260 931 q 160 932 222 931 q 7 936 99 933 l 11 869 q 111 858 88 869 q 183 786 151 843 q 202 753 190 775 q 231 694 214 731 q 309 523 269 615 q 390 326 349 431 q 428 235 414 269 q 447 190 442 201 l 551 -61 l 600 -61 q 700 182 682 149 q 787 343 746 271 q 864 474 828 415 q 865 478 865 475 q 835 485 865 483 q 806 493 806 486 l 894 543 l 1026 247 q 1088 100 1058 176 q 1150 -60 1118 24 l 1200 -61 q 1225 -3 1215 -26 q 1239 32 1235 21 l 1265 94 q 1316 205 1296 161 q 1347 269 1336 249 l 1518 664 q 1653 857 1590 826 q 1743 876 1686 872 l 1750 936 q 1583 934 1669 935 q 1400 933 1496 933 l 1283 933 l 1300 875 q 1374 869 1342 874 q 1428 857 1406 864 q 1464 801 1464 844 q 1357 501 1464 751 q 1285 342 1321 418 q 1217 197 1250 267 z "},"X":{"ha":1246,"x_min":7,"x_max":1235,"o":"m 1235 -25 l 1226 36 q 1142 56 1167 44 q 1058 122 1108 68 l 707 506 q 754 559 731 533 q 801 611 778 585 q 900 717 858 674 q 968 785 942 760 q 1058 856 1019 836 q 1169 881 1100 874 l 1169 939 l 972 939 q 928 940 954 939 q 867 942 903 940 q 807 944 833 943 q 764 944 781 944 l 756 885 q 816 880 792 883 q 856 872 840 876 q 875 847 875 864 q 651 561 875 806 q 378 869 378 846 q 389 878 378 875 l 474 878 l 460 942 q 375 938 421 939 q 274 936 329 936 q 147 939 207 936 q 35 947 88 942 l 31 886 q 81 880 60 883 q 115 874 103 876 q 289 733 171 853 q 319 678 319 701 q 315 658 319 671 q 310 639 310 646 q 394 558 310 611 l 551 461 l 560 447 q 563 442 561 444 q 564 439 564 440 q 503 410 564 422 q 335 235 399 301 q 247 144 272 168 q 136 69 194 97 q 11 32 78 40 l 7 -25 l 82 -22 q 182 -19 144 -19 q 235 -19 219 -18 l 449 -25 l 449 35 q 328 78 328 49 q 392 172 328 100 q 521 313 467 256 q 607 403 575 371 q 719 282 660 346 q 840 147 778 218 q 890 64 890 90 q 776 35 890 54 l 790 -25 q 933 -19 875 -21 q 1018 -18 990 -17 l 1135 -19 q 1195 -23 1171 -22 q 1235 -25 1219 -24 z "},"Y":{"ha":1185,"x_min":7,"x_max":1175,"o":"m 1172 865 l 1175 931 q 1135 931 1158 931 q 1081 928 1113 931 q 1025 926 1049 926 q 985 926 1001 926 q 915 928 965 926 q 783 933 865 929 l 775 868 q 894 840 894 874 q 865 775 894 821 q 776 658 836 729 q 692 555 724 594 q 647 500 660 515 q 564 604 600 558 q 500 685 528 650 q 456 740 482 708 q 397 810 431 771 q 358 860 358 856 l 365 860 q 460 869 385 865 l 469 932 l 408 935 q 376 935 397 935 q 325 933 357 935 q 299 836 315 836 l 244 885 q 181 932 193 932 q 144 934 160 933 q 115 935 128 935 l 7 935 l 19 875 q 79 870 56 874 q 115 861 103 867 q 217 785 151 850 l 311 689 q 381 611 349 649 q 442 535 414 574 l 526 414 q 528 383 528 403 q 528 332 528 364 q 528 218 528 265 q 526 143 528 172 q 507 53 524 65 q 462 35 493 42 q 378 26 431 28 l 378 -31 q 427 -28 399 -31 q 494 -24 456 -26 q 563 -19 535 -21 q 610 -18 590 -18 l 647 -18 l 819 -26 q 826 -14 826 -21 q 824 -10 826 -10 l 840 7 l 824 7 q 832 8 825 8 q 843 10 833 10 l 843 24 q 692 69 703 49 l 653 64 q 633 81 633 64 q 660 145 647 117 q 686 194 672 174 l 683 422 l 772 532 q 906 697 851 632 q 992 794 960 763 q 1074 851 1039 840 q 1172 865 1103 863 z "},"Z":{"ha":1142,"x_min":7,"x_max":1140,"o":"m 1025 -43 q 1047 2 1033 -25 q 1081 68 1061 29 q 1115 137 1100 107 q 1140 189 1129 167 l 1033 144 q 1028 135 1028 139 q 953 99 1006 114 q 843 71 901 82 q 717 56 785 60 q 478 51 654 51 q 372 54 419 51 q 286 60 324 57 q 408 168 358 126 q 485 232 457 210 q 492 244 492 235 q 474 278 492 256 l 453 301 q 456 303 453 303 l 582 361 q 719 481 656 396 l 814 601 q 964 756 893 682 q 1097 899 1035 829 l 1097 936 q 760 931 925 933 q 431 928 594 928 q 333 928 381 928 q 244 931 288 928 q 101 956 121 932 q 75 969 89 969 q 36 875 36 969 q 38 853 36 867 q 40 827 39 840 q 42 801 40 814 q 43 781 43 789 q 39 747 43 761 l 93 724 q 106 761 106 746 l 106 790 q 118 814 107 807 q 192 840 143 829 q 311 856 240 851 q 388 857 331 857 q 542 857 446 857 q 704 856 631 857 q 839 851 778 854 q 435 408 640 615 q 14 17 231 200 q 7 -28 14 4 q 160 -21 88 -24 q 303 -18 233 -18 l 753 -18 q 956 -24 924 -18 q 976 -6 968 -14 q 989 7 985 1 q 994 0 990 4 q 1006 -15 997 -4 q 1025 -43 1021 -43 z "},"[":{"ha":336,"x_min":7,"x_max":286,"o":"m 8 -424 l 286 -424 l 286 -324 l 117 -324 q 119 -286 118 -306 q 119 -243 119 -267 q 119 -196 119 -224 q 117 -131 118 -168 q 115 -65 115 -94 q 115 -18 115 -37 q 123 138 115 64 q 147 281 131 213 q 153 319 150 300 q 156 361 156 339 q 153 408 156 383 q 147 464 150 433 q 139 531 142 508 q 135 561 136 554 q 125 790 129 699 q 117 928 121 882 l 286 928 l 286 1026 l 7 1026 q 31 771 22 889 q 39 551 39 653 q 38 508 39 533 q 35 450 36 483 q 33 392 33 417 q 32 347 32 367 q 36 183 29 288 q 39 147 39 171 q 39 93 39 125 q 31 -115 39 13 q 8 -424 24 -243 z "},"\\":{"ha":964,"x_min":7,"x_max":914,"o":"m 792 -231 q 449 384 644 53 q 7 1103 254 715 l 132 1103 q 564 392 369 724 q 914 -231 758 61 l 792 -231 z "},"]":{"ha":336,"x_min":7,"x_max":286,"o":"m 286 -424 q 257 93 257 -65 q 257 147 257 125 q 258 183 257 171 q 263 277 261 236 q 264 347 264 318 q 260 390 261 364 q 258 450 260 417 q 257 510 257 483 q 257 551 257 536 q 286 1026 257 753 l 7 1026 l 7 928 l 178 928 q 169 790 174 882 q 158 561 164 699 q 156 531 158 554 q 147 464 154 508 q 142 408 143 433 q 140 361 140 383 q 149 281 140 318 q 178 -18 178 144 q 177 -66 178 -37 q 175 -131 176 -94 q 174 -196 174 -168 q 174 -243 174 -224 q 174 -286 174 -267 q 176 -324 175 -306 l 7 -324 l 7 -424 l 286 -424 z "},"^":{"ha":601,"x_min":7,"x_max":551,"o":"m 424 622 q 368 736 397 703 q 333 774 354 754 q 281 815 313 793 q 140 622 185 744 l 7 622 q 260 961 75 778 l 303 961 q 395 874 357 913 q 457 806 433 835 q 551 622 511 733 l 424 622 z "},"_":{"ha":949,"x_min":0,"x_max":949,"o":"m 0 -178 l 949 -178 l 949 -69 l 0 -69 l 0 -178 z "},"`":{"ha":336,"x_min":7,"x_max":286,"o":"m 158 736 q 89 819 131 749 q 7 910 44 894 l 160 907 q 201 832 164 904 q 286 736 239 758 l 158 736 z "},"a":{"ha":875,"x_min":42,"x_max":861,"o":"m 713 603 q 593 544 649 564 q 588 544 590 544 q 583 543 586 543 l 583 510 q 440 567 522 567 q 174 474 296 567 q 42 233 42 375 q 129 50 42 117 q 328 -15 211 -15 q 576 136 535 -15 q 621 -26 581 -26 l 642 -31 q 666 -33 656 -32 q 683 -33 676 -33 q 861 35 781 -33 l 850 68 q 786 39 814 39 q 728 90 750 39 q 724 228 724 119 q 724 343 724 301 q 725 399 724 386 q 735 492 728 444 q 757 589 742 540 l 713 603 m 374 478 q 494 460 442 478 q 582 386 569 433 q 608 308 582 365 q 633 228 635 250 q 632 224 633 225 q 568 307 583 301 q 560 308 567 308 q 535 258 535 308 q 538 215 535 243 q 540 172 540 186 q 529 128 540 142 q 418 81 482 81 q 243 143 310 81 q 175 314 175 207 q 240 433 175 386 q 302 467 268 457 q 374 478 336 478 m 592 503 q 589 504 590 503 q 588 506 588 506 q 589 517 588 510 q 593 538 590 525 q 593 526 593 535 q 592 503 593 518 z "},"b":{"ha":844,"x_min":7,"x_max":794,"o":"m 724 125 q 794 300 794 196 q 694 497 794 418 q 482 567 601 567 q 257 514 390 567 q 265 663 263 608 q 269 732 268 717 q 276 779 274 758 q 281 818 278 800 q 249 851 282 851 q 232 848 242 851 q 211 835 222 844 q 158 811 208 833 q 7 749 107 789 q 17 715 7 721 q 51 710 24 710 q 106 694 96 710 q 122 525 122 667 q 100 51 122 119 l 83 -1 l 115 -18 l 139 -8 q 147 -6 142 -7 q 161 -3 153 -6 q 191 -5 172 -3 q 218 -7 210 -7 l 224 40 q 236 89 228 89 q 239 85 239 86 q 240 83 239 85 q 318 3 253 32 q 363 -10 342 -6 q 406 -15 383 -15 q 724 125 590 -15 m 258 443 q 343 475 303 465 q 419 485 383 485 q 513 467 471 485 q 586 419 556 450 q 633 344 617 388 q 649 249 649 301 q 586 110 649 161 q 442 61 529 61 q 336 92 386 61 q 268 199 276 129 q 253 256 253 210 l 253 275 q 254 328 253 301 q 257 383 256 356 l 258 439 l 258 443 z "},"c":{"ha":658,"x_min":33,"x_max":636,"o":"m 563 428 q 615 490 575 476 q 633 500 633 497 q 536 556 633 531 q 411 576 457 576 q 244 533 335 576 q 162 483 199 513 q 96 417 125 453 q 33 242 33 338 q 96 64 33 119 q 226 -6 146 19 q 301 -22 264 -17 q 374 -28 338 -28 q 635 64 504 -28 q 624 72 636 68 q 603 75 603 75 q 607 88 603 76 q 611 103 611 100 q 607 111 611 108 q 432 60 496 60 q 319 85 379 60 q 174 301 174 146 q 332 472 174 472 q 344 469 335 472 q 362 460 353 465 q 379 452 371 456 q 390 449 388 449 q 393 451 393 449 q 394 453 394 450 q 391 460 393 456 q 383 472 389 464 q 376 486 376 482 q 379 490 376 490 q 383 489 382 490 l 394 483 q 460 432 444 438 l 457 494 l 457 497 q 551 415 463 493 q 563 428 558 415 z "},"d":{"ha":786,"x_min":29,"x_max":758,"o":"m 608 -56 q 624 -60 614 -56 q 642 -65 635 -65 q 758 -42 676 -65 l 758 22 q 729 15 743 15 q 721 28 714 15 q 724 42 725 40 q 713 130 717 83 q 711 228 708 176 l 717 583 q 733 707 728 675 q 743 778 738 744 q 756 840 749 811 l 711 856 q 464 751 635 811 l 469 697 q 513 706 496 704 q 542 708 531 708 q 565 706 557 708 q 576 665 572 683 q 582 628 581 646 l 582 532 q 579 547 579 538 q 428 567 478 567 q 397 563 417 567 q 344 551 376 558 q 86 403 176 514 q 29 233 29 336 q 117 50 29 117 q 315 -15 199 -15 q 564 136 522 -15 q 608 -56 572 -56 m 549 442 q 569 428 569 433 l 565 319 q 563 257 564 285 q 564 208 563 229 q 406 81 515 81 q 231 143 297 81 q 163 314 163 207 q 228 433 163 386 q 290 467 256 457 q 361 478 324 478 q 408 474 367 478 q 492 460 457 467 q 549 442 526 453 z "},"e":{"ha":643,"x_min":29,"x_max":624,"o":"m 178 278 l 236 269 q 289 265 258 267 q 358 264 319 264 q 480 268 415 264 q 619 283 544 272 l 615 365 q 321 564 563 564 q 108 467 193 564 q 29 247 29 375 q 108 49 29 124 q 311 -25 189 -25 q 479 17 385 -25 q 624 111 567 54 l 569 122 q 382 61 463 61 q 211 126 265 61 q 182 193 183 156 l 178 278 m 492 349 q 382 343 468 340 q 313 356 354 346 q 281 365 285 361 l 181 343 q 328 468 201 468 q 353 469 339 468 q 383 474 367 471 q 419 475 410 478 q 492 349 474 447 m 288 367 l 281 365 q 288 367 281 367 z "},"f":{"ha":556,"x_min":7,"x_max":717,"o":"m 557 850 q 674 931 583 926 q 717 935 713 933 q 649 989 717 969 q 550 1001 596 1001 q 450 985 504 1001 q 333 936 396 969 q 172 782 218 874 q 142 684 151 740 q 131 557 132 628 l 14 556 l 14 476 l 126 481 q 151 481 140 481 q 169 482 161 482 q 163 478 167 481 q 156 474 158 476 q 132 435 133 456 l 125 114 q 64 49 114 54 q 44 47 58 47 q 7 44 31 47 l 7 -14 q 260 -15 157 -14 q 424 -17 363 -15 l 424 47 q 344 49 375 49 q 300 50 314 50 q 289 51 293 51 q 283 53 286 51 q 275 240 275 63 q 275 344 275 286 q 276 474 275 403 q 401 447 369 447 q 464 456 431 447 l 514 557 q 449 549 481 551 q 390 547 418 547 q 333 549 360 547 q 278 557 306 551 q 301 767 282 686 q 458 901 336 901 q 469 885 468 901 q 544 817 478 833 l 557 850 z "},"g":{"ha":781,"x_min":40,"x_max":764,"o":"m 717 40 l 718 49 l 718 114 q 675 199 718 119 l 640 261 l 739 186 q 742 189 742 183 q 728 279 733 243 q 725 332 724 315 q 751 515 729 469 q 764 544 764 538 q 733 569 764 569 q 689 547 722 569 q 658 493 675 538 q 648 464 651 474 q 643 451 644 454 q 619 533 632 529 l 608 539 q 476 560 550 560 q 272 520 369 560 q 111 411 174 481 q 40 235 40 333 q 143 39 40 117 q 360 -35 238 -35 q 431 -25 379 -35 q 567 6 483 -15 q 558 -91 563 -47 q 543 -168 553 -135 q 386 -303 513 -303 q 324 -293 369 -303 q 203 -261 278 -283 q 177 -268 190 -261 q 153 -285 164 -275 q 135 -310 142 -296 q 128 -336 128 -324 q 199 -392 128 -375 q 246 -401 222 -399 q 294 -403 269 -403 q 511 -339 392 -403 q 674 -183 628 -279 q 717 40 715 -101 m 578 424 q 583 267 586 415 q 581 167 582 213 q 576 83 579 122 q 432 47 504 47 q 265 106 332 47 q 193 264 193 164 q 249 424 193 364 q 406 483 306 483 q 499 467 440 483 q 578 424 565 446 z "},"h":{"ha":839,"x_min":-7,"x_max":847,"o":"m 844 -15 q 819 11 819 -7 q 847 42 819 26 q 736 50 771 42 l 726 75 q 726 110 726 90 q 728 157 726 131 l 728 240 q 694 457 728 383 q 522 557 646 560 q 364 526 433 557 q 253 415 274 490 q 254 499 254 465 q 254 551 254 532 q 263 711 256 640 q 281 835 269 782 q 251 817 272 832 q 226 801 228 801 q 221 807 221 801 q 227 826 221 813 q 233 849 233 839 q 231 856 233 853 q -7 756 139 768 l 36 701 q 57 707 50 706 q 67 710 64 708 q 106 632 100 707 q 118 376 118 499 q 94 69 118 90 q 11 31 40 49 l 36 -22 q 204 0 111 0 q 376 -22 293 0 l 375 40 q 307 60 335 51 q 264 76 279 69 q 258 79 264 76 q 239 85 251 82 q 226 92 231 89 q 218 100 221 94 q 235 118 221 100 q 253 165 251 149 l 256 325 q 443 465 310 464 q 572 372 544 465 q 588 190 586 332 q 568 47 590 65 q 528 31 564 43 q 501 1 501 21 q 536 -3 519 -1 q 569 -6 553 -6 q 551 -18 572 -8 q 539 -24 544 -22 q 531 -26 533 -25 q 713 -21 635 -24 q 844 -15 792 -18 z "},"i":{"ha":365,"x_min":7,"x_max":358,"o":"m 7 -22 l 17 35 q 60 39 46 38 q 76 40 75 40 q 110 85 106 50 q 132 183 110 129 l 114 268 q 108 333 111 294 q 100 424 106 372 q 88 424 96 424 q 67 426 79 425 q 10 453 10 433 q 40 485 10 479 q 242 578 139 508 q 285 569 256 578 q 267 482 275 536 q 257 353 260 428 q 254 297 256 325 q 253 243 253 269 q 265 58 253 100 q 318 44 271 50 l 326 44 q 324 43 325 43 q 331 42 325 42 l 358 -14 l 7 -22 m 193 683 l 144 789 l 40 836 l 144 885 l 193 990 l 242 885 l 347 836 l 242 789 l 193 683 z "},"j":{"ha":335,"x_min":-129,"x_max":364,"o":"m 293 -182 q 267 142 267 -82 q 317 583 267 456 q 299 595 307 589 q 281 608 290 601 q 160 538 228 571 q 8 478 92 506 l 38 428 q 63 437 44 431 q 111 457 82 443 q 126 463 118 463 q 140 467 135 464 q 138 460 139 464 q 133 453 136 456 q 121 428 119 431 q 154 56 154 394 q 153 -47 154 -7 q 151 -106 153 -86 q 81 -164 149 -129 q -7 -215 3 -204 l -87 -286 q -129 -361 -129 -324 q -129 -367 -129 -364 q -128 -378 -129 -371 q -28 -414 -124 -414 q 79 -383 46 -414 q -7 -397 44 -397 q -78 -367 -78 -397 q 6 -275 -68 -314 q 133 -243 69 -243 q 231 -285 197 -243 q 267 -311 253 -311 q 294 -190 294 -311 q 293 -182 294 -185 m 211 683 l 260 789 l 364 836 l 260 885 l 211 990 l 161 885 l 58 836 l 161 789 l 211 683 z "},"k":{"ha":835,"x_min":7,"x_max":828,"o":"m 540 49 q 494 41 510 43 q 476 39 478 39 l 476 -19 q 649 -15 553 -15 l 717 -15 q 773 -17 746 -15 q 828 -22 800 -18 l 828 40 q 735 68 776 46 q 679 105 715 79 q 590 175 643 131 l 383 339 l 510 408 q 644 469 582 447 q 758 494 706 492 l 719 542 q 694 544 710 542 q 660 549 678 546 q 627 553 643 551 q 601 556 611 556 l 389 557 l 389 501 q 453 485 453 497 q 368 411 453 465 q 313 377 340 392 q 258 349 285 363 q 267 590 267 567 l 268 722 q 290 850 268 792 l 231 850 q 213 834 222 842 q 193 824 204 826 q 97 782 118 788 l 69 772 q 42 760 56 767 q 14 747 28 754 l 28 715 q 51 719 40 719 q 72 713 58 719 q 85 707 85 707 q 110 689 103 707 q 125 319 125 643 q 153 253 125 300 q 168 232 161 242 q 182 214 175 222 q 144 240 163 231 q 106 264 125 250 q 108 211 110 251 q 105 103 107 140 q 100 61 103 65 q 56 44 90 49 l 7 39 l 7 -19 q 128 -15 72 -17 q 233 -14 185 -14 q 360 -22 293 -14 l 364 40 q 301 47 324 43 q 268 56 278 51 q 258 193 258 57 l 258 269 q 256 278 258 275 q 294 250 264 278 l 353 207 q 459 122 413 163 q 540 49 506 82 z "},"l":{"ha":411,"x_min":7,"x_max":406,"o":"m 186 -14 q 7 -22 108 -14 l 7 35 q 90 56 67 43 q 133 125 125 74 q 138 168 136 142 q 143 233 140 194 l 157 486 q 139 690 164 660 q 92 701 128 701 q 76 700 78 701 l 81 724 l 81 778 l 178 808 q 214 819 201 815 q 231 824 226 824 q 247 810 247 824 q 232 768 247 796 l 339 851 q 314 725 324 806 q 297 526 304 644 q 294 493 294 513 q 294 467 294 482 q 293 435 294 453 q 289 244 289 347 q 301 68 289 101 q 406 36 310 44 l 406 -25 q 256 -16 310 -18 q 186 -14 201 -14 z "},"m":{"ha":1243,"x_min":7,"x_max":1240,"o":"m 340 1 q 276 67 285 35 q 272 201 272 88 l 272 275 q 273 334 272 301 q 275 407 274 367 q 458 458 396 458 q 565 376 543 458 q 569 280 568 325 q 568 193 569 235 l 583 211 q 607 228 596 228 q 610 224 610 228 q 597 176 613 210 q 587 151 590 161 q 583 133 583 140 q 560 57 583 69 q 557 50 557 54 q 575 56 568 54 q 585 60 582 58 q 614 76 615 69 l 632 31 q 586 31 629 26 q 522 31 531 33 l 535 -17 l 617 -17 q 672 -18 653 -18 q 700 -18 693 -18 l 764 -18 l 776 39 q 726 56 736 43 q 722 169 724 93 l 717 322 q 715 367 717 344 q 711 411 714 389 q 875 444 804 444 q 992 390 958 444 q 1015 257 1015 346 q 986 60 1015 81 q 915 33 967 44 l 931 -18 l 1240 -18 l 1215 33 q 1169 47 1174 43 q 1158 57 1164 53 l 1158 272 q 1133 464 1158 414 q 965 539 1093 539 q 694 474 853 539 q 536 558 653 558 q 314 493 468 558 l 275 478 q 233 568 275 568 q 208 561 222 568 q 178 547 192 553 q 151 536 164 540 q 97 525 119 529 q 58 518 75 521 l 8 439 q 64 434 42 436 q 94 428 86 432 q 132 257 132 413 q 94 60 132 85 q 11 35 76 47 l 7 -19 l 228 -17 q 263 -16 243 -15 q 311 -19 283 -17 q 351 -22 335 -22 q 382 -22 369 -22 q 364 -12 375 -18 q 340 1 353 -7 m 397 -22 l 382 -22 q 391 -24 388 -24 q 399 -25 394 -25 l 400 -25 l 397 -22 z "},"n":{"ha":836,"x_min":7,"x_max":832,"o":"m 661 -10 q 747 -12 704 -10 q 832 -19 789 -15 l 828 35 q 776 47 800 42 q 733 57 753 53 q 736 93 732 58 q 740 130 739 113 q 742 167 742 147 q 735 228 742 210 l 710 303 q 708 319 708 311 q 707 333 707 326 q 709 353 707 340 q 713 381 711 367 q 717 409 715 396 q 719 431 719 422 q 653 532 719 497 q 531 558 601 558 q 272 486 433 558 q 233 567 268 567 q 185 550 224 567 q 99 500 164 540 q 74 469 83 483 q 57 444 64 456 q 60 440 60 442 q 58 436 60 439 q 57 433 57 433 q 106 435 106 431 q 128 303 128 428 q 110 74 128 100 q 7 44 97 57 l 11 -8 l 218 -8 q 382 -17 269 -8 l 386 42 q 275 64 285 50 q 267 239 264 76 l 272 417 q 472 461 378 461 q 583 381 571 461 q 588 336 586 361 q 589 278 589 311 q 569 69 589 104 q 468 35 558 54 l 468 -19 q 577 -12 529 -15 q 661 -10 625 -10 z "},"o":{"ha":794,"x_min":28,"x_max":765,"o":"m 719 126 q 765 276 765 194 q 649 490 765 408 q 410 565 546 565 q 263 543 331 565 q 97 444 160 514 q 28 268 28 368 q 89 99 28 164 q 401 -25 201 -25 q 719 126 618 -25 m 460 422 q 507 351 486 378 q 547 315 528 325 q 578 298 567 304 q 593 289 589 292 q 608 269 603 279 q 613 244 613 260 q 558 98 613 153 q 410 43 504 43 q 239 125 307 43 q 178 307 178 199 q 229 444 178 394 q 365 493 281 493 q 415 476 393 493 q 460 422 438 458 z "},"p":{"ha":846,"x_min":7,"x_max":817,"o":"m 765 131 q 817 285 817 192 q 728 483 817 406 q 522 558 644 558 q 393 532 450 558 q 285 415 310 493 l 275 515 q 258 610 267 586 q 175 550 236 586 q 85 510 110 510 q 55 498 75 507 q 7 475 35 489 l 25 424 q 100 447 99 447 q 143 403 132 447 q 147 361 146 393 q 150 274 149 329 q 151 140 151 193 q 151 61 151 89 l 149 -149 q 146 -201 149 -182 q 140 -225 143 -219 l 128 -232 q 106 -243 122 -243 q 96 -243 101 -243 q 89 -242 92 -243 l 40 -226 q 46 -255 43 -240 q 50 -285 49 -269 q 238 -347 156 -319 q 378 -394 319 -374 q 414 -403 400 -403 q 433 -385 433 -403 q 375 -332 431 -354 q 317 -306 338 -315 q 294 -294 297 -297 q 282 -218 279 -283 l 285 -142 l 289 -6 q 400 -19 349 -19 q 444 -17 419 -19 q 501 -8 469 -15 q 765 131 679 25 m 558 433 q 683 224 683 350 q 649 128 683 164 q 572 74 614 92 q 475 57 529 57 q 410 68 457 57 q 285 100 364 79 l 286 349 q 378 453 319 421 q 443 472 413 472 q 501 463 472 472 q 558 433 529 453 z "},"q":{"ha":782,"x_min":35,"x_max":803,"o":"m 733 -322 q 794 -310 783 -310 q 803 -274 803 -287 q 792 -253 803 -257 q 749 -257 768 -256 q 718 -258 731 -258 q 715 -233 717 -243 q 711 -217 713 -224 q 711 -178 710 -190 q 713 -160 713 -171 q 713 -135 713 -149 l 713 107 q 722 378 713 276 q 746 515 731 479 q 758 544 758 538 q 728 569 758 569 q 713 564 724 569 q 683 547 703 558 l 646 524 q 606 450 608 450 q 603 453 606 450 q 553 528 569 511 q 461 558 526 550 q 434 560 446 560 q 411 561 422 561 q 352 551 388 561 q 264 519 317 542 q 176 472 215 499 q 106 411 136 446 q 35 235 35 333 q 138 39 35 117 q 354 -35 232 -35 q 433 -25 381 -35 q 567 7 486 -15 l 567 -133 q 544 -294 567 -242 q 492 -344 535 -324 q 456 -353 469 -351 q 449 -378 451 -368 q 446 -397 446 -387 q 456 -414 446 -414 q 461 -412 458 -414 q 467 -410 464 -411 q 534 -390 506 -399 q 585 -375 563 -382 q 671 -343 633 -356 q 733 -322 708 -331 m 572 339 q 578 224 581 331 q 575 142 576 176 q 571 83 574 107 q 426 47 499 47 q 260 106 326 47 q 188 264 188 164 q 244 424 188 364 q 400 483 300 483 q 508 461 476 483 q 572 339 568 422 z "},"r":{"ha":557,"x_min":7,"x_max":560,"o":"m 501 467 q 540 474 514 472 q 560 490 560 476 q 540 540 560 521 q 506 560 521 553 q 483 572 492 568 l 467 581 q 442 566 456 574 q 414 551 429 558 l 372 532 q 349 522 356 525 q 303 500 324 510 q 268 483 283 490 q 264 603 268 540 q 7 482 160 482 l 43 403 q 49 408 44 403 q 59 418 54 413 q 68 428 64 424 q 75 433 72 433 q 115 417 107 433 q 125 308 125 396 q 124 212 125 251 q 122 149 124 172 q 86 50 114 63 q 62 42 79 46 q 17 35 44 39 l 14 -19 l 314 -11 q 390 -10 368 -10 q 401 -10 413 -10 l 407 56 l 333 56 l 310 53 q 275 60 286 51 q 260 224 256 97 l 267 350 l 268 389 q 289 414 269 401 q 394 456 344 456 q 460 508 397 457 l 461 507 q 417 435 432 460 q 401 403 401 410 q 426 410 413 406 q 456 426 439 415 q 474 443 463 433 q 501 467 486 453 z "},"s":{"ha":601,"x_min":7,"x_max":551,"o":"m 486 40 q 551 157 551 71 q 486 285 551 233 q 351 356 444 321 q 260 392 294 376 q 215 418 226 408 q 200 453 200 431 q 292 524 200 524 q 324 513 296 524 q 407 481 353 501 q 422 476 413 476 q 435 492 435 476 q 433 507 435 501 l 526 415 q 486 558 486 504 q 486 571 486 565 q 489 582 486 576 q 324 594 368 594 q 183 568 244 594 q 53 414 53 511 q 115 310 53 353 q 226 257 150 285 q 296 228 268 240 q 340 207 324 215 q 407 117 407 167 q 375 68 407 81 q 293 56 333 56 q 190 78 242 56 q 117 118 126 111 q 94 160 94 132 q 69 150 83 150 q 7 190 43 150 q 19 166 10 179 q 42 133 28 153 q 60 90 60 104 l 69 72 q 82 47 82 53 q 31 10 82 24 q 166 -18 113 -10 q 249 -26 219 -26 q 363 -10 304 -26 q 486 40 422 6 z "},"t":{"ha":438,"x_min":22,"x_max":467,"o":"m 22 503 l 150 503 l 150 450 l 158 233 q 150 125 161 192 q 107 56 142 74 q 24 35 83 43 l 24 -22 q 201 -14 124 -14 l 407 -25 l 407 36 q 303 68 311 44 q 290 244 290 101 q 291 347 290 299 q 293 435 292 394 q 276 492 286 483 l 278 503 l 417 503 q 414 518 414 514 q 433 567 414 542 q 457 600 449 588 q 467 617 465 613 l 283 617 q 318 817 296 749 l 211 732 q 223 758 219 747 q 226 775 226 768 q 210 786 226 786 q 206 783 208 786 q 203 781 203 781 q 172 774 185 771 l 136 775 l 136 719 l 133 697 l 147 697 q 156 693 156 697 q 142 674 156 692 q 132 653 131 657 q 144 617 140 644 l 72 617 q 76 597 76 606 q 53 547 76 578 q 22 503 24 510 z "},"u":{"ha":765,"x_min":7,"x_max":764,"o":"m 536 -43 q 594 -56 565 -56 q 764 18 667 -56 l 726 50 q 722 44 724 46 q 718 42 719 43 l 717 50 q 708 58 717 58 l 668 32 q 622 7 626 4 q 619 10 619 8 q 626 20 622 13 q 642 42 631 28 l 661 65 q 652 117 654 86 q 650 193 650 149 q 651 232 650 208 q 653 290 651 256 l 674 589 l 547 528 q 460 508 503 507 l 464 450 q 492 442 496 446 q 510 418 506 438 q 510 183 518 393 q 508 161 508 176 q 507 125 507 146 q 318 69 371 69 q 214 115 232 69 q 189 240 189 163 q 193 347 189 272 q 208 542 197 422 q 176 574 210 574 l 7 489 l 7 424 q 33 433 28 428 l 35 433 q 50 425 47 433 q 54 399 53 414 q 56 365 56 385 l 47 203 q 85 44 43 107 q 226 -26 132 -26 q 508 56 311 -26 q 536 -43 517 10 z "},"v":{"ha":711,"x_min":7,"x_max":708,"o":"m 565 332 q 622 431 613 421 q 708 499 654 479 l 708 553 q 647 544 676 546 q 590 542 617 542 q 553 542 574 542 q 508 544 532 543 l 432 543 l 424 486 q 503 488 468 486 q 564 490 539 489 l 564 489 q 533 462 544 472 q 518 449 522 451 q 465 300 518 406 q 381 160 422 218 q 349 228 365 189 q 310 319 332 268 q 260 474 260 444 q 265 475 261 475 q 314 483 292 481 q 353 486 336 485 l 361 547 q 226 542 288 543 q 117 540 165 540 q 57 540 85 540 q 7 542 31 540 l 7 494 q 86 451 71 467 q 133 364 90 449 q 308 -51 260 118 l 358 -51 l 408 49 l 565 332 z "},"w":{"ha":1096,"x_min":7,"x_max":1093,"o":"m 643 468 q 640 463 642 467 q 633 453 638 460 q 601 436 618 436 q 567 456 601 436 q 531 472 535 474 q 526 469 528 469 q 525 468 526 469 q 464 347 506 419 q 357 178 422 275 q 331 238 346 201 q 299 319 317 274 q 267 413 276 376 q 257 468 257 449 q 332 486 257 479 l 303 560 q 231 549 263 553 q 178 542 200 546 q 65 540 107 540 q 7 536 22 539 l 7 490 q 72 464 54 476 q 150 325 101 444 q 230 106 200 199 q 268 -47 260 13 l 318 -44 q 330 -32 324 -42 q 343 -8 336 -22 q 453 179 404 96 q 540 325 501 263 l 553 289 q 572 244 565 257 q 638 69 613 142 q 669 -44 663 -3 l 736 -42 q 773 57 756 17 q 808 118 790 97 l 922 301 q 983 398 956 358 q 1031 461 1010 438 q 1089 494 1050 488 q 1093 547 1093 513 q 957 543 1006 543 q 832 547 899 543 l 826 492 q 865 504 850 499 q 889 517 879 510 q 900 460 900 515 q 750 168 900 407 q 669 381 696 307 q 643 468 643 456 z "},"x":{"ha":724,"x_min":7,"x_max":708,"o":"m 440 289 q 522 372 492 342 q 561 410 553 401 q 708 490 650 489 l 708 550 q 586 542 631 542 q 533 543 571 542 q 433 549 494 544 l 408 493 l 482 485 q 501 474 501 482 q 399 353 501 444 q 318 482 318 464 q 319 483 318 483 q 340 487 326 485 q 378 490 354 489 l 360 553 q 276 547 328 550 q 151 544 225 544 q 94 544 125 544 q 32 547 65 544 l 24 489 q 143 467 128 476 q 299 261 199 432 q 129 108 186 160 q 67 53 72 56 q 47 48 60 50 q 11 42 33 46 l 7 -19 q 78 -15 44 -17 q 144 -14 113 -14 q 222 -15 185 -14 q 294 -19 258 -17 l 286 43 q 249 49 275 43 q 208 56 224 56 q 267 131 208 69 q 304 167 286 150 q 339 199 322 183 q 390 116 367 154 q 432 44 413 78 q 408 44 425 44 q 364 42 390 43 l 378 -24 q 440 -18 401 -19 q 532 -17 478 -17 q 634 -18 590 -17 q 708 -24 678 -19 l 708 40 q 590 75 629 44 q 556 111 576 86 q 511 175 536 136 l 440 289 z "},"y":{"ha":765,"x_min":7,"x_max":731,"o":"m 703 44 l 731 560 l 482 508 l 485 450 q 520 446 508 447 q 532 444 532 444 q 567 418 563 438 q 567 183 575 393 q 565 161 565 176 q 564 125 564 146 q 375 69 425 69 q 268 115 290 69 q 244 240 244 165 q 265 542 244 304 q 233 574 267 574 l 7 474 l 15 428 q 57 439 44 439 q 81 435 72 436 q 90 433 90 433 q 107 425 104 433 q 110 365 111 400 l 103 203 q 142 44 100 106 q 283 -26 189 -26 q 557 51 361 -26 q 548 -61 554 -11 q 533 -150 542 -111 q 376 -285 499 -285 q 313 -275 357 -285 q 193 -243 268 -265 q 142 -267 167 -243 q 118 -318 118 -292 q 186 -374 118 -353 q 235 -383 210 -381 q 285 -385 260 -385 q 501 -319 381 -385 q 660 -169 611 -265 q 703 44 696 -96 z "},"z":{"ha":747,"x_min":7,"x_max":747,"o":"m 669 -28 q 668 -15 668 -21 q 668 -3 668 -10 q 732 178 668 85 l 672 178 q 615 92 651 115 q 390 50 554 50 q 322 51 354 50 q 260 53 289 51 l 507 294 q 747 543 654 438 l 333 543 q 224 544 267 543 q 161 549 182 546 q 114 558 129 551 l 65 578 q 50 482 68 525 q 18 393 42 435 l 78 393 q 182 467 101 450 q 315 475 221 475 l 482 475 q 232 213 350 328 q 7 15 114 99 l 33 -28 q 119 -22 76 -25 q 203 -19 161 -19 l 522 -18 q 573 -19 544 -18 q 636 -25 601 -21 q 651 -27 643 -26 q 669 -28 658 -28 z "},"{":{"ha":528,"x_min":7,"x_max":478,"o":"m 100 258 q 315 14 315 181 q 299 -106 315 -12 q 278 -217 278 -201 q 374 -311 278 -311 q 478 -283 415 -311 l 478 -425 q 167 -268 258 -401 q 133 -201 143 -236 q 122 -131 122 -167 l 139 -111 q 165 39 176 -72 q 157 99 157 103 q 78 183 156 143 q 7 197 63 193 l 11 325 l 92 332 q 139 367 117 336 q 157 422 157 394 q 140 528 157 438 q 126 605 131 575 q 122 647 122 635 q 289 890 122 804 q 478 942 363 929 l 474 801 q 375 849 422 849 q 306 811 332 849 q 278 743 282 781 q 276 744 278 744 l 276 746 q 272 720 275 739 q 264 669 268 701 q 253 583 257 617 q 250 535 250 549 q 274 476 250 476 q 301 493 285 476 q 310 501 307 499 q 315 506 314 503 q 100 258 315 342 z "},"|":{"ha":235,"x_min":57,"x_max":176,"o":"m 57 -228 l 176 -228 l 176 1103 l 57 1103 l 57 -228 z "},"}":{"ha":528,"x_min":7,"x_max":478,"o":"m 386 258 q 169 506 169 342 q 175 501 172 503 q 185 493 178 499 q 214 476 203 476 q 236 535 236 476 q 233 583 236 549 q 222 669 229 617 q 208 747 214 738 q 199 780 206 764 q 182 811 192 796 q 110 849 154 849 q 11 801 63 849 l 8 942 q 199 890 125 929 q 365 647 365 803 q 360 606 365 636 q 347 528 356 576 q 333 457 338 483 q 328 422 328 431 q 349 367 328 393 q 393 332 367 336 l 475 325 l 478 197 q 408 183 425 193 q 353 151 369 168 q 328 99 328 128 q 326 86 328 101 q 322 39 325 71 q 349 -111 310 -72 l 365 -131 q 319 -268 365 -204 q 8 -425 228 -401 l 7 -283 q 114 -311 71 -311 q 208 -217 208 -311 q 203 -182 208 -210 q 189 -106 199 -154 q 174 -27 179 -57 q 169 14 169 3 q 386 258 169 181 z "},"~":{"ha":683,"x_min":7,"x_max":633,"o":"m 611 685 q 633 856 633 747 l 600 835 q 589 785 599 808 q 567 742 578 757 q 489 678 538 678 q 481 672 489 678 q 457 651 472 665 q 419 625 426 626 l 433 649 q 449 672 449 668 q 364 740 407 672 q 139 860 285 860 q 28 767 74 860 q 10 651 17 740 q 8 588 8 618 q 7 531 8 557 l 36 556 q 136 728 60 728 q 261 668 224 728 q 422 544 335 544 q 467 581 426 544 q 499 608 488 600 q 515 618 511 617 q 517 617 517 618 q 512 604 517 613 q 499 581 507 596 q 482 551 483 557 q 611 685 569 551 z "},"‚":{"ha":311,"x_min":7,"x_max":264,"o":"m 50 -199 l 7 -151 q 57 -126 38 -136 q 85 -108 76 -115 q 133 -42 133 -75 q 107 1 133 -11 l 92 7 l 85 8 l 83 11 q 31 99 31 43 q 64 172 31 143 q 142 200 97 200 q 233 156 204 200 q 256 90 249 121 q 261 26 264 58 q 50 -199 236 -129 z "},"ƒ":{"ha":633,"x_min":-337,"x_max":828,"o":"m -165 -185 l -150 -151 q -82 -219 -83 -169 q -72 -236 -82 -236 q 99 -101 51 -236 q 144 108 128 -25 q 156 153 151 139 q 161 172 160 167 q 162 177 163 176 q 158 185 161 178 l 161 224 q 165 253 163 238 q 169 292 167 268 q 177 349 172 315 q 189 436 182 383 q 217 475 193 460 q 232 483 225 482 q 213 483 222 483 q 189 482 203 482 l 75 478 l 83 557 l 200 558 q 265 783 217 696 q 443 939 325 879 q 667 1003 571 1003 q 764 990 714 1003 q 826 936 828 971 q 783 932 822 933 q 658 851 694 931 l 642 818 q 575 886 578 836 q 565 903 575 903 q 393 768 443 903 q 368 677 379 729 q 349 558 357 625 q 400 551 372 553 q 458 549 428 549 q 519 551 488 549 q 583 558 551 553 l 524 457 q 460 449 488 449 q 339 475 426 449 q 337 464 338 468 q 336 460 336 460 q 335 464 336 460 q 331 452 335 468 q 322 387 328 436 q 303 231 315 338 q 294 216 303 226 q 276 194 286 206 q 256 172 265 182 q 243 158 246 161 q 255 160 246 156 q 274 172 264 165 q 294 183 285 178 q 306 185 303 188 l 293 108 q 228 -117 276 -29 q 50 -272 172 -208 q -174 -336 -76 -336 q -272 -324 -218 -336 q -333 -269 -337 -304 q -290 -265 -329 -267 q -165 -185 -201 -264 m 156 192 q 157 201 157 199 q 157 207 157 206 l 157 208 l 157 200 l 157 189 q 156 192 156 190 m 158 185 q 156 178 157 178 q 157 185 156 179 l 158 185 z "},"„":{"ha":611,"x_min":7,"x_max":564,"o":"m 350 -199 l 307 -151 q 358 -125 339 -136 q 383 -108 376 -114 q 433 -42 433 -75 q 407 1 433 -11 l 392 7 l 385 8 l 383 11 q 331 99 331 43 q 364 172 331 143 q 442 200 397 200 q 533 156 504 200 q 556 90 549 121 q 561 26 564 58 q 350 -199 536 -129 m 50 -199 l 7 -151 q 57 -126 38 -136 q 85 -108 76 -115 q 133 -42 133 -75 q 107 1 133 -11 l 92 7 l 85 8 l 83 11 q 31 99 31 43 q 64 172 31 143 q 142 200 97 200 q 233 156 204 200 q 256 90 249 121 q 261 26 264 58 q 50 -199 236 -129 z "},"…":{"ha":1483,"x_min":7,"x_max":1433,"o":"m 726 -101 l 676 3 l 572 51 l 676 100 l 726 206 l 775 100 l 881 51 l 775 3 l 726 -101 m 160 -110 l 111 -6 l 7 43 l 111 92 l 160 197 l 208 92 l 314 43 l 208 -6 l 160 -110 m 1281 -101 l 1232 3 l 1126 51 l 1232 100 l 1281 206 l 1328 100 l 1433 51 l 1328 3 l 1281 -101 z "},"†":{"ha":576,"x_min":7,"x_max":526,"o":"m 349 -133 l 350 82 q 349 203 346 88 q 351 376 350 299 q 351 515 351 453 l 351 565 q 319 547 342 547 q 317 549 318 547 q 308 583 308 565 q 310 599 308 590 q 315 617 311 608 q 333 608 325 611 q 343 603 340 606 l 343 636 q 351 651 349 646 q 356 660 353 657 l 375 758 q 408 817 385 808 q 526 839 458 839 l 526 908 q 481 898 503 901 q 436 894 458 894 q 344 919 375 894 l 343 1058 q 333 1056 338 1057 q 324 1056 329 1056 q 258 1075 293 1056 q 239 1081 244 1081 q 211 1067 232 1081 q 192 1057 200 1057 l 186 1057 l 183 908 q 108 893 149 893 q 7 908 65 893 l 7 840 q 97 828 43 840 q 175 790 165 813 q 197 458 190 758 l 197 415 q 199 379 199 393 q 199 358 199 365 q 199 342 199 350 q 197 325 199 333 l 194 325 l 194 268 q 196 240 194 257 q 199 199 197 222 q 203 131 203 153 q 189 89 203 94 l 194 -128 q 222 -124 207 -124 q 286 -144 249 -124 q 306 -151 294 -151 q 332 -142 314 -151 l 349 -133 z "},"‡":{"ha":586,"x_min":7,"x_max":536,"o":"m 360 -133 l 361 15 l 382 15 q 403 16 390 15 q 431 17 417 17 q 460 19 446 18 q 482 19 474 19 q 525 15 504 19 l 533 78 q 449 90 500 78 q 374 125 383 106 q 364 515 364 149 l 364 565 q 332 547 354 547 q 328 549 331 547 q 318 583 318 568 q 321 599 318 590 q 326 617 324 608 q 344 608 338 611 q 356 603 351 606 l 356 672 q 362 686 358 681 q 367 694 365 692 l 386 758 q 419 817 406 814 q 536 839 472 839 l 536 908 q 492 898 514 901 q 449 894 469 894 q 357 919 386 894 l 356 1058 q 345 1056 350 1057 q 333 1056 340 1056 q 305 1060 321 1056 q 269 1075 289 1064 q 250 1081 258 1081 q 224 1067 242 1081 q 203 1057 213 1057 l 199 1057 l 194 908 q 119 893 161 893 q 18 908 79 893 l 18 840 q 108 828 56 840 q 186 790 174 814 q 208 458 204 758 l 208 325 l 207 325 l 207 168 q 183 128 204 138 q 124 110 150 117 q 78 101 97 104 q 7 76 32 76 l 11 15 q 60 19 33 19 q 131 15 81 19 q 199 11 172 8 l 207 -128 q 233 -124 219 -124 q 299 -144 261 -124 q 317 -151 307 -151 q 343 -142 328 -151 l 360 -133 z "},"ˆ":{"ha":544,"x_min":7,"x_max":494,"o":"m 367 753 q 325 850 353 799 q 288 874 306 861 q 251 897 271 886 q 215 869 232 882 q 178 842 197 856 q 140 753 171 832 l 7 753 q 58 817 17 776 q 100 855 83 840 q 124 878 117 869 q 232 1008 140 908 l 275 1008 l 372 883 l 443 826 q 494 753 475 800 l 367 753 z "},"‰":{"ha":1939,"x_min":7,"x_max":1889,"o":"m 1869 144 q 1889 240 1889 194 q 1803 424 1889 353 q 1608 489 1722 489 q 1406 417 1486 489 q 1318 219 1318 342 q 1403 35 1318 107 q 1600 -28 1482 -28 q 1764 17 1693 -28 q 1869 144 1839 64 m 1267 128 q 1285 224 1285 179 q 1200 406 1285 335 q 1006 472 1121 472 q 801 399 886 472 q 715 203 715 325 q 800 18 715 86 q 997 -44 876 -44 q 1160 0 1089 -44 q 1267 128 1233 47 m 542 590 q 576 717 576 651 q 492 897 576 829 q 299 961 415 961 q 93 892 175 961 q 7 697 7 818 q 92 511 7 579 q 289 447 168 447 q 542 590 465 447 m 283 897 q 403 826 358 897 q 439 686 439 769 q 415 576 439 617 q 300 511 371 511 q 178 582 225 511 q 140 722 140 644 q 156 778 140 758 q 207 801 175 807 q 214 813 207 801 q 235 849 221 825 q 283 897 263 897 m 1711 325 l 1736 268 q 1748 239 1744 253 q 1751 214 1751 225 q 1611 39 1751 39 q 1492 108 1539 39 q 1483 135 1483 121 q 1490 167 1483 146 q 1497 199 1497 188 q 1496 211 1497 206 q 1492 224 1494 217 q 1472 315 1472 268 q 1485 368 1472 349 q 1594 422 1524 422 q 1672 397 1643 422 q 1689 372 1679 389 q 1711 325 1699 354 m 1100 231 q 1131 214 1107 214 q 1149 194 1149 210 q 1010 19 1149 19 q 889 90 935 19 q 847 231 847 150 q 882 351 847 304 q 992 406 921 406 q 1061 342 1033 406 q 1081 283 1072 308 q 1094 242 1090 258 l 1100 231 m 725 494 q 861 675 806 601 q 949 790 917 749 l 906 818 q 853 826 893 826 l 828 794 q 782 729 807 767 q 726 647 757 692 q 682 576 686 581 l 683 576 l 635 511 q 488 321 554 404 q 365 175 421 238 l 301 106 q 391 165 339 144 q 510 189 443 185 q 547 245 532 222 q 569 282 561 268 q 665 414 626 361 q 725 494 704 467 z "},"Š":{"ha":872,"x_min":7,"x_max":822,"o":"m 774 97 q 822 232 822 157 q 644 467 822 400 q 494 522 574 493 q 328 582 415 550 q 218 722 218 619 q 439 882 218 882 q 667 814 579 882 q 681 801 674 807 q 699 789 689 796 q 705 771 701 782 q 711 740 708 760 l 778 697 q 778 737 781 710 q 769 808 775 764 l 785 933 q 744 942 757 942 l 733 936 q 689 925 713 925 q 674 926 685 925 q 647 931 663 928 q 556 941 601 938 q 464 944 510 944 q 206 889 311 944 q 74 676 74 817 q 303 433 74 510 l 439 390 q 490 373 471 379 q 519 364 510 367 q 668 190 668 314 q 606 75 668 100 q 464 44 532 44 q 308 65 381 44 q 135 135 168 101 q 97 194 110 158 l 69 261 q 7 150 19 154 q 21 116 10 139 q 49 56 32 93 q 60 -18 61 22 l 136 -22 q 132 6 132 0 q 147 2 140 3 q 157 0 153 1 q 293 -23 228 -15 q 417 -31 358 -31 q 774 97 675 -31 m 531 1275 q 513 1230 522 1254 q 489 1178 503 1206 q 453 1155 471 1167 q 415 1132 435 1143 q 378 1159 396 1146 q 342 1186 361 1172 q 303 1275 335 1193 l 169 1275 q 189 1245 176 1261 q 222 1211 201 1229 q 262 1174 246 1190 q 286 1150 278 1158 q 322 1104 296 1136 q 394 1019 349 1072 l 439 1019 l 535 1144 q 583 1183 565 1168 q 606 1201 600 1199 q 658 1275 646 1239 l 531 1275 z "},"‹":{"ha":439,"x_min":7,"x_max":389,"o":"m 7 397 l 7 472 l 389 782 l 389 632 q 247 557 301 599 q 119 435 206 525 q 182 377 154 403 q 232 332 210 351 q 310 273 271 297 q 389 235 349 249 l 389 85 l 7 397 z "},"Œ":{"ha":1483,"x_min":7,"x_max":1433,"o":"m 1433 226 l 1374 226 q 1357 161 1363 203 q 1339 118 1350 129 q 1015 53 1263 53 l 961 53 q 1128 197 1063 113 q 1189 300 1167 249 l 1199 319 q 1199 333 1199 329 q 1201 339 1200 336 q 1219 464 1219 394 q 1216 528 1219 497 q 1203 592 1213 560 l 1206 599 l 1200 599 q 1031 826 1160 728 q 999 848 1014 838 q 967 867 983 858 q 1013 869 990 868 q 1058 869 1035 869 q 1154 866 1110 869 q 1239 856 1199 863 q 1299 807 1299 843 q 1296 779 1299 796 q 1293 753 1293 763 q 1332 725 1293 725 q 1394 944 1379 725 q 1215 940 1290 942 q 1093 939 1140 939 l 789 939 q 709 952 749 947 q 628 957 669 957 q 339 897 479 957 q 107 726 194 835 q 7 460 7 607 q 161 128 7 278 q 597 -35 332 -35 q 681 -33 646 -35 q 739 -28 715 -32 q 778 -19 758 -25 l 1040 -19 q 1093 -6 1057 -19 q 1128 6 1113 3 q 1151 10 1143 10 q 1157 8 1157 10 q 1118 -33 1154 3 q 1119 -35 1118 -35 q 1185 -33 1143 -35 q 1289 -28 1226 -32 q 1366 -24 1336 -25 q 1410 -25 1396 -24 q 1413 38 1411 14 q 1415 68 1414 61 l 1415 150 q 1433 226 1413 203 m 606 56 q 325 182 447 75 q 174 515 174 319 q 292 782 174 683 q 574 869 401 869 q 585 869 581 869 q 597 868 590 869 q 603 865 603 865 q 628 781 621 853 q 631 747 631 769 q 632 689 631 725 q 637 474 635 558 q 636 351 639 390 l 635 317 q 618 97 629 147 q 606 56 614 67 m 1051 424 l 1051 407 q 943 144 1051 242 q 811 69 888 93 l 806 72 q 795 158 799 106 q 792 282 792 210 q 792 351 792 315 q 794 428 793 388 q 844 432 822 431 q 885 433 865 433 q 1051 424 994 433 m 797 753 q 813 747 806 750 q 828 743 821 744 q 1015 586 957 718 q 1040 508 1032 547 q 963 506 1008 507 q 856 506 917 506 q 832 533 851 506 q 810 564 813 564 q 774 473 800 524 q 706 358 747 422 l 703 357 l 749 501 q 793 674 793 651 q 797 753 793 711 z "},"‘":{"ha":311,"x_min":6,"x_max":261,"o":"m 218 1026 l 261 978 q 135 869 135 914 q 161 826 135 839 q 178 822 171 824 l 183 818 l 186 817 q 239 731 239 789 q 206 656 239 685 q 126 628 174 628 q 35 674 65 628 q 7 801 6 744 q 218 1026 32 960 z "},"’":{"ha":311,"x_min":7,"x_max":264,"o":"m 50 628 l 7 676 q 85 718 71 710 q 133 785 133 751 q 107 828 133 815 q 92 835 100 832 l 85 835 l 83 839 q 31 925 31 868 q 64 998 31 969 q 142 1026 97 1026 q 233 982 204 1026 q 256 916 249 947 q 261 856 264 885 q 50 628 236 697 z "},"“":{"ha":618,"x_min":6,"x_max":568,"o":"m 525 1026 l 568 978 q 442 869 442 914 q 468 826 442 839 q 485 822 478 824 l 490 818 l 493 817 q 547 731 547 785 q 513 656 547 685 q 433 628 479 628 q 342 674 371 628 q 319 738 326 706 q 314 801 311 769 q 525 1026 339 960 m 218 1026 l 261 978 q 135 869 135 914 q 161 826 135 839 q 178 822 171 824 l 183 818 l 186 817 q 239 731 239 789 q 206 656 239 685 q 126 628 174 628 q 35 674 65 628 q 7 801 6 739 q 218 1026 32 960 z "},"”":{"ha":618,"x_min":7,"x_max":571,"o":"m 358 628 l 314 676 q 442 785 442 742 q 415 828 442 815 q 399 835 404 833 l 393 835 l 390 839 q 336 925 336 869 q 372 1000 336 971 q 449 1026 403 1026 q 542 982 513 1026 q 568 856 571 917 q 358 628 543 696 m 50 628 l 7 676 q 135 785 135 742 q 108 828 135 815 q 99 832 103 831 q 92 835 94 833 l 85 835 l 83 839 q 31 925 31 868 q 65 1000 31 971 q 142 1026 96 1026 q 233 982 204 1026 q 256 916 249 947 q 261 856 264 885 q 50 628 236 697 z "},"•":{"ha":560,"x_min":7,"x_max":510,"o":"m 414 303 q 258 399 344 368 q 181 366 219 389 q 103 303 143 343 q 144 481 136 393 q 83 547 113 528 q 7 599 72 551 q 47 596 28 597 q 82 594 65 594 q 189 614 153 594 q 258 782 219 649 q 272 722 267 743 q 278 699 276 701 q 328 614 299 639 q 436 593 371 593 q 472 594 453 593 q 510 599 490 596 q 411 535 446 564 q 372 481 376 507 q 414 303 365 390 z "},"–":{"ha":881,"x_min":7,"x_max":831,"o":"m 7 442 l 781 442 q 776 458 776 450 q 797 506 776 476 q 831 556 826 547 l 57 556 q 61 535 61 544 q 40 486 61 513 q 18 458 26 469 q 7 442 10 447 z "},"—":{"ha":1181,"x_min":7,"x_max":1131,"o":"m 7 442 l 1081 442 q 1076 458 1076 450 q 1097 506 1076 476 q 1131 556 1126 547 l 57 556 q 61 535 61 544 q 40 486 61 513 q 18 458 26 469 q 7 442 10 447 z "},"˜":{"ha":483,"x_min":7,"x_max":433,"o":"m 418 681 q 433 806 433 729 l 400 806 q 394 754 397 775 q 386 722 390 733 q 336 678 369 678 q 328 676 332 678 l 322 676 q 303 675 308 674 q 256 722 283 676 q 106 807 200 807 q 31 740 60 807 q 14 678 19 717 q 7 586 8 640 l 40 586 q 106 710 56 710 l 119 710 q 185 668 165 708 q 294 582 239 574 l 297 582 q 258 628 297 582 q 222 682 222 674 q 225 686 222 683 l 332 585 q 418 681 390 585 z "},"™":{"ha":1331,"x_min":7,"x_max":1281,"o":"m 732 506 q 711 524 718 507 q 710 589 710 528 l 710 624 q 710 651 710 636 q 711 686 710 667 q 817 711 782 711 q 876 672 864 711 q 879 626 878 649 q 881 585 881 604 l 889 592 q 900 601 894 601 q 903 599 903 601 q 897 576 906 592 q 889 556 889 560 q 875 518 889 528 l 874 517 q 889 519 888 519 q 906 528 906 525 l 915 506 q 890 506 913 501 q 864 507 874 507 q 853 507 856 507 l 860 483 l 990 483 l 999 510 q 969 517 976 511 q 968 539 968 525 q 967 574 968 554 l 965 644 q 964 672 964 661 q 961 689 964 683 q 1056 706 1015 706 q 1135 615 1135 706 q 1118 519 1135 529 q 1069 507 1113 514 l 1078 483 l 1281 483 l 1265 507 q 1239 510 1249 508 q 1224 514 1229 511 q 1220 516 1222 515 q 1217 518 1218 517 l 1217 622 q 1201 714 1217 690 q 1106 750 1179 750 q 1034 742 1072 750 q 951 718 996 735 q 860 760 929 760 q 809 752 840 760 q 733 728 778 744 l 711 719 q 689 765 711 765 q 674 760 683 765 q 635 748 657 753 q 586 740 614 743 l 558 701 q 608 697 596 701 q 631 615 631 689 q 608 519 631 532 q 590 515 601 517 q 561 508 579 513 l 558 483 l 732 483 q 763 482 750 482 q 782 482 775 482 l 733 503 l 732 506 m 194 900 q 242 899 218 900 q 289 897 265 899 q 294 843 292 886 q 297 725 297 800 l 297 625 q 286 526 297 567 q 252 516 269 519 q 218 510 235 513 q 211 493 211 503 q 233 478 211 478 q 289 480 253 478 q 344 482 325 482 q 371 481 354 482 q 404 477 388 479 q 437 474 421 475 q 464 472 453 472 q 483 475 478 472 l 489 500 q 456 517 476 517 q 425 499 426 500 l 424 499 q 429 513 426 507 q 432 519 432 518 q 431 522 432 522 q 393 549 401 522 q 391 569 392 556 q 390 601 390 582 q 390 632 390 614 q 389 676 390 651 q 386 721 386 703 q 386 753 386 740 q 399 899 386 840 l 469 900 q 552 898 518 901 q 603 885 586 894 q 601 869 601 878 q 597 850 600 861 l 640 853 q 654 895 647 875 q 672 935 661 915 q 658 942 664 939 q 647 953 651 946 q 399 933 617 932 l 164 936 q 119 939 140 939 q 82 939 100 939 l 75 939 q 32 951 49 939 q 20 942 26 946 q 7 935 14 939 q 26 895 18 915 q 40 853 33 875 l 82 849 q 78 869 79 860 q 75 885 76 878 q 194 900 110 900 m 732 506 q 772 510 747 499 q 761 508 767 510 l 728 507 l 732 506 z "},"š":{"ha":601,"x_min":7,"x_max":551,"o":"m 486 40 q 551 157 551 71 q 486 285 551 233 q 351 356 444 321 q 260 392 294 376 q 215 418 226 408 q 200 453 200 431 q 292 524 200 524 q 324 513 296 524 q 407 481 353 501 q 422 476 413 476 q 435 492 435 476 q 433 507 435 501 l 526 415 q 486 558 486 504 q 486 571 486 565 q 489 582 486 576 q 324 594 368 594 q 183 568 244 594 q 53 414 53 511 q 115 310 53 353 q 226 257 150 285 q 296 228 268 240 q 340 207 324 215 q 407 117 407 167 q 375 68 407 81 q 293 56 333 56 q 190 78 242 56 q 117 118 126 111 q 94 160 94 132 q 69 150 83 150 q 7 190 43 150 q 19 166 10 179 q 42 133 28 153 q 60 90 60 104 l 69 72 q 82 47 82 53 q 31 10 82 24 q 166 -18 113 -10 q 249 -26 219 -26 q 363 -10 304 -26 q 486 40 422 6 m 393 953 q 377 908 386 932 q 353 857 368 883 q 317 834 333 846 q 281 811 300 822 q 244 839 261 826 q 207 865 226 851 q 193 890 203 868 q 167 953 183 913 l 35 953 q 86 890 47 925 q 126 852 110 867 q 150 831 143 838 q 258 700 165 803 l 303 700 l 399 824 l 469 881 q 501 914 489 896 q 524 953 514 932 l 393 953 z "},"›":{"ha":439,"x_min":7,"x_max":389,"o":"m 389 397 l 7 85 l 7 235 q 164 332 88 261 q 214 378 186 353 q 274 435 242 403 q 201 510 232 479 q 150 557 169 540 q 7 632 100 596 l 7 782 l 389 472 l 389 397 z "},"œ":{"ha":1253,"x_min":7,"x_max":1203,"o":"m 757 276 l 817 268 q 868 263 838 265 q 939 261 899 261 q 1199 282 1050 261 l 1194 364 q 900 560 1142 560 q 681 444 771 560 q 656 467 669 456 q 628 490 643 479 q 389 565 524 565 q 242 543 310 565 q 76 444 139 514 q 7 268 7 368 q 68 99 7 164 q 381 -25 181 -25 q 660 81 560 -25 q 674 62 667 69 q 689 47 682 54 q 890 -28 768 -28 q 971 -18 929 -28 q 1058 14 1013 -8 q 1203 110 1147 54 l 1149 119 q 961 58 1044 58 q 790 124 844 58 q 761 190 765 150 l 757 276 m 439 422 q 486 351 465 378 q 526 315 507 325 q 557 298 546 304 q 572 289 568 292 q 587 269 582 279 q 592 244 592 260 q 538 98 592 153 q 389 43 483 43 q 218 125 286 43 q 157 307 157 199 q 208 444 157 394 q 344 493 260 493 q 394 476 372 493 q 439 422 417 458 m 1072 344 q 961 340 1047 338 q 930 344 947 342 q 892 353 913 346 q 860 364 861 361 l 760 340 q 907 465 781 465 q 932 467 918 465 q 964 472 946 468 q 999 472 990 476 q 1072 344 1051 443 z "},"Ÿ":{"ha":1225,"x_min":7,"x_max":1175,"o":"m 1172 865 l 1175 931 q 1135 931 1158 931 q 1081 928 1113 931 q 1025 926 1049 926 q 985 926 1001 926 q 915 928 965 926 q 783 933 865 929 l 775 868 q 894 840 894 874 q 865 775 894 821 q 776 658 836 729 q 692 555 724 594 q 647 500 660 515 q 564 604 600 558 q 500 685 528 650 q 456 740 482 708 q 397 810 431 771 q 358 860 358 856 l 365 860 q 460 869 385 865 l 469 932 l 408 935 q 376 935 397 935 q 325 933 357 935 q 299 836 315 836 l 244 885 q 181 932 193 932 q 144 934 160 933 q 115 935 128 935 l 7 935 l 19 875 q 79 870 56 874 q 115 861 103 867 q 217 785 151 850 l 311 689 q 381 611 349 649 q 442 535 414 574 l 526 414 q 528 383 528 403 q 528 332 528 364 q 528 218 528 265 q 526 143 528 172 q 507 53 524 65 q 462 35 493 42 q 378 26 431 28 l 378 -31 q 427 -28 399 -31 q 494 -24 456 -26 q 563 -19 535 -21 q 610 -18 590 -18 l 647 -18 l 819 -26 q 826 -14 826 -21 q 824 -10 826 -10 l 840 7 l 824 7 q 832 8 825 8 q 843 10 833 10 l 843 24 q 692 69 703 49 l 653 64 q 633 81 633 64 q 660 145 647 117 q 686 194 672 174 l 683 422 l 772 532 q 906 697 851 632 q 992 794 960 763 q 1074 851 1039 840 q 1172 865 1103 863 m 603 1140 q 577 1201 603 1176 q 515 1225 551 1225 q 453 1201 479 1225 q 426 1140 426 1176 q 453 1080 426 1104 q 515 1056 479 1056 q 577 1078 551 1056 q 603 1140 603 1101 m 860 1140 q 834 1201 860 1176 q 774 1225 808 1225 q 710 1201 738 1225 q 683 1140 683 1176 q 709 1078 683 1101 q 774 1056 735 1056 q 834 1080 808 1056 q 860 1140 860 1104 m 840 1164 l 801 1133 l 814 1086 l 769 1111 l 726 1089 l 740 1133 l 701 1165 l 751 1168 l 772 1211 l 790 1167 l 840 1164 m 583 1164 l 544 1133 l 556 1086 l 514 1111 l 469 1089 l 483 1133 l 444 1165 l 494 1168 l 515 1211 l 533 1167 l 583 1164 z "},"¡":{"ha":364,"x_min":7,"x_max":314,"o":"m 74 -278 q 72 -287 72 -285 q 72 -294 72 -292 q 106 -322 75 -324 q 213 -283 175 -297 q 261 -265 251 -268 q 292 -233 293 -257 q 282 -186 292 -219 q 258 -140 272 -147 q 232 -169 254 -139 q 207 -203 208 -203 q 203 -194 203 -203 q 217 -122 210 -154 q 233 -67 225 -90 q 222 148 226 56 q 218 307 218 240 l 117 311 q 117 285 118 286 q 108 183 113 253 q 97 6 104 114 q 88 -146 93 -75 q 74 -278 82 -217 m 160 642 l 111 539 l 7 489 l 111 440 l 160 335 l 208 440 l 314 489 l 208 539 l 160 642 z "},"¢":{"ha":658,"x_min":7,"x_max":610,"o":"m 168 -94 l 215 -10 q 282 -24 249 -19 q 347 -28 315 -28 q 608 64 478 -28 q 597 72 610 68 q 576 75 576 75 q 581 88 576 76 q 585 103 585 100 q 581 111 585 108 q 406 60 469 60 q 274 94 346 60 l 474 460 l 478 456 q 503 433 493 443 q 525 415 514 422 q 536 428 532 415 q 589 490 549 476 q 607 500 607 497 q 524 551 607 528 l 582 657 l 458 657 l 414 575 q 399 576 406 576 q 385 576 392 576 q 218 533 308 576 q 135 483 172 513 q 69 417 99 453 q 7 242 7 338 q 69 64 7 119 q 115 31 90 44 l 47 -94 l 168 -94 m 189 164 q 157 226 167 192 q 147 301 147 261 q 306 472 147 472 q 335 460 311 472 q 349 456 340 458 l 189 164 m 357 472 q 350 486 350 482 q 353 490 350 490 q 357 489 356 490 l 365 485 l 357 472 z "},"£":{"ha":818,"x_min":19,"x_max":806,"o":"m 203 864 q 204 861 203 861 q 206 861 206 861 l 206 586 l 69 586 q 75 567 75 579 q 53 518 75 544 q 31 490 39 500 q 19 475 22 479 l 206 475 l 206 361 l 69 361 q 75 342 75 354 q 53 293 75 319 q 31 265 39 275 q 19 249 22 254 l 201 249 l 201 215 q 199 154 200 175 q 199 131 199 133 q 169 68 190 81 q 128 67 140 68 q 113 65 117 67 q 111 63 110 64 q 110 61 113 63 q 76 53 99 58 q 22 42 54 49 l 26 -14 q 322 -14 206 -14 q 511 -15 439 -14 q 620 -16 583 -15 q 675 -17 657 -17 q 702 -19 693 -18 q 728 -22 711 -21 q 733 -6 733 -12 l 724 8 q 714 31 714 19 q 718 51 714 39 q 765 133 726 74 q 794 181 785 163 q 806 208 803 200 l 742 215 q 672 117 718 140 q 559 82 625 93 q 403 67 493 71 q 388 83 393 74 q 378 103 382 92 q 369 156 374 119 q 361 249 364 192 l 665 249 q 664 256 664 251 q 664 265 664 261 q 668 285 664 274 q 683 311 672 297 q 706 346 697 333 q 715 361 714 358 l 358 361 l 358 475 l 665 475 q 664 490 664 481 q 683 539 664 511 q 706 572 697 560 q 715 586 714 583 l 364 586 q 417 774 372 711 q 683 961 497 893 q 687 947 685 960 q 690 907 689 933 q 711 857 692 857 q 782 910 754 857 q 806 989 806 954 q 775 1024 806 1008 q 728 1036 751 1036 q 551 961 639 1036 q 440 883 481 910 q 389 850 399 856 q 283 803 307 803 q 206 861 243 803 q 204 865 206 864 q 203 864 203 865 z "},"¤":{"ha":832,"x_min":4,"x_max":783,"o":"m 782 244 q 706 344 783 297 q 679 361 693 353 q 651 378 665 369 l 635 390 q 694 549 694 463 q 635 707 694 643 l 701 750 q 760 799 740 774 q 778 849 781 824 q 751 910 776 885 q 689 936 725 936 q 622 906 650 933 q 601 882 613 896 q 575 847 590 868 q 533 776 567 835 q 468 798 501 790 q 399 806 435 806 q 322 797 358 806 q 251 772 286 788 q 197 856 219 824 q 158 906 174 889 q 97 932 132 932 q 35 906 61 932 q 7 844 8 881 q 82 744 4 790 q 111 728 97 736 q 136 711 125 719 l 157 699 q 103 549 103 633 q 157 394 103 460 l 140 383 q 106 363 121 371 q 85 350 92 354 q 10 250 7 301 q 38 188 11 214 q 100 161 64 161 q 211 251 158 161 l 253 319 q 399 289 318 289 q 539 315 481 289 q 590 235 567 267 q 631 183 613 203 q 692 158 657 158 q 754 184 728 158 q 782 244 781 210 m 589 549 q 581 505 589 528 q 558 463 572 482 q 524 428 543 443 q 485 408 506 414 q 440 393 461 397 q 399 389 418 389 q 247 453 278 389 q 208 549 208 496 q 233 622 208 581 q 399 710 283 710 q 474 697 429 710 q 549 649 528 679 q 589 549 589 604 z "},"¥":{"ha":1225,"x_min":7,"x_max":1175,"o":"m 215 168 q 359 179 282 175 q 526 183 436 183 l 526 143 q 507 53 524 65 q 462 35 493 42 q 378 26 431 28 l 378 -31 q 427 -28 399 -31 q 494 -24 456 -26 q 563 -19 535 -21 q 610 -18 590 -18 l 647 -18 l 819 -26 q 826 -14 826 -21 q 824 -10 826 -10 l 840 7 l 824 7 q 832 8 825 8 q 843 10 833 10 l 843 24 q 692 69 703 49 l 653 64 q 633 81 633 64 q 656 138 644 113 q 678 182 667 163 q 792 177 738 181 q 894 168 846 174 q 892 185 892 179 q 911 233 892 203 q 944 282 943 275 q 686 290 842 288 l 685 381 q 808 381 753 381 q 908 383 864 382 q 906 391 907 388 q 906 399 906 394 q 925 447 906 419 q 949 480 940 468 q 958 494 957 492 q 854 492 910 493 q 736 490 799 492 l 772 532 q 910 703 856 639 q 992 794 965 768 q 1074 851 1039 840 q 1172 865 1103 863 l 1175 931 q 1135 931 1158 931 q 1081 928 1113 931 q 1025 926 1049 926 q 985 926 1001 926 q 915 928 965 926 q 783 933 865 929 l 775 868 q 894 840 894 874 q 865 775 894 821 q 776 658 836 729 q 692 555 724 594 q 647 500 660 515 q 564 604 600 558 q 500 685 528 650 q 456 740 482 708 q 397 810 431 771 q 358 860 358 856 l 365 860 q 460 869 385 865 l 469 932 l 408 935 q 376 935 397 935 q 325 933 357 935 q 299 836 315 836 l 244 885 q 181 932 193 932 q 144 934 160 933 q 115 935 128 935 l 7 935 l 19 875 q 79 870 56 874 q 115 861 103 867 q 217 785 151 850 l 311 689 q 468 490 376 622 q 365 492 411 492 q 278 494 318 493 q 283 475 283 488 q 260 426 283 454 q 238 398 246 408 q 228 383 231 388 q 388 381 314 382 q 528 381 463 381 l 528 292 q 384 288 450 290 q 265 282 318 285 q 269 261 269 271 q 247 214 269 243 q 215 168 217 178 z "},"¦":{"ha":235,"x_min":57,"x_max":176,"o":"m 57 -228 l 176 -228 l 176 285 l 57 285 l 57 -228 m 176 1103 l 57 1103 l 57 618 l 176 618 l 176 1103 z "},"§":{"ha":932,"x_min":-39,"x_max":889,"o":"m 840 156 q 889 290 889 215 q 711 525 889 458 q 561 580 640 551 q 394 640 482 608 q 285 781 285 678 q 340 869 285 844 l 506 940 q 564 956 533 956 q 733 872 629 956 q 748 860 740 865 q 765 847 756 854 q 772 829 768 840 q 778 799 775 818 l 844 756 q 844 795 847 768 q 836 867 842 822 l 851 992 q 811 1000 824 1000 l 800 994 q 756 983 779 983 q 740 985 751 983 q 714 989 729 986 q 685 995 707 990 q 626 1010 663 1000 q 540 1025 568 1025 q 524 1024 531 1025 q 511 1022 518 1024 q 460 1005 492 1014 q 383 985 428 996 q 272 947 310 968 q 140 735 140 875 q 183 608 140 664 q 171 603 176 606 q 160 597 165 600 q 28 385 28 524 q 258 142 28 219 q 394 98 340 115 q 475 72 447 81 q 624 -101 624 22 q 560 -217 624 -192 q 418 -247 488 -247 q 264 -226 335 -247 q 90 -157 124 -190 q 51 -97 63 -132 l 25 -31 l 0 -83 q -39 -142 -26 -137 q -24 -176 -35 -153 q 3 -236 -12 -199 q 13 -270 10 -251 q 15 -310 17 -289 l 81 -325 q 81 -283 76 -317 q 83 -251 83 -251 q 99 -272 92 -262 q 111 -292 107 -281 q 248 -315 183 -307 q 372 -322 313 -322 q 728 -194 629 -322 q 776 -60 776 -135 q 747 60 776 7 q 795 99 775 75 q 840 156 815 122 m 600 175 q 450 230 529 201 q 283 290 371 258 q 174 431 174 328 q 228 519 174 494 l 268 536 q 315 513 290 524 q 369 492 340 503 q 505 448 451 465 q 586 422 558 431 q 735 249 735 372 q 676 135 735 161 q 641 156 661 146 q 600 175 621 167 z "},"¨":{"ha":490,"x_min":7,"x_max":440,"o":"m 440 740 q 415 801 440 776 q 353 825 389 825 q 290 801 317 825 q 264 740 264 776 q 289 678 264 701 q 353 656 314 656 q 415 680 389 656 q 440 740 440 704 m 183 740 q 157 801 183 776 q 94 825 131 825 q 33 801 58 825 q 7 740 7 776 q 33 680 7 704 q 94 656 60 656 q 157 678 131 656 q 183 740 183 701 m 419 764 l 382 733 l 393 686 l 350 711 l 307 689 l 319 733 l 282 765 l 332 768 l 351 811 l 369 767 l 419 764 m 164 764 l 125 733 l 135 686 l 93 711 l 50 689 l 64 733 l 25 765 l 75 768 l 94 811 l 114 767 l 164 764 z "},"©":{"ha":1139,"x_min":7,"x_max":1089,"o":"m 547 69 q 801 122 688 69 q 1007 276 932 178 q 1089 517 1089 386 q 1015 743 1089 640 q 808 908 940 849 q 682 950 746 936 q 547 964 618 964 q 278 903 404 964 q 7 517 7 775 q 81 292 7 394 q 286 125 158 183 q 412 83 347 97 q 547 69 476 69 m 774 850 q 869 792 826 825 q 944 718 913 760 q 1015 517 1015 628 q 953 326 1015 414 q 547 136 815 136 q 311 189 417 136 q 81 517 81 297 q 143 707 81 619 q 322 850 208 799 q 547 897 425 897 q 608 896 582 897 q 650 892 633 894 q 774 850 699 883 m 799 294 q 825 347 813 325 q 822 351 825 349 q 810 347 819 351 q 797 343 801 343 q 790 345 794 343 q 785 347 786 347 q 768 333 778 347 q 740 299 754 314 q 710 275 725 283 q 582 243 661 243 q 399 303 490 243 q 286 517 286 375 q 364 711 286 674 l 457 757 q 560 783 510 783 q 660 767 597 783 q 747 725 728 750 q 751 713 750 721 q 756 692 753 704 q 765 667 756 675 q 774 663 768 665 q 792 660 781 661 q 793 668 793 661 q 792 693 793 678 q 790 717 790 708 q 825 790 790 764 q 806 801 814 801 q 796 801 801 801 q 783 799 790 800 q 742 807 767 799 q 585 831 656 831 q 393 799 482 831 q 168 517 168 717 q 294 281 168 368 q 561 200 406 200 q 665 211 601 200 q 818 243 729 222 q 821 253 819 249 q 822 264 822 258 q 799 294 822 288 z "},"ª":{"ha":607,"x_min":7,"x_max":557,"o":"m 368 907 q 274 944 328 944 q 90 875 165 944 q 7 697 7 801 q 22 623 7 657 q 62 564 36 589 q 123 525 88 539 q 199 511 158 511 q 364 615 331 511 q 394 503 368 503 q 436 499 428 499 q 557 551 500 499 l 547 578 q 506 556 522 556 q 468 592 481 556 q 466 628 467 603 q 465 693 465 653 l 465 819 q 472 889 467 854 q 489 961 478 924 l 457 974 q 412 947 433 958 q 368 928 390 936 l 368 907 m 368 811 q 385 753 368 796 q 398 717 394 732 q 401 693 401 703 q 353 756 364 756 q 336 717 336 756 q 338 684 336 706 q 339 651 339 663 q 333 622 339 631 q 260 586 300 586 q 142 635 183 586 q 100 757 100 682 q 140 843 100 811 q 231 876 178 876 q 368 811 350 876 z "},"«":{"ha":744,"x_min":7,"x_max":694,"o":"m 314 397 l 314 472 l 694 782 l 694 632 q 615 597 650 615 q 553 557 581 578 q 499 508 529 538 q 428 435 468 478 q 490 377 463 403 q 539 332 517 351 q 616 273 578 297 q 694 235 654 249 l 694 85 l 314 397 m 7 397 l 7 472 l 389 782 l 389 632 q 247 557 301 599 q 119 435 206 525 q 182 377 154 403 q 232 332 210 351 q 310 273 271 297 q 389 235 349 249 l 389 85 l 7 397 z "},"¬":{"ha":881,"x_min":7,"x_max":831,"o":"m 786 258 l 790 428 l 790 464 q 765 469 789 465 q 742 481 742 478 q 767 490 742 482 q 797 506 793 496 q 831 556 826 544 l 57 556 q 61 535 61 544 q 40 486 61 513 q 18 458 26 469 q 7 442 10 447 l 660 442 l 674 308 q 683 313 679 311 q 693 314 688 314 q 742 292 715 314 q 771 269 760 278 q 786 258 782 261 z "},"®":{"ha":1139,"x_min":7,"x_max":1089,"o":"m 547 69 q 801 122 688 69 q 1007 276 932 178 q 1089 517 1089 386 q 1015 743 1089 640 q 808 908 940 849 q 682 950 746 936 q 547 964 618 964 q 278 903 404 964 q 7 517 7 775 q 81 292 7 394 q 286 125 158 183 q 412 83 347 97 q 547 69 476 69 m 774 850 q 869 792 826 825 q 944 718 913 760 q 1015 517 1015 628 q 953 326 1015 414 q 916 281 936 301 q 875 242 896 260 q 860 249 869 246 q 822 260 828 251 q 769 335 804 296 q 705 431 733 386 q 656 511 676 475 q 801 668 801 561 q 798 701 801 685 q 785 732 794 717 q 543 836 724 836 q 499 835 525 836 q 440 831 474 833 q 381 826 406 828 q 340 825 356 825 l 274 825 q 297 838 285 832 q 322 850 310 843 q 547 897 425 897 q 608 896 582 897 q 650 892 633 894 q 774 850 699 883 m 81 517 q 143 707 81 619 q 196 766 167 739 q 260 817 225 793 l 276 794 q 307 781 304 788 q 322 765 317 776 q 328 716 325 754 q 331 610 331 678 l 331 408 q 314 267 331 283 q 293 258 303 261 q 275 251 283 254 q 250 231 250 244 q 251 219 250 224 q 81 517 81 326 m 547 136 q 311 189 417 136 q 269 210 290 197 l 274 210 l 311 203 l 328 203 q 342 205 333 203 q 360 210 350 207 q 378 215 369 213 q 393 217 388 217 q 499 208 428 217 q 518 231 518 208 q 490 250 518 242 q 465 246 485 250 q 408 235 444 242 q 403 241 407 236 q 397 256 400 246 q 435 258 433 257 q 440 272 440 268 q 430 344 433 288 q 428 501 426 401 q 533 497 475 497 q 649 367 604 425 q 714 264 694 310 q 782 206 756 206 l 824 206 q 547 136 711 136 m 676 717 q 694 657 694 689 q 511 544 694 544 q 469 546 488 544 q 433 550 450 547 q 435 710 433 653 q 443 778 438 767 q 482 772 450 788 q 493 767 486 767 q 511 781 497 767 l 525 793 q 676 717 633 793 z "},"¯":{"ha":583,"x_min":7,"x_max":533,"o":"m 7 694 l 533 694 l 533 783 l 7 783 l 7 694 z "},"°":{"ha":483,"x_min":7,"x_max":433,"o":"m 333 500 q 433 681 433 563 q 417 765 433 726 q 373 833 401 804 q 306 877 344 861 q 219 893 267 893 q 68 832 129 893 q 7 681 7 772 q 33 600 7 640 q 63 549 53 568 q 76 524 74 531 q 150 461 99 461 q 165 463 156 461 q 185 465 175 464 q 205 467 196 465 q 219 468 214 468 q 333 500 283 468 m 322 736 q 351 682 351 729 q 313 588 351 625 q 218 551 275 551 q 124 588 161 551 q 86 682 86 625 q 97 733 86 710 q 125 774 107 757 q 167 800 143 790 q 218 810 192 810 q 258 782 243 810 q 322 736 279 749 z "},"±":{"ha":742,"x_min":32,"x_max":700,"o":"m 560 692 q 480 672 521 681 q 394 651 439 663 q 443 886 443 838 q 424 935 443 915 q 375 956 404 956 q 324 937 343 956 q 306 889 306 918 q 309 861 306 886 q 322 790 313 836 q 351 651 339 706 q 288 669 317 663 q 235 682 258 676 q 171 695 200 690 q 118 700 142 700 q 69 680 90 700 q 49 632 49 660 q 67 581 49 603 q 117 560 86 560 l 214 578 q 292 594 258 588 q 353 608 326 601 q 333 519 340 554 q 322 468 325 485 q 318 449 319 461 q 311 419 317 438 q 307 396 308 407 q 306 372 306 385 q 324 324 306 342 q 375 306 343 306 q 424 325 404 306 q 443 374 443 344 q 435 443 443 419 q 413 535 422 494 q 394 608 403 576 q 480 589 444 596 q 535 578 515 582 q 583 567 543 578 q 608 562 596 564 q 632 560 621 560 q 681 580 663 560 q 700 632 700 600 q 680 680 700 660 q 631 700 660 700 q 560 692 586 700 m 32 115 l 644 115 q 642 132 642 124 q 661 178 642 150 q 694 228 692 221 l 82 228 q 86 208 86 219 q 65 160 86 185 q 43 131 51 142 q 32 115 35 121 z "},"²":{"ha":526,"x_min":7,"x_max":476,"o":"m 456 414 l 476 475 l 432 492 l 422 458 q 417 455 419 457 q 408 450 415 453 q 292 440 381 438 l 156 442 q 186 468 182 464 l 274 543 q 337 600 311 578 q 376 636 363 622 q 458 794 458 718 q 401 901 458 865 q 281 936 353 936 q 193 922 231 936 q 68 840 135 900 l 106 815 q 240 865 161 865 q 361 772 361 865 q 222 564 361 701 q 15 382 175 517 q 17 378 17 381 q 12 365 17 375 q 7 350 7 354 q 8 347 7 349 q 75 385 54 385 q 88 380 79 385 q 102 371 96 375 q 110 365 108 367 l 372 364 q 424 343 404 364 l 453 343 q 456 386 458 358 q 456 414 451 408 z "},"³":{"ha":499,"x_min":7,"x_max":449,"o":"m 240 408 q 326 436 290 408 q 367 515 367 468 q 324 597 367 558 q 243 649 301 615 l 225 668 l 178 658 q 230 693 210 678 q 261 717 250 708 q 310 800 310 758 q 276 860 310 836 q 207 881 247 881 q 86 836 156 881 l 57 865 q 249 940 161 940 q 349 915 308 940 q 399 831 399 883 q 325 706 399 768 q 449 551 449 636 q 322 389 449 440 q 203 364 265 364 q 7 449 83 364 l 100 519 l 110 460 q 165 414 118 422 q 240 408 178 408 z "},"´":{"ha":336,"x_min":7,"x_max":286,"o":"m 135 736 q 206 819 161 749 q 286 910 249 893 l 133 907 q 92 832 129 904 q 7 736 54 758 l 135 736 z "},"µ":{"ha":786,"x_min":-32,"x_max":786,"o":"m -32 -208 l 319 -200 l 292 -144 q 285 -143 286 -144 q 289 -142 286 -143 l 281 -142 q 226 -128 233 -137 q 219 -87 221 -112 q 215 -24 217 -61 q 233 -26 224 -25 q 250 -26 242 -26 q 532 56 335 -26 q 542 7 535 32 q 560 -43 550 -18 q 618 -56 586 -56 q 786 18 692 -56 l 750 50 q 745 44 747 46 q 742 42 743 43 l 740 50 q 732 58 740 58 l 692 32 q 644 7 650 6 q 643 10 643 8 q 665 42 644 15 l 685 65 q 676 117 678 86 q 674 193 674 149 q 674 232 674 208 q 676 290 675 256 l 697 589 l 569 528 q 483 508 526 507 l 486 450 q 515 442 519 446 q 533 418 529 438 q 533 183 542 393 q 531 161 532 176 q 531 125 531 146 q 342 69 394 69 q 236 115 257 69 q 222 147 229 129 q 215 183 215 165 q 212 210 213 196 q 211 240 211 225 q 232 542 211 304 q 200 574 233 574 l 31 489 l 31 424 q 48 428 42 426 q 57 433 54 431 l 58 433 q 74 425 71 433 q 78 365 78 401 l 69 183 l 68 183 q 73 126 71 151 q 75 82 75 101 l 93 -3 q 77 -56 82 -32 q 72 -101 72 -81 q 39 -147 65 -137 q -22 -151 36 -147 l -32 -208 z "},"¶":{"ha":972,"x_min":7,"x_max":922,"o":"m 922 -215 l 922 -153 q 848 -142 874 -150 q 817 -122 822 -133 q 803 -5 806 -94 q 806 240 801 85 l 808 367 q 813 556 811 481 q 814 672 814 632 q 853 997 814 876 l 747 914 q 764 956 764 940 q 747 968 764 968 q 693 953 728 968 l 690 951 q 615 949 654 950 q 536 949 576 949 q 461 932 511 949 q 417 919 436 922 q 383 915 397 915 q 372 919 372 917 q 414 956 375 926 q 410 957 414 957 q 249 931 301 957 q 212 907 239 926 q 136 851 185 888 q 7 636 7 753 q 69 481 7 551 q 189 360 154 381 q 394 322 253 322 l 425 326 l 424 31 l 424 -43 q 411 -114 421 -96 q 257 -142 400 -133 l 315 -222 q 458 -199 413 -199 q 519 -203 482 -199 q 557 -207 542 -206 q 582 -210 572 -208 l 578 399 q 581 590 578 499 q 592 768 585 681 l 594 817 q 596 830 594 824 q 599 844 597 836 l 607 844 q 653 835 644 844 q 672 632 678 807 l 658 228 q 658 85 657 196 q 661 -219 658 -26 q 694 -219 678 -219 q 732 -218 713 -219 q 803 -214 783 -214 q 869 -212 839 -211 q 922 -215 899 -214 m 478 632 l 374 582 l 325 478 l 276 582 l 172 632 l 276 681 l 325 785 l 374 681 l 478 632 z "},"·":{"ha":314,"x_min":7,"x_max":264,"o":"m 239 406 q 264 439 264 414 q 244 469 264 461 q 213 490 229 479 q 183 515 197 501 q 136 551 174 551 q 100 532 115 551 q 82 516 96 528 q 44 485 68 504 q 7 442 7 456 q 44 399 7 425 q 97 353 90 364 q 136 332 115 332 q 176 356 160 332 q 239 406 203 389 z "},"¸":{"ha":403,"x_min":7,"x_max":353,"o":"m 307 -261 q 128 -349 208 -349 q 96 -346 113 -349 q 64 -339 79 -343 q 7 -333 51 -333 l 7 -268 q 107 -264 74 -268 q 232 -190 232 -246 q 35 -133 232 -142 q 78 -74 60 -101 q 108 -19 97 -47 q 115 -4 110 -17 q 128 32 119 8 l 217 32 l 203 -44 q 353 -167 353 -94 q 307 -261 353 -222 z "},"¹":{"ha":367,"x_min":7,"x_max":317,"o":"m 315 368 l 317 408 q 268 413 288 410 q 239 419 249 417 q 216 438 224 428 q 206 465 208 449 l 206 468 q 231 857 206 808 q 274 893 236 869 q 276 894 275 893 q 276 894 276 894 q 272 897 274 894 q 265 906 267 903 l 303 950 l 224 901 q 131 851 185 879 q 7 792 78 824 l 8 753 q 58 776 38 768 q 93 789 79 785 q 115 783 114 793 q 115 669 117 775 l 111 500 q 85 417 110 429 q 31 408 72 408 l 32 368 q 119 372 76 371 q 207 374 163 374 l 214 374 q 248 372 222 374 q 315 368 274 371 m 206 406 l 206 403 l 206 406 z "},"º":{"ha":542,"x_min":4,"x_max":493,"o":"m 249 589 q 410 640 339 590 q 469 703 449 668 q 492 783 490 739 q 418 917 493 868 q 264 957 350 958 q 94 908 165 954 q 7 761 8 853 q 85 625 4 674 q 249 589 154 585 m 233 893 q 336 858 296 894 q 375 761 376 822 q 340 681 374 711 q 253 649 306 650 q 199 659 224 649 q 158 689 175 669 q 133 735 142 708 q 124 792 124 761 q 157 864 125 836 q 233 893 189 892 z "},"»":{"ha":744,"x_min":7,"x_max":694,"o":"m 389 397 l 7 85 l 7 235 q 164 332 88 261 q 214 378 186 353 q 274 435 242 403 q 201 510 232 479 q 150 557 169 540 q 7 632 100 596 l 7 782 l 389 472 l 389 397 m 694 397 l 314 85 l 314 235 q 469 332 394 263 q 522 378 493 353 q 582 435 550 403 q 508 510 539 479 q 457 557 476 540 q 314 632 407 597 l 314 782 l 694 472 l 694 397 z "},"¼":{"ha":1249,"x_min":7,"x_max":1199,"o":"m 389 0 l 960 968 l 836 968 l 267 0 l 389 0 m 1199 165 l 1178 233 q 1135 229 1154 231 q 1101 228 1115 228 l 1101 353 q 1104 501 1103 443 q 1107 589 1106 560 q 1083 581 1093 583 q 1065 576 1072 578 q 989 481 1031 531 q 894 374 947 431 q 711 182 849 321 q 726 164 721 172 l 782 165 q 903 169 894 169 l 1010 169 q 1008 128 1008 149 q 1008 86 1008 108 q 972 43 1004 54 q 940 39 956 39 l 940 -6 q 964 -1 949 -3 q 999 8 979 1 q 1058 18 1033 18 q 1083 15 1068 18 q 1113 9 1097 13 q 1142 3 1128 6 q 1164 0 1156 0 l 1164 35 q 1101 81 1113 43 q 1100 168 1100 85 q 1155 167 1131 168 q 1199 165 1179 167 m 315 368 l 317 408 q 268 413 288 410 q 239 419 249 417 q 216 438 224 428 q 206 465 208 449 l 206 483 q 231 857 206 808 q 274 893 236 869 q 276 894 275 893 q 276 894 276 894 q 272 897 274 894 q 265 906 267 903 l 303 950 l 224 901 q 131 851 185 879 q 7 792 78 824 l 8 753 q 58 776 38 768 q 93 789 79 785 q 115 783 114 793 q 115 669 117 775 l 111 500 q 85 417 110 429 q 31 408 72 408 l 32 368 q 119 372 76 371 q 207 374 163 374 l 214 374 q 248 372 222 374 q 315 368 274 371 m 1014 435 l 1014 358 q 1014 292 1014 325 q 1011 228 1014 260 l 822 228 l 893 276 q 918 332 914 310 q 978 395 954 369 q 1014 435 1001 421 m 207 403 q 206 406 206 403 q 206 403 206 404 q 207 403 207 403 z "},"½":{"ha":1303,"x_min":7,"x_max":1253,"o":"m 389 0 l 960 968 l 836 968 l 267 0 l 389 0 m 1232 65 l 1253 125 l 1208 142 q 1203 125 1206 133 q 1199 108 1201 117 q 1194 105 1197 107 q 1183 100 1190 103 q 1069 90 1160 90 l 932 92 l 1050 194 q 1153 289 1126 263 q 1235 444 1235 367 q 1178 551 1235 515 q 1057 586 1129 586 q 969 574 1011 586 q 844 492 911 551 l 883 467 q 1018 517 942 517 q 1139 424 1139 517 q 999 215 1139 353 q 792 33 950 167 q 793 31 793 32 q 789 15 793 25 q 785 0 785 6 l 785 -3 q 851 35 831 35 q 872 25 858 35 q 885 15 885 15 l 1150 15 q 1178 11 1171 15 q 1188 6 1183 10 q 1200 -6 1193 1 l 1228 -7 q 1232 36 1235 8 q 1232 65 1229 58 m 315 368 l 317 408 q 268 413 288 410 q 239 419 249 417 q 206 467 210 436 l 206 483 q 231 857 206 808 q 274 893 236 869 q 276 894 275 893 q 276 894 276 894 q 272 897 274 894 q 265 906 267 903 l 303 950 l 224 901 q 131 851 185 879 q 7 792 78 824 l 8 753 q 58 776 38 768 q 93 789 79 785 q 115 783 114 793 q 115 669 117 775 l 111 500 q 85 417 110 429 q 31 408 72 408 l 32 368 q 119 372 76 371 q 207 374 163 374 l 214 374 q 248 372 222 374 q 315 368 274 371 m 207 403 q 206 406 206 403 q 206 403 206 404 q 207 403 207 403 z "},"¾":{"ha":1351,"x_min":7,"x_max":1301,"o":"m 492 0 l 1061 968 l 940 968 l 369 0 l 492 0 m 1301 165 l 1281 233 q 1238 229 1257 231 q 1203 228 1218 228 l 1206 353 q 1210 589 1206 531 q 1167 576 1183 579 q 1092 481 1135 531 q 999 374 1050 431 q 930 300 975 347 q 815 182 885 253 q 828 164 825 172 l 885 165 q 1006 169 994 169 l 1114 169 q 1111 128 1111 149 q 1110 86 1111 108 q 1075 43 1107 53 q 1043 39 1060 39 l 1043 -6 q 1067 -1 1053 -3 q 1101 8 1081 1 q 1135 16 1121 14 q 1160 18 1150 18 q 1183 15 1169 18 q 1213 9 1197 13 q 1243 3 1229 6 q 1267 0 1257 0 l 1267 35 q 1206 81 1211 43 q 1203 168 1203 85 q 1258 167 1233 168 q 1301 165 1282 167 m 240 411 q 195 413 214 411 q 165 417 176 414 q 110 461 118 426 l 100 522 l 7 450 q 203 367 83 367 q 322 390 264 367 q 449 553 449 442 q 325 707 449 638 q 399 832 399 769 q 349 917 399 889 q 249 942 308 942 q 57 868 163 942 l 86 839 q 207 882 157 882 q 276 861 247 882 q 310 801 310 840 q 261 719 310 764 q 230 695 250 710 q 178 661 210 681 l 225 669 l 243 651 q 293 622 274 636 q 324 600 313 608 q 367 517 367 561 q 326 439 367 468 q 240 411 293 411 m 1115 435 l 1115 228 l 925 228 l 994 276 q 1022 332 1015 307 q 1079 395 1056 369 q 1115 435 1103 421 z "},"¿":{"ha":564,"x_min":7,"x_max":514,"o":"m 124 315 q 236 249 236 313 q 176 150 236 210 q 101 70 128 99 q 67 35 74 42 q 7 -117 7 -39 q 81 -275 7 -217 q 251 -326 146 -326 q 410 -289 322 -326 q 514 -183 514 -242 q 510 -160 514 -172 q 500 -132 507 -147 l 436 -194 q 315 -236 399 -236 q 208 -194 249 -236 q 168 -85 168 -151 q 268 124 168 -51 q 369 326 369 297 q 351 383 369 347 q 300 368 324 372 q 258 364 276 364 q 172 383 219 364 q 141 343 153 360 q 124 315 129 326 m 274 726 l 225 624 l 119 574 l 225 525 l 274 419 l 324 525 l 428 574 l 324 624 l 274 726 z "},"À":{"ha":1168,"x_min":7,"x_max":1118,"o":"m 964 -11 q 1035 -14 996 -11 q 1118 -19 1074 -17 l 1118 42 q 1019 68 1038 50 q 981 129 1003 90 q 931 226 958 168 l 853 389 q 773 563 804 493 q 725 668 742 633 q 659 819 689 749 q 608 956 629 890 l 576 911 q 574 910 576 910 q 567 913 571 910 q 557 918 564 915 l 544 926 q 543 925 543 926 q 506 835 528 882 q 458 733 485 788 l 265 357 q 233 293 246 318 q 214 253 221 268 q 184 199 201 229 q 144 133 167 169 q 90 65 114 81 q 7 33 65 46 l 7 -19 q 103 -15 60 -17 q 183 -14 147 -14 q 266 -16 219 -14 q 375 -25 313 -18 l 375 33 q 235 86 235 50 q 336 306 235 99 q 406 311 364 308 q 507 314 449 314 l 575 314 q 665 313 626 314 q 728 308 703 311 q 826 67 826 103 q 739 36 826 49 l 739 -22 q 883 -14 826 -17 q 964 -11 939 -11 m 382 392 l 533 708 q 608 558 572 631 q 676 418 644 486 l 718 410 q 768 383 763 403 l 586 389 l 547 389 l 524 386 l 511 386 q 437 388 469 386 q 382 392 404 389 m 572 1056 l 701 1056 q 617 1150 654 1076 q 575 1224 579 1224 l 422 1228 q 503 1139 460 1213 q 572 1056 546 1067 z "},"Á":{"ha":1168,"x_min":7,"x_max":1118,"o":"m 964 -11 q 1035 -14 996 -11 q 1118 -19 1074 -17 l 1118 42 q 1019 68 1038 50 q 981 129 1003 90 q 931 226 958 168 l 853 389 q 773 563 804 493 q 725 668 742 633 q 659 819 689 749 q 608 956 629 890 l 576 911 q 574 910 576 910 q 567 913 571 910 q 557 918 564 915 l 544 926 q 543 925 543 926 q 506 835 528 882 q 458 733 485 788 l 265 357 q 233 293 246 318 q 214 253 221 268 q 184 199 201 229 q 144 133 167 169 q 90 65 114 81 q 7 33 65 46 l 7 -19 q 103 -15 60 -17 q 183 -14 147 -14 q 266 -16 219 -14 q 375 -25 313 -18 l 375 33 q 235 86 235 50 q 336 306 235 99 q 406 311 364 308 q 507 314 449 314 l 575 314 q 665 313 626 314 q 728 308 703 311 q 826 67 826 103 q 739 36 826 49 l 739 -22 q 883 -14 826 -17 q 964 -11 939 -11 m 382 392 l 533 708 q 608 558 572 631 q 676 418 644 486 l 718 410 q 768 383 763 403 l 586 389 l 547 389 l 524 386 l 511 386 q 437 388 469 386 q 382 392 404 389 m 550 1056 q 618 1139 578 1068 q 701 1228 663 1211 l 547 1224 q 507 1150 544 1224 q 422 1056 469 1076 l 550 1056 z "},"Â":{"ha":1168,"x_min":7,"x_max":1118,"o":"m 964 -11 q 1035 -14 996 -11 q 1118 -19 1074 -17 l 1118 42 q 1019 68 1038 50 q 981 129 1003 90 q 931 226 958 168 l 853 389 q 773 563 804 493 q 725 668 742 633 q 659 819 689 749 q 608 956 629 890 l 576 911 q 574 910 576 910 q 567 913 571 910 q 557 918 564 915 l 544 926 q 543 925 543 926 q 506 835 528 882 q 458 733 485 788 l 265 357 q 233 293 246 318 q 214 253 221 268 q 184 199 201 229 q 144 133 167 169 q 90 65 114 81 q 7 33 65 46 l 7 -19 q 103 -15 60 -17 q 183 -14 147 -14 q 266 -16 219 -14 q 375 -25 313 -18 l 375 33 q 235 86 235 50 q 336 306 235 99 q 406 311 364 308 q 507 314 449 314 l 575 314 q 665 313 626 314 q 728 308 703 311 q 826 67 826 103 q 739 36 826 49 l 739 -22 q 883 -14 826 -17 q 964 -11 939 -11 m 382 392 l 533 708 q 608 558 572 631 q 676 418 644 486 l 718 410 q 768 383 763 403 l 586 389 l 547 389 l 524 386 l 511 386 q 437 388 469 386 q 382 392 404 389 m 692 1019 l 822 1019 q 768 1093 803 1068 l 697 1150 l 601 1275 l 557 1275 q 483 1192 510 1224 q 449 1144 457 1160 q 425 1122 442 1136 q 385 1085 408 1107 q 333 1019 346 1047 l 465 1019 q 506 1108 496 1099 q 542 1135 525 1122 q 578 1164 558 1149 q 615 1141 597 1153 q 651 1118 632 1129 q 692 1019 679 1064 z "},"Ã":{"ha":1168,"x_min":7,"x_max":1118,"o":"m 964 -11 q 1035 -14 996 -11 q 1118 -19 1074 -17 l 1118 42 q 1019 68 1038 50 q 981 129 1003 90 q 931 226 958 168 l 853 389 q 773 563 804 493 q 725 668 742 633 q 659 819 689 749 q 608 956 629 890 l 576 911 q 574 910 576 910 q 567 913 571 910 q 557 918 564 915 l 544 926 q 543 925 543 926 q 506 835 528 882 q 458 733 485 788 l 265 357 q 233 293 246 318 q 214 253 221 268 q 184 199 201 229 q 144 133 167 169 q 90 65 114 81 q 7 33 65 46 l 7 -19 q 103 -15 60 -17 q 183 -14 147 -14 q 266 -16 219 -14 q 375 -25 313 -18 l 375 33 q 235 86 235 50 q 336 306 235 99 q 406 311 364 308 q 507 314 449 314 l 575 314 q 665 313 626 314 q 728 308 703 311 q 826 67 826 103 q 739 36 826 49 l 739 -22 q 883 -14 826 -17 q 964 -11 939 -11 m 382 392 l 533 708 q 608 558 572 631 q 676 418 644 486 l 718 410 q 768 383 763 403 l 586 389 l 547 389 l 524 386 l 511 386 q 437 388 469 386 q 382 392 404 389 m 768 1107 q 783 1231 783 1157 l 750 1231 q 745 1181 749 1201 q 736 1149 742 1161 q 686 1106 719 1106 l 678 1106 l 672 1101 q 656 1101 664 1099 q 606 1149 633 1103 q 456 1233 551 1233 q 382 1165 411 1233 q 357 1014 358 1119 l 390 1014 q 456 1136 406 1136 q 469 1135 465 1136 q 535 1094 515 1132 q 625 1008 578 1021 q 672 1010 644 1006 q 682 1011 676 1011 q 768 1107 740 1011 z "},"Ä":{"ha":1168,"x_min":7,"x_max":1118,"o":"m 964 -11 q 1035 -14 996 -11 q 1118 -19 1074 -17 l 1118 42 q 1019 68 1038 50 q 981 129 1003 90 q 931 226 958 168 l 853 389 q 773 563 804 493 q 725 668 742 633 q 659 819 689 749 q 608 956 629 890 l 576 911 q 574 910 576 910 q 567 913 571 910 q 557 918 564 915 l 544 926 q 543 925 543 926 q 506 835 528 882 q 458 733 485 788 l 265 357 q 233 293 246 318 q 214 253 221 268 q 184 199 201 229 q 144 133 167 169 q 90 65 114 81 q 7 33 65 46 l 7 -19 q 103 -15 60 -17 q 183 -14 147 -14 q 266 -16 219 -14 q 375 -25 313 -18 l 375 33 q 235 86 235 50 q 336 306 235 99 q 406 311 364 308 q 507 314 449 314 l 575 314 q 665 313 626 314 q 728 308 703 311 q 826 67 826 103 q 739 36 826 49 l 739 -22 q 883 -14 826 -17 q 964 -11 939 -11 m 382 392 l 533 708 q 608 558 572 631 q 676 418 644 486 l 718 410 q 768 383 763 403 l 586 389 l 547 389 l 524 386 l 511 386 q 437 388 469 386 q 382 392 404 389 m 533 1117 q 508 1178 533 1153 q 447 1203 482 1203 q 385 1178 411 1203 q 358 1117 358 1153 q 407 1031 357 1031 q 427 1031 414 1031 q 447 1032 440 1032 q 508 1056 482 1032 q 533 1117 533 1081 m 792 1117 q 703 1203 792 1203 q 641 1178 667 1203 q 615 1117 615 1153 q 641 1056 615 1081 q 703 1032 667 1032 q 765 1056 739 1032 q 792 1117 792 1081 m 772 1140 l 732 1110 l 743 1065 l 701 1090 l 657 1065 l 669 1111 l 632 1143 l 682 1144 l 701 1189 l 722 1144 l 772 1140 m 514 1140 l 475 1110 l 486 1065 l 443 1090 l 400 1065 l 414 1111 l 375 1143 l 425 1144 l 444 1189 l 464 1144 l 514 1140 z "},"Å":{"ha":1168,"x_min":7,"x_max":1118,"o":"m 964 -11 q 1035 -14 996 -11 q 1118 -19 1074 -17 l 1118 42 q 1019 68 1038 50 q 981 129 1003 90 q 931 226 958 168 l 853 389 q 773 563 804 493 q 725 668 742 633 q 659 819 689 749 q 608 956 629 890 l 576 911 q 574 910 576 910 q 567 913 571 910 q 557 918 564 915 l 544 926 q 543 925 543 926 q 506 835 528 882 q 458 733 485 788 l 265 357 q 233 293 246 318 q 214 253 221 268 q 184 199 201 229 q 144 133 167 169 q 90 65 114 81 q 7 33 65 46 l 7 -19 q 103 -15 60 -17 q 183 -14 147 -14 q 266 -16 219 -14 q 375 -25 313 -18 l 375 33 q 235 86 235 50 q 336 306 235 99 q 406 311 364 308 q 507 314 449 314 l 575 314 q 665 313 626 314 q 728 308 703 311 q 826 67 826 103 q 739 36 826 49 l 739 -22 q 883 -14 826 -17 q 964 -11 939 -11 m 706 1050 q 726 1117 726 1079 q 675 1214 726 1176 q 626 1238 651 1229 q 568 1247 600 1247 q 512 1238 538 1247 q 464 1214 486 1229 q 411 1117 411 1178 q 461 1018 411 1056 q 510 994 485 1003 q 568 985 536 985 q 706 1050 657 985 m 382 392 l 533 708 q 608 558 572 631 q 676 418 644 486 l 718 410 q 768 383 763 403 l 586 389 l 547 389 l 524 386 l 511 386 q 437 388 469 386 q 382 392 404 389 m 568 1176 q 619 1161 600 1176 q 647 1117 647 1146 q 619 1072 647 1088 q 568 1057 600 1057 q 518 1074 539 1057 q 492 1117 492 1090 q 517 1161 492 1144 q 568 1176 538 1176 z "},"Æ":{"ha":1790,"x_min":7,"x_max":1740,"o":"m 1658 -19 q 1713 109 1692 46 q 1740 236 1733 172 l 1678 233 q 1531 81 1626 118 q 1442 63 1497 69 q 1308 57 1388 57 q 1169 62 1231 57 q 1058 75 1107 67 q 1047 179 1051 119 q 1043 314 1043 239 q 1043 389 1043 358 q 1044 435 1043 419 l 1156 436 l 1242 436 q 1435 432 1386 436 q 1501 393 1490 424 q 1514 310 1510 376 l 1582 310 q 1581 351 1581 322 q 1581 431 1581 382 l 1581 610 l 1517 610 q 1493 536 1503 550 q 1425 515 1476 515 l 1353 515 q 1139 515 1217 515 q 1043 517 1063 515 l 1043 624 q 1060 857 1043 774 q 1336 869 1197 869 q 1572 801 1572 869 q 1569 774 1572 792 q 1558 733 1565 757 q 1592 727 1579 729 q 1610 722 1604 725 q 1650 814 1633 744 q 1667 917 1667 878 q 1636 943 1667 943 l 1086 940 q 858 942 958 939 q 681 956 757 946 l 681 892 q 781 875 722 888 q 745 826 760 847 q 719 792 731 806 l 603 633 q 274 208 378 329 q 172 108 217 146 q 90 56 126 69 q 7 35 67 47 l 7 -25 q 83 -21 46 -22 q 160 -19 121 -19 l 239 -19 q 317 -21 271 -19 q 431 -25 364 -22 l 431 35 q 306 82 306 47 q 335 140 306 100 l 458 307 q 576 311 486 308 q 753 312 676 314 q 886 307 829 310 q 889 279 889 293 q 889 251 889 265 q 851 58 889 97 q 801 39 844 47 l 797 36 q 751 31 776 31 l 757 -28 q 1020 -17 886 -21 q 1297 -14 1154 -14 l 1410 -14 q 1538 -15 1476 -14 q 1658 -19 1600 -17 m 890 431 l 890 393 l 856 392 q 758 390 790 390 q 725 389 726 389 l 642 389 q 580 390 610 389 q 524 392 550 390 l 783 749 l 819 799 l 864 857 q 865 844 864 851 q 886 619 883 786 l 890 431 z "},"Ç":{"ha":1082,"x_min":7,"x_max":1032,"o":"m 722 -290 q 768 -194 768 -247 q 618 -74 768 -124 l 625 -28 q 786 -9 688 -26 q 1024 40 885 8 q 1028 69 1028 57 q 1010 110 1028 96 q 998 117 1003 115 q 992 122 993 119 q 1013 165 1003 146 q 1032 200 1022 183 q 1026 208 1032 208 q 1010 201 1025 208 q 989 194 996 194 q 979 198 985 194 q 969 201 974 201 q 944 182 957 201 q 851 90 900 119 q 653 40 774 40 q 365 135 508 40 q 192 468 192 247 q 311 772 192 726 l 457 842 q 618 883 538 883 q 775 860 681 883 q 863 829 829 846 q 911 793 896 813 q 922 742 918 783 q 939 703 925 714 q 982 692 949 696 l 982 706 q 979 742 982 719 q 976 781 976 765 q 1032 893 976 854 q 1000 911 1010 914 q 985 910 993 911 q 967 908 978 910 q 936 910 953 908 q 900 919 919 913 q 657 957 772 957 q 357 907 494 957 q 215 838 278 878 q 107 744 153 797 q 7 468 7 628 q 206 97 7 238 q 358 15 276 44 q 533 -24 440 -14 q 524 -49 524 -46 q 494 -102 513 -75 q 450 -161 475 -129 q 647 -218 647 -169 q 522 -292 647 -275 q 481 -296 506 -294 q 422 -297 456 -297 l 422 -361 q 457 -362 443 -361 q 478 -367 471 -364 q 543 -376 508 -376 q 722 -290 626 -376 z "},"È":{"ha":1026,"x_min":7,"x_max":976,"o":"m 976 226 l 917 226 q 882 161 900 188 q 844 118 864 135 q 524 53 772 53 q 409 58 461 53 q 311 72 357 63 q 299 282 299 139 q 299 351 299 315 q 301 428 300 388 q 350 432 328 431 q 392 433 372 433 q 633 392 608 433 q 642 359 640 381 q 647 303 644 338 l 719 300 q 692 481 692 407 q 714 599 692 549 l 660 607 q 611 517 632 525 q 533 508 594 510 q 364 506 471 506 q 340 533 357 506 q 318 564 321 564 q 258 474 288 553 q 228 394 239 424 q 211 358 217 365 q 210 357 211 357 l 253 606 q 289 672 265 672 q 294 671 290 672 q 299 669 297 669 q 301 674 301 669 q 305 757 301 711 q 315 857 308 803 q 567 869 444 869 q 744 856 671 869 q 807 807 807 843 q 803 779 807 796 q 800 753 800 763 q 840 725 800 725 q 903 944 886 725 q 722 940 799 942 q 600 939 646 939 l 28 939 q 22 886 22 918 q 110 865 100 874 q 136 781 131 847 q 139 746 139 769 q 140 689 139 724 q 144 474 143 558 q 143 351 144 390 l 142 317 q 134 176 138 231 q 126 97 131 122 q 110 53 121 61 q 58 39 82 44 q 11 31 33 33 l 7 -28 q 204 -22 115 -25 q 364 -19 293 -19 l 549 -19 q 601 -6 565 -19 q 635 6 621 3 q 658 10 650 10 q 665 8 664 10 q 654 -4 664 6 q 626 -33 644 -14 l 626 -35 q 692 -33 650 -35 q 794 -28 733 -32 q 874 -24 843 -25 q 918 -25 904 -24 q 921 38 919 14 q 924 68 922 61 q 940 156 926 117 q 976 226 954 196 m 503 1056 l 632 1056 q 547 1150 585 1076 q 507 1224 510 1224 l 353 1228 q 433 1139 392 1211 q 503 1056 474 1069 z "},"É":{"ha":1026,"x_min":7,"x_max":976,"o":"m 976 226 l 917 226 q 882 161 900 188 q 844 118 864 135 q 524 53 772 53 q 409 58 461 53 q 311 72 357 63 q 299 282 299 139 q 299 351 299 315 q 301 428 300 388 q 350 432 328 431 q 392 433 372 433 q 633 392 608 433 q 642 359 640 381 q 647 303 644 338 l 719 300 q 692 481 692 407 q 714 599 692 549 l 660 607 q 611 517 632 525 q 533 508 594 510 q 364 506 471 506 q 340 533 357 506 q 318 564 321 564 q 258 474 288 553 q 228 394 239 424 q 211 358 217 365 q 210 357 211 357 l 253 606 q 289 672 265 672 q 294 671 290 672 q 299 669 297 669 q 301 674 301 669 q 305 757 301 711 q 315 857 308 803 q 567 869 444 869 q 744 856 671 869 q 807 807 807 843 q 803 779 807 796 q 800 753 800 763 q 840 725 800 725 q 903 944 886 725 q 722 940 799 942 q 600 939 646 939 l 28 939 q 22 886 22 918 q 110 865 100 874 q 136 781 131 847 q 139 746 139 769 q 140 689 139 724 q 144 474 143 558 q 143 351 144 390 l 142 317 q 134 176 138 231 q 126 97 131 122 q 110 53 121 61 q 58 39 82 44 q 11 31 33 33 l 7 -28 q 204 -22 115 -25 q 364 -19 293 -19 l 549 -19 q 601 -6 565 -19 q 635 6 621 3 q 658 10 650 10 q 665 8 664 10 q 654 -4 664 6 q 626 -33 644 -14 l 626 -35 q 692 -33 650 -35 q 794 -28 733 -32 q 874 -24 843 -25 q 918 -25 904 -24 q 921 38 919 14 q 924 68 922 61 q 940 156 926 117 q 976 226 954 196 m 482 1056 q 550 1139 510 1068 q 632 1228 593 1211 l 478 1224 q 436 1150 474 1224 q 353 1056 397 1075 l 482 1056 z "},"Ê":{"ha":1026,"x_min":7,"x_max":976,"o":"m 976 226 l 917 226 q 882 161 900 188 q 844 118 864 135 q 524 53 772 53 q 409 58 461 53 q 311 72 357 63 q 299 282 299 139 q 299 351 299 315 q 301 428 300 388 q 350 432 328 431 q 392 433 372 433 q 633 392 608 433 q 642 359 640 381 q 647 303 644 338 l 719 300 q 692 481 692 407 q 714 599 692 549 l 660 607 q 611 517 632 525 q 533 508 594 510 q 364 506 471 506 q 340 533 357 506 q 318 564 321 564 q 258 474 288 553 q 228 394 239 424 q 211 358 217 365 q 210 357 211 357 l 253 606 q 289 672 265 672 q 294 671 290 672 q 299 669 297 669 q 301 674 301 669 q 305 757 301 711 q 315 857 308 803 q 567 869 444 869 q 744 856 671 869 q 807 807 807 843 q 803 779 807 796 q 800 753 800 763 q 840 725 800 725 q 903 944 886 725 q 722 940 799 942 q 600 939 646 939 l 28 939 q 22 886 22 918 q 110 865 100 874 q 136 781 131 847 q 139 746 139 769 q 140 689 139 724 q 144 474 143 558 q 143 351 144 390 l 142 317 q 134 176 138 231 q 126 97 131 122 q 110 53 121 61 q 58 39 82 44 q 11 31 33 33 l 7 -28 q 204 -22 115 -25 q 364 -19 293 -19 l 549 -19 q 601 -6 565 -19 q 635 6 621 3 q 658 10 650 10 q 665 8 664 10 q 654 -4 664 6 q 626 -33 644 -14 l 626 -35 q 692 -33 650 -35 q 794 -28 733 -32 q 874 -24 843 -25 q 918 -25 904 -24 q 921 38 919 14 q 924 68 922 61 q 940 156 926 117 q 976 226 954 196 m 607 1019 l 736 1019 q 683 1093 721 1054 q 660 1113 678 1099 q 611 1150 643 1126 l 517 1275 l 472 1275 q 399 1192 425 1224 q 364 1144 372 1160 q 342 1123 358 1138 q 299 1085 326 1108 q 249 1019 260 1049 l 381 1019 q 418 1108 411 1099 l 493 1164 q 530 1141 513 1153 q 567 1118 547 1129 q 607 1019 594 1064 z "},"Ë":{"ha":1026,"x_min":7,"x_max":976,"o":"m 976 226 l 917 226 q 882 161 900 188 q 844 118 864 135 q 524 53 772 53 q 409 58 461 53 q 311 72 357 63 q 299 282 299 139 q 299 351 299 315 q 301 428 300 388 q 350 432 328 431 q 392 433 372 433 q 633 392 608 433 q 642 359 640 381 q 647 303 644 338 l 719 300 q 692 481 692 407 q 714 599 692 549 l 660 607 q 611 517 632 525 q 533 508 594 510 q 364 506 471 506 q 340 533 357 506 q 318 564 321 564 q 258 474 288 553 q 228 394 239 424 q 211 358 217 365 q 210 357 211 357 l 253 606 q 289 672 265 672 q 294 671 290 672 q 299 669 297 669 q 301 674 301 669 q 305 757 301 711 q 315 857 308 803 q 567 869 444 869 q 744 856 671 869 q 807 807 807 843 q 803 779 807 796 q 800 753 800 763 q 840 725 800 725 q 903 944 886 725 q 722 940 799 942 q 600 939 646 939 l 28 939 q 22 886 22 918 q 110 865 100 874 q 136 781 131 847 q 139 746 139 769 q 140 689 139 724 q 144 474 143 558 q 143 351 144 390 l 142 317 q 134 176 138 231 q 126 97 131 122 q 110 53 121 61 q 58 39 82 44 q 11 31 33 33 l 7 -28 q 204 -22 115 -25 q 364 -19 293 -19 l 549 -19 q 601 -6 565 -19 q 635 6 621 3 q 658 10 650 10 q 665 8 664 10 q 654 -4 664 6 q 626 -33 644 -14 l 626 -35 q 692 -33 650 -35 q 794 -28 733 -32 q 874 -24 843 -25 q 918 -25 904 -24 q 921 38 919 14 q 924 68 922 61 q 940 156 926 117 q 976 226 954 196 m 451 1117 q 426 1178 451 1153 q 364 1203 400 1203 q 302 1178 328 1203 q 275 1117 276 1153 q 324 1031 274 1031 q 344 1031 331 1031 q 364 1032 358 1032 q 426 1056 400 1032 q 451 1117 451 1081 m 708 1117 q 622 1203 708 1203 q 559 1178 586 1203 q 532 1117 532 1153 q 559 1056 532 1081 q 622 1032 586 1032 q 683 1056 657 1032 q 708 1117 708 1081 m 689 1140 l 650 1110 l 661 1065 l 618 1090 l 575 1065 l 589 1111 l 550 1143 l 600 1144 l 619 1189 l 639 1144 l 689 1140 m 432 1140 l 393 1110 l 403 1065 l 361 1090 l 318 1065 l 332 1111 l 293 1143 l 343 1144 l 364 1189 l 382 1144 l 432 1140 z "},"Ì":{"ha":586,"x_min":7,"x_max":536,"o":"m 364 515 l 364 593 q 332 547 344 547 q 328 549 331 547 q 318 583 318 568 q 340 644 318 608 q 367 694 364 685 l 386 794 q 419 853 397 843 q 536 874 474 874 l 536 943 q 409 919 472 928 q 282 910 346 910 q 153 919 218 910 q 18 943 88 928 l 18 876 q 60 874 38 876 q 108 865 82 872 q 186 825 174 847 q 189 817 189 824 q 187 785 189 804 q 182 743 185 767 q 178 701 179 719 q 176 669 176 682 q 184 565 176 618 q 208 458 192 513 l 247 325 l 247 319 q 244 318 247 318 q 228 339 244 318 q 210 360 213 360 q 208 358 208 360 q 147 100 208 132 q 106 81 124 89 q 78 65 89 72 q 7 40 33 42 l 11 -19 q 138 5 74 -4 q 274 14 203 14 q 406 5 343 14 q 525 -19 468 -4 l 533 43 q 449 56 500 43 q 374 90 383 68 q 364 515 364 114 m 283 1056 l 414 1056 q 326 1150 364 1076 q 286 1224 290 1224 l 133 1228 q 214 1139 168 1213 q 283 1056 254 1069 z "},"Í":{"ha":586,"x_min":7,"x_max":536,"o":"m 364 515 l 364 593 q 332 547 344 547 q 328 549 331 547 q 318 583 318 568 q 340 644 318 608 q 367 694 364 685 l 386 794 q 419 853 397 843 q 536 874 474 874 l 536 943 q 409 919 472 928 q 282 910 346 910 q 153 919 218 910 q 18 943 88 928 l 18 876 q 60 874 38 876 q 108 865 82 872 q 186 825 174 847 q 189 817 189 824 q 187 785 189 804 q 182 743 185 767 q 178 701 179 719 q 176 669 176 682 q 184 565 176 618 q 208 458 192 513 l 247 325 l 247 319 q 244 318 247 318 q 228 339 244 318 q 210 360 213 360 q 208 358 208 360 q 147 100 208 132 q 106 81 124 89 q 78 65 89 72 q 7 40 33 42 l 11 -19 q 138 5 74 -4 q 274 14 203 14 q 406 5 343 14 q 525 -19 468 -4 l 533 43 q 449 56 500 43 q 374 90 383 68 q 364 515 364 114 m 261 1056 q 331 1139 288 1067 q 414 1228 374 1211 l 258 1224 q 217 1150 254 1224 q 133 1056 181 1076 l 261 1056 z "},"Î":{"ha":586,"x_min":7,"x_max":536,"o":"m 364 515 l 364 593 q 332 547 344 547 q 328 549 331 547 q 318 583 318 568 q 340 644 318 608 q 367 694 364 685 l 386 794 q 419 853 397 843 q 536 874 474 874 l 536 943 q 409 919 472 928 q 282 910 346 910 q 153 919 218 910 q 18 943 88 928 l 18 876 q 60 874 38 876 q 108 865 82 872 q 186 825 174 847 q 189 817 189 824 q 187 785 189 804 q 182 743 185 767 q 178 701 179 719 q 176 669 176 682 q 184 565 176 618 q 208 458 192 513 l 247 325 l 247 319 q 244 318 247 318 q 228 339 244 318 q 210 360 213 360 q 208 358 208 360 q 147 100 208 132 q 106 81 124 89 q 78 65 89 72 q 7 40 33 42 l 11 -19 q 138 5 74 -4 q 274 14 203 14 q 406 5 343 14 q 525 -19 468 -4 l 533 43 q 449 56 500 43 q 374 90 383 68 q 364 515 364 114 m 389 1019 l 517 1019 q 464 1093 499 1068 l 393 1150 l 297 1275 l 253 1275 q 144 1144 160 1172 q 81 1085 131 1128 q 28 1019 40 1049 l 160 1019 q 200 1108 193 1101 q 237 1135 219 1122 q 274 1164 254 1149 q 310 1141 293 1153 q 347 1118 328 1129 q 371 1067 361 1092 q 389 1019 381 1043 z "},"Ï":{"ha":586,"x_min":7,"x_max":536,"o":"m 364 515 l 364 593 q 332 547 344 547 q 328 549 331 547 q 318 583 318 568 q 340 644 318 608 q 367 694 364 685 l 386 794 q 419 853 397 843 q 536 874 474 874 l 536 943 q 409 919 472 928 q 282 910 346 910 q 153 919 218 910 q 18 943 88 928 l 18 876 q 60 874 38 876 q 108 865 82 872 q 186 825 174 847 q 189 817 189 824 q 187 785 189 804 q 182 743 185 767 q 178 701 179 719 q 176 669 176 682 q 184 565 176 618 q 208 458 192 513 l 247 325 l 247 319 q 244 318 247 318 q 228 339 244 318 q 210 360 213 360 q 208 358 208 360 q 147 100 208 132 q 106 81 124 89 q 78 65 89 72 q 7 40 33 42 l 11 -19 q 138 5 74 -4 q 274 14 203 14 q 406 5 343 14 q 525 -19 468 -4 l 533 43 q 449 56 500 43 q 374 90 383 68 q 364 515 364 114 m 233 1117 q 207 1178 233 1153 q 144 1203 181 1203 q 83 1179 108 1203 q 57 1117 57 1156 q 106 1031 56 1031 q 125 1031 113 1031 q 144 1032 138 1032 q 207 1056 181 1032 q 233 1117 233 1081 m 490 1117 q 401 1203 490 1203 q 340 1179 365 1203 q 314 1117 314 1156 q 340 1056 314 1081 q 401 1032 365 1032 q 464 1056 438 1032 q 490 1117 490 1081 m 469 1140 l 432 1110 l 442 1065 l 400 1090 l 356 1065 l 368 1111 l 332 1143 l 382 1144 l 401 1189 l 419 1144 l 469 1140 m 214 1140 l 174 1110 l 185 1065 l 142 1090 l 100 1065 l 111 1111 l 75 1143 l 125 1144 l 144 1189 l 164 1144 l 214 1140 z "},"Ð":{"ha":1272,"x_min":7,"x_max":1222,"o":"m 1174 278 q 1222 469 1222 371 q 1208 576 1222 526 q 1167 672 1194 626 q 894 889 1078 817 q 730 935 815 921 q 550 950 644 950 q 487 949 518 950 q 424 944 456 947 q 14 928 265 928 l 17 865 q 119 839 106 868 q 140 674 138 801 q 142 583 142 625 q 142 506 142 542 l 7 506 l 7 426 l 142 426 q 119 69 142 110 q 7 47 111 47 l 7 -15 l 114 -17 l 350 -11 l 410 -11 q 439 -12 421 -11 q 477 -13 457 -12 q 515 -15 497 -14 q 543 -15 532 -15 q 900 50 740 -15 q 1174 278 1092 128 m 960 692 q 1035 469 1035 600 q 885 151 1035 264 q 539 53 753 53 q 303 90 446 53 l 299 426 l 614 426 l 614 506 l 299 506 q 303 719 300 635 q 314 849 307 804 q 413 873 361 864 q 524 882 465 882 q 764 835 653 882 q 825 809 800 821 q 865 786 850 797 q 960 692 907 757 z "},"Ñ":{"ha":1217,"x_min":7,"x_max":1167,"o":"m 333 -19 q 344 -14 344 -19 q 315 31 344 -6 l 286 67 q 289 68 286 68 q 231 178 236 88 q 229 222 228 189 q 232 315 231 256 l 243 718 q 368 592 315 663 l 435 501 l 611 307 q 840 94 697 211 q 975 -33 950 4 l 1040 -36 q 1033 104 1035 25 q 1031 281 1031 183 q 1057 831 1031 729 q 1101 874 1063 861 q 1124 877 1108 875 q 1167 883 1140 879 l 1161 942 q 1057 940 1097 940 q 997 940 1017 940 q 965 899 985 896 q 937 906 954 900 q 894 922 919 911 q 855 939 869 933 q 833 944 840 944 q 803 944 817 944 q 778 943 789 944 l 756 892 q 831 880 801 885 q 875 872 861 875 q 914 843 899 864 q 942 606 942 800 l 942 468 q 940 335 942 393 q 936 232 939 276 q 803 353 858 303 q 717 435 749 404 l 524 611 q 344 800 404 719 q 269 899 296 864 q 239 939 243 933 l 156 936 q 43 936 71 933 l 43 872 q 75 865 74 868 q 89 853 81 861 q 140 736 131 826 q 140 601 142 711 l 135 260 q 115 75 133 113 q 51 43 103 49 q 7 8 7 40 q 50 -26 7 -29 q 173 -21 125 -24 q 243 -18 221 -18 q 293 -17 271 -17 q 333 -19 315 -18 m 775 1107 q 790 1231 789 1158 l 756 1231 q 742 1149 751 1172 q 692 1106 725 1106 l 685 1106 l 676 1101 q 660 1101 669 1099 q 611 1149 638 1103 q 461 1233 560 1233 q 386 1165 418 1233 q 371 1104 376 1142 q 364 1014 365 1067 l 397 1014 q 460 1136 410 1136 q 468 1136 464 1136 q 476 1135 474 1136 q 540 1094 519 1133 q 631 1008 581 1021 q 650 1007 639 1007 q 676 1010 663 1007 q 686 1011 682 1011 q 775 1107 747 1011 z "},"Ò":{"ha":1269,"x_min":7,"x_max":1219,"o":"m 900 24 q 1128 197 1042 86 q 1219 464 1219 314 q 1031 826 1219 685 q 628 957 857 957 q 339 897 479 957 q 107 726 194 835 q 7 460 7 607 q 161 128 7 278 q 597 -35 332 -35 q 681 -33 646 -35 q 739 -28 715 -32 q 900 24 806 -19 m 1015 586 q 1043 499 1035 544 q 1051 407 1051 454 q 944 143 1051 238 q 672 51 842 51 q 322 178 465 51 q 174 515 174 311 q 292 782 174 683 q 574 869 401 869 q 701 814 625 869 q 828 743 785 751 q 944 692 901 731 q 1015 586 982 656 m 625 1056 l 753 1056 q 668 1150 706 1076 q 628 1224 631 1224 l 475 1228 q 556 1139 510 1213 q 625 1056 596 1069 z "},"Ó":{"ha":1269,"x_min":7,"x_max":1219,"o":"m 900 24 q 1128 197 1042 86 q 1219 464 1219 314 q 1031 826 1219 685 q 628 957 857 957 q 339 897 479 957 q 107 726 194 835 q 7 460 7 607 q 161 128 7 278 q 597 -35 332 -35 q 681 -33 646 -35 q 739 -28 715 -32 q 900 24 806 -19 m 1015 586 q 1043 499 1035 544 q 1051 407 1051 454 q 944 143 1051 238 q 672 51 842 51 q 322 178 465 51 q 174 515 174 311 q 292 782 174 683 q 574 869 401 869 q 701 814 625 869 q 828 743 785 751 q 944 692 901 731 q 1015 586 982 656 m 603 1056 q 672 1139 629 1067 q 753 1228 714 1211 l 600 1224 q 558 1150 596 1224 q 475 1056 519 1075 l 603 1056 z "},"Ô":{"ha":1269,"x_min":7,"x_max":1219,"o":"m 900 24 q 1128 197 1042 86 q 1219 464 1219 314 q 1031 826 1219 685 q 628 957 857 957 q 339 897 479 957 q 107 726 194 835 q 7 460 7 607 q 161 128 7 278 q 597 -35 332 -35 q 681 -33 646 -35 q 739 -28 715 -32 q 900 24 806 -19 m 1015 586 q 1043 499 1035 544 q 1051 407 1051 454 q 944 143 1051 238 q 672 51 842 51 q 322 178 465 51 q 174 515 174 311 q 292 782 174 683 q 574 869 401 869 q 701 814 625 869 q 828 743 785 751 q 944 692 901 731 q 1015 586 982 656 m 731 1019 l 858 1019 q 806 1093 846 1056 q 783 1113 800 1099 q 733 1150 765 1126 l 639 1275 l 593 1275 q 521 1192 547 1224 q 486 1144 494 1160 q 422 1085 474 1132 q 390 1051 403 1067 q 369 1019 376 1035 l 501 1019 q 542 1108 535 1101 q 578 1135 560 1122 q 615 1164 596 1149 q 652 1141 635 1153 q 689 1118 669 1129 q 713 1067 703 1092 q 731 1019 722 1043 z "},"Õ":{"ha":1269,"x_min":7,"x_max":1219,"o":"m 900 24 q 1128 197 1042 86 q 1219 464 1219 314 q 1031 826 1219 685 q 628 957 857 957 q 339 897 479 957 q 107 726 194 835 q 7 460 7 607 q 161 128 7 278 q 597 -35 332 -35 q 681 -33 646 -35 q 739 -28 715 -32 q 900 24 806 -19 m 1015 586 q 1043 499 1035 544 q 1051 407 1051 454 q 944 143 1051 238 q 672 51 842 51 q 322 178 465 51 q 174 515 174 311 q 292 782 174 683 q 574 869 401 869 q 701 814 625 869 q 828 743 785 751 q 944 692 901 731 q 1015 586 982 656 m 811 1115 q 823 1170 819 1139 q 826 1239 826 1201 l 793 1239 q 788 1189 792 1210 q 781 1156 785 1168 q 731 1111 761 1111 l 722 1111 l 715 1110 q 708 1108 711 1108 q 699 1108 704 1107 q 649 1156 676 1110 q 499 1240 596 1240 q 425 1174 454 1240 q 400 1019 401 1125 l 433 1019 q 499 1143 449 1143 l 514 1143 q 578 1101 558 1140 q 668 1015 621 1028 q 690 1015 678 1014 q 715 1018 701 1015 q 725 1019 719 1019 q 811 1115 783 1019 z "},"Ö":{"ha":1269,"x_min":7,"x_max":1219,"o":"m 900 24 q 1128 197 1042 86 q 1219 464 1219 314 q 1031 826 1219 685 q 628 957 857 957 q 339 897 479 957 q 107 726 194 835 q 7 460 7 607 q 161 128 7 278 q 597 -35 332 -35 q 681 -33 646 -35 q 739 -28 715 -32 q 900 24 806 -19 m 1015 586 q 1043 499 1035 544 q 1051 407 1051 454 q 944 143 1051 238 q 672 51 842 51 q 322 178 465 51 q 174 515 174 311 q 292 782 174 683 q 574 869 401 869 q 701 814 625 869 q 828 743 785 751 q 944 692 901 731 q 1015 586 982 656 m 574 1117 q 548 1178 574 1153 q 486 1203 522 1203 q 424 1178 450 1203 q 399 1117 399 1153 q 447 1031 397 1031 q 467 1031 454 1031 q 486 1032 479 1032 q 548 1056 522 1032 q 574 1117 574 1081 m 832 1117 q 743 1203 832 1203 q 681 1178 707 1203 q 656 1117 656 1153 q 681 1056 656 1081 q 743 1032 707 1032 q 806 1056 779 1032 q 832 1117 832 1081 m 811 1140 l 772 1110 l 783 1065 l 742 1090 l 697 1065 l 710 1111 l 672 1143 l 722 1144 l 742 1189 l 761 1144 l 811 1140 m 553 1140 l 515 1110 l 526 1065 l 483 1090 l 440 1065 l 453 1111 l 415 1143 l 465 1144 l 485 1189 l 503 1144 l 553 1140 z "},"×":{"ha":697,"x_min":7,"x_max":647,"o":"m 439 719 q 462 754 449 736 q 494 792 475 772 q 557 817 524 817 q 619 790 593 817 q 644 726 644 763 q 572 631 644 674 q 535 608 549 615 q 517 597 522 600 q 456 556 493 581 q 365 499 418 531 q 464 436 418 464 q 549 385 510 408 q 583 361 567 375 q 619 328 600 347 q 647 268 647 304 q 619 204 647 231 q 556 178 592 178 q 458 253 500 178 q 425 308 432 300 q 385 367 408 329 q 326 460 361 404 q 292 404 317 442 q 228 308 268 367 q 194 254 211 281 q 157 203 176 228 q 99 178 132 178 q 33 203 60 178 q 7 268 7 229 q 33 328 7 301 q 61 353 44 339 q 106 385 78 367 q 165 421 119 392 q 289 499 210 450 q 136 597 249 521 q 94 624 121 607 q 32 667 68 642 q 8 726 8 694 q 35 790 8 763 q 97 817 61 817 q 158 792 131 817 q 183 764 169 781 q 214 719 196 747 q 326 536 228 690 q 387 634 358 589 q 439 719 415 679 z "},"Ø":{"ha":1269,"x_min":7,"x_max":1219,"o":"m 308 -115 l 375 -1 q 597 -35 476 -35 q 681 -33 646 -35 q 739 -28 715 -32 q 900 24 806 -19 q 1128 197 1042 86 q 1219 464 1219 314 q 1031 826 1219 685 q 967 867 999 849 q 903 900 936 885 l 986 1043 l 865 1043 l 801 935 q 628 957 722 957 q 339 897 479 957 q 107 726 194 835 q 7 460 7 607 q 161 128 7 275 q 217 83 189 104 q 278 42 246 61 l 185 -115 l 308 -115 m 814 747 q 821 744 817 744 q 828 743 825 744 q 944 692 904 728 q 1015 586 982 658 q 1043 499 1035 544 q 1051 407 1051 454 q 944 143 1051 238 q 672 51 842 51 q 439 107 544 51 l 814 747 m 349 164 q 174 515 174 306 q 292 782 174 683 q 574 869 401 869 q 701 814 625 869 l 722 799 l 349 164 z "},"Ù":{"ha":1290,"x_min":7,"x_max":1240,"o":"m 1144 806 q 1117 839 1144 807 q 1090 875 1090 869 q 1093 876 1090 876 q 1153 873 1125 875 q 1208 867 1182 871 l 1219 882 q 1240 899 1232 899 l 1240 961 q 1188 960 1218 964 q 1117 950 1157 957 q 992 935 1028 935 q 919 931 982 935 l 928 869 q 1017 844 1000 869 q 1044 633 1044 806 q 997 192 1044 307 q 843 81 965 118 q 746 58 794 65 q 644 51 697 51 q 314 217 356 51 q 301 322 304 249 q 297 510 297 396 q 319 835 297 797 q 399 872 339 860 q 414 874 408 872 l 406 899 l 408 939 q 267 933 331 935 q 156 932 204 932 q 78 932 114 932 q 15 933 43 932 l 7 872 q 78 865 53 868 q 111 860 104 863 q 119 851 117 860 q 142 594 142 790 q 117 507 142 569 q 98 452 104 475 q 90 414 92 429 q 114 335 90 386 q 139 283 139 286 q 292 32 139 114 q 597 -32 417 -32 q 1065 125 964 -32 q 1140 544 1128 221 q 1144 751 1144 653 q 1144 806 1149 794 m 647 1056 l 775 1056 q 690 1150 728 1076 q 649 1224 653 1224 l 494 1228 q 576 1139 533 1213 q 647 1056 619 1068 z "},"Ú":{"ha":1290,"x_min":7,"x_max":1240,"o":"m 1144 806 q 1117 839 1144 807 q 1090 875 1090 869 q 1093 876 1090 876 q 1153 873 1125 875 q 1208 867 1182 871 l 1219 882 q 1240 899 1232 899 l 1240 961 q 1188 960 1218 964 q 1117 950 1157 957 q 992 935 1028 935 q 919 931 982 935 l 928 869 q 1017 844 1000 869 q 1044 633 1044 806 q 997 192 1044 307 q 843 81 965 118 q 746 58 794 65 q 644 51 697 51 q 314 217 356 51 q 301 322 304 249 q 297 510 297 396 q 319 835 297 797 q 399 872 339 860 q 414 874 408 872 l 406 899 l 408 939 q 267 933 331 935 q 156 932 204 932 q 78 932 114 932 q 15 933 43 932 l 7 872 q 78 865 53 868 q 111 860 104 863 q 119 851 117 860 q 142 594 142 790 q 117 507 142 569 q 98 452 104 475 q 90 414 92 429 q 114 335 90 386 q 139 283 139 286 q 292 32 139 114 q 597 -32 417 -32 q 1065 125 964 -32 q 1140 544 1128 221 q 1144 751 1144 653 q 1144 806 1149 794 m 624 1056 q 693 1139 653 1069 q 775 1228 739 1213 l 622 1224 q 581 1150 618 1224 q 494 1056 543 1076 l 624 1056 z "},"Û":{"ha":1290,"x_min":7,"x_max":1240,"o":"m 1144 806 q 1117 839 1144 807 q 1090 875 1090 869 q 1093 876 1090 876 q 1153 873 1125 875 q 1208 867 1182 871 l 1219 882 q 1240 899 1232 899 l 1240 961 q 1188 960 1218 964 q 1117 950 1157 957 q 992 935 1028 935 q 919 931 982 935 l 928 869 q 1017 844 1000 869 q 1044 633 1044 806 q 997 192 1044 307 q 843 81 965 118 q 746 58 794 65 q 644 51 697 51 q 314 217 356 51 q 301 322 304 249 q 297 510 297 396 q 319 835 297 797 q 399 872 339 860 q 414 874 408 872 l 406 899 l 408 939 q 267 933 331 935 q 156 932 204 932 q 78 932 114 932 q 15 933 43 932 l 7 872 q 78 865 53 868 q 111 860 104 863 q 119 851 117 860 q 142 594 142 790 q 117 507 142 569 q 98 452 104 475 q 90 414 92 429 q 114 335 90 386 q 139 283 139 286 q 292 32 139 114 q 597 -32 417 -32 q 1065 125 964 -32 q 1140 544 1128 221 q 1144 751 1144 653 q 1144 806 1149 794 m 750 1019 l 878 1019 q 826 1093 865 1054 q 756 1150 815 1104 l 658 1275 l 615 1275 q 542 1192 568 1224 q 507 1144 515 1160 q 484 1123 500 1138 q 442 1085 468 1108 q 410 1051 422 1067 q 390 1019 397 1035 l 522 1019 q 548 1082 538 1060 q 561 1108 558 1104 q 598 1135 581 1122 q 635 1164 615 1149 l 710 1118 q 750 1019 738 1064 z "},"Ü":{"ha":1290,"x_min":7,"x_max":1240,"o":"m 1144 806 q 1117 839 1144 807 q 1090 875 1090 869 q 1093 876 1090 876 q 1153 873 1125 875 q 1208 867 1182 871 l 1219 882 q 1240 899 1232 899 l 1240 961 q 1188 960 1218 964 q 1117 950 1157 957 q 992 935 1028 935 q 919 931 982 935 l 928 869 q 1017 844 1000 869 q 1044 633 1044 806 q 997 192 1044 307 q 843 81 965 118 q 746 58 794 65 q 644 51 697 51 q 314 217 356 51 q 301 322 304 249 q 297 510 297 396 q 319 835 297 797 q 399 872 339 860 q 414 874 408 872 l 406 899 l 408 939 q 267 933 331 935 q 156 932 204 932 q 78 932 114 932 q 15 933 43 932 l 7 872 q 78 865 53 868 q 111 860 104 863 q 119 851 117 860 q 142 594 142 790 q 117 507 142 569 q 98 452 104 475 q 90 414 92 429 q 114 335 90 386 q 139 283 139 286 q 292 32 139 114 q 597 -32 417 -32 q 1065 125 964 -32 q 1140 544 1128 221 q 1144 751 1144 653 q 1144 806 1149 794 m 594 1117 q 568 1178 594 1153 q 507 1203 542 1203 q 444 1178 471 1203 q 418 1117 418 1153 q 467 1031 417 1031 q 487 1031 474 1031 q 507 1032 500 1032 q 568 1056 542 1032 q 594 1117 594 1081 m 851 1117 q 764 1203 851 1203 q 701 1178 728 1203 q 675 1117 675 1153 q 701 1056 675 1081 q 764 1032 728 1032 q 826 1056 800 1032 q 851 1117 851 1081 m 575 1140 l 536 1110 l 547 1065 l 506 1090 l 461 1065 l 474 1111 l 436 1143 l 486 1144 l 507 1189 l 525 1144 l 575 1140 m 832 1140 l 793 1110 l 803 1065 l 761 1090 l 718 1065 l 732 1111 l 693 1143 l 743 1144 l 764 1189 l 782 1144 l 832 1140 z "},"Ý":{"ha":1225,"x_min":7,"x_max":1175,"o":"m 1172 865 l 1175 931 q 1135 931 1158 931 q 1081 928 1113 931 q 1025 926 1049 926 q 985 926 1001 926 q 915 928 965 926 q 783 933 865 929 l 775 868 q 894 840 894 874 q 865 775 894 821 q 776 658 836 729 q 692 555 724 594 q 647 500 660 515 q 564 604 600 558 q 500 685 528 650 q 456 740 482 708 q 397 810 431 771 q 358 860 358 856 l 365 860 q 460 869 385 865 l 469 932 l 408 935 q 376 935 397 935 q 325 933 357 935 q 299 836 315 836 l 244 885 q 181 932 193 932 q 144 934 160 933 q 115 935 128 935 l 7 935 l 19 875 q 79 870 56 874 q 115 861 103 867 q 217 785 151 850 l 311 689 q 381 611 349 649 q 442 535 414 574 l 526 414 q 528 383 528 403 q 528 332 528 364 q 528 218 528 265 q 526 143 528 172 q 507 53 524 65 q 462 35 493 42 q 378 26 431 28 l 378 -31 q 427 -28 399 -31 q 494 -24 456 -26 q 563 -19 535 -21 q 610 -18 590 -18 l 647 -18 l 819 -26 q 826 -14 826 -21 q 824 -10 826 -10 l 840 7 l 824 7 q 832 8 825 8 q 843 10 833 10 l 843 24 q 692 69 703 49 l 653 64 q 633 81 633 64 q 660 145 647 117 q 686 194 672 174 l 683 422 l 772 532 q 906 697 851 632 q 992 794 960 763 q 1074 851 1039 840 q 1172 865 1103 863 m 664 1056 q 732 1139 689 1067 q 815 1228 774 1210 l 660 1224 q 619 1150 657 1224 q 535 1056 582 1076 l 664 1056 z "},"Þ":{"ha":989,"x_min":7,"x_max":960,"o":"m 876 275 q 960 444 960 372 q 831 653 960 558 q 451 739 717 739 q 418 738 438 739 q 375 735 399 736 l 386 794 q 419 853 397 843 q 536 874 474 874 l 536 943 q 409 919 472 928 q 282 910 346 910 q 153 919 218 910 q 18 943 88 928 l 18 876 q 60 874 38 876 q 108 865 82 872 q 186 825 174 847 q 189 817 189 824 q 187 785 189 804 q 182 743 185 767 q 178 701 179 719 q 176 669 176 682 q 184 565 176 618 q 208 458 192 513 l 247 325 l 247 319 q 244 318 247 318 q 228 339 244 318 q 210 360 213 360 q 208 358 208 360 q 147 100 208 132 q 106 81 124 89 q 78 65 89 72 q 7 40 33 42 l 11 -19 q 138 5 74 -4 q 274 14 203 14 q 406 5 343 14 q 525 -19 468 -4 l 533 43 q 449 56 500 43 q 374 90 383 68 q 365 233 368 103 q 401 210 374 224 q 592 161 488 161 q 876 275 778 161 m 747 556 q 782 439 782 493 q 715 289 782 364 q 576 242 672 242 q 431 285 485 242 q 398 308 415 296 q 364 333 381 319 q 363 386 363 351 q 363 461 363 422 q 363 535 363 500 q 361 590 363 571 l 365 656 q 418 663 393 660 q 467 665 443 665 q 747 556 679 665 z "},"ß":{"ha":851,"x_min":7,"x_max":801,"o":"m 7 -1 l 139 -1 q 118 -153 131 -151 q 90 -161 110 -157 q 35 -168 69 -165 q 48 -188 44 -182 q 51 -193 51 -194 q 47 -197 51 -197 l 90 -236 q 160 -223 128 -228 q 218 -218 192 -218 q 247 -221 232 -218 q 278 -226 263 -224 q 312 -236 299 -233 q 332 -240 325 -239 l 399 -175 q 340 -162 367 -168 q 290 -151 314 -156 q 289 -107 289 -144 q 286 -1 289 -71 l 367 -1 q 364 14 364 7 q 383 61 364 36 q 407 95 399 83 q 417 110 415 107 l 286 110 q 285 201 285 158 q 285 283 285 244 q 286 483 285 396 q 290 632 288 569 q 304 776 293 719 q 332 856 315 832 q 458 906 369 906 l 531 906 q 583 875 564 899 q 644 747 644 804 q 539 589 644 635 q 501 581 526 582 q 483 569 483 576 q 507 533 483 561 l 460 500 q 478 493 476 499 q 471 488 478 493 q 464 482 464 483 q 467 479 465 481 q 472 476 468 478 q 500 422 486 472 q 526 374 513 374 q 533 375 532 374 q 581 385 558 385 q 626 357 611 385 q 636 328 632 340 q 643 306 640 315 q 667 186 667 232 q 651 110 667 156 q 601 56 632 56 l 590 43 q 565 32 579 32 q 553 33 558 32 q 536 39 542 38 q 528 42 531 40 l 526 42 q 493 31 499 42 q 490 -10 490 22 q 478 -39 490 -21 q 515 -35 486 -35 q 561 -31 538 -35 q 608 -18 585 -28 q 751 89 701 14 q 801 260 801 160 q 589 532 801 463 q 722 615 674 558 q 776 758 776 678 q 740 881 776 825 q 478 1001 663 1001 q 149 551 149 1001 q 150 547 149 549 l 149 544 q 153 530 150 538 q 160 511 157 522 q 172 481 172 483 q 135 467 135 472 l 135 464 q 147 275 147 444 q 146 196 147 238 q 143 110 144 154 l 57 110 q 61 90 61 99 q 40 42 61 67 q 18 13 26 24 q 7 -1 10 1 z "},"à":{"ha":875,"x_min":7,"x_max":826,"o":"m 678 603 q 558 544 614 564 q 553 544 556 544 q 549 543 551 543 l 549 510 q 406 567 488 567 q 139 474 261 567 q 7 233 7 375 q 94 50 7 117 q 293 -15 176 -15 q 542 136 500 -15 q 586 -26 546 -26 l 607 -31 q 631 -33 621 -32 q 649 -33 642 -33 q 826 35 746 -33 l 815 68 q 751 39 779 39 q 693 90 715 39 q 689 228 689 119 q 689 343 689 301 q 690 399 689 386 q 700 492 693 444 q 722 589 707 540 l 678 603 m 339 478 q 460 460 407 478 q 547 386 535 433 q 574 308 547 365 q 599 228 600 250 q 597 224 599 225 q 533 307 549 301 q 525 308 532 308 q 500 258 500 308 q 503 215 500 243 q 506 172 506 186 q 494 128 506 142 q 383 81 447 81 q 208 143 275 81 q 140 314 140 207 q 206 433 140 386 q 267 467 233 457 q 339 478 301 478 m 428 733 l 557 733 q 472 828 511 756 q 432 903 436 899 l 278 907 q 358 817 318 886 q 428 733 399 747 m 557 503 q 554 504 556 503 q 553 506 553 506 q 554 517 553 510 q 558 538 556 525 q 558 526 558 535 q 557 503 558 518 z "},"á":{"ha":875,"x_min":7,"x_max":826,"o":"m 678 603 q 549 543 614 565 l 549 510 q 406 567 488 567 q 139 474 261 567 q 7 233 7 375 q 94 50 7 117 q 293 -15 176 -15 q 542 136 500 -15 q 586 -26 546 -26 l 607 -31 q 631 -33 621 -32 q 649 -33 642 -33 q 826 35 746 -33 l 815 68 q 751 39 779 39 q 693 90 715 39 q 689 228 689 119 q 689 343 689 301 q 690 399 689 386 q 700 492 693 444 q 722 589 707 540 l 678 603 m 339 478 q 460 460 407 478 q 547 386 535 433 q 574 308 547 365 q 599 228 600 250 q 597 224 599 225 q 533 307 549 301 q 525 308 532 308 q 500 258 500 308 q 503 215 500 243 q 506 172 506 186 q 494 128 506 142 q 383 81 447 81 q 208 143 275 81 q 140 314 140 207 q 206 433 140 386 q 267 467 233 457 q 339 478 301 478 m 407 733 q 475 817 435 746 q 557 907 515 888 l 403 903 q 361 828 399 900 q 322 768 342 792 q 278 733 301 744 l 407 733 m 557 503 q 554 504 556 503 q 553 506 553 506 q 554 517 553 510 q 558 538 556 525 q 558 526 558 535 q 557 503 558 518 z "},"â":{"ha":875,"x_min":7,"x_max":826,"o":"m 678 603 q 558 544 614 564 q 553 544 556 544 q 549 543 551 543 l 549 510 q 406 567 488 567 q 139 474 261 567 q 7 233 7 375 q 94 50 7 117 q 293 -15 176 -15 q 542 136 500 -15 q 586 -26 546 -26 l 607 -31 q 631 -33 621 -32 q 649 -33 642 -33 q 826 35 746 -33 l 815 68 q 751 39 779 39 q 693 90 715 39 q 689 228 689 119 q 689 343 689 301 q 690 399 689 386 q 700 492 693 444 q 722 589 707 540 l 678 603 m 339 478 q 460 460 407 478 q 547 386 535 433 q 574 308 547 365 q 599 228 600 250 q 597 224 599 225 q 533 307 549 301 q 525 308 532 308 q 500 258 500 308 q 503 215 500 243 q 506 172 506 186 q 494 128 506 142 q 383 81 447 81 q 208 143 275 81 q 140 314 140 207 q 206 433 140 386 q 267 467 233 457 q 339 478 301 478 m 532 700 l 661 700 q 640 739 653 721 q 608 772 628 757 l 536 831 l 442 953 l 397 953 q 324 869 350 901 q 289 824 297 838 q 265 799 281 814 q 224 764 249 785 q 174 700 186 726 l 306 700 q 343 786 338 781 l 418 842 q 455 819 438 831 q 492 797 472 808 q 532 700 518 742 m 557 503 q 554 504 556 503 q 553 506 553 506 q 554 517 553 510 q 558 538 556 525 q 558 526 558 535 q 557 503 558 518 z "},"ã":{"ha":875,"x_min":7,"x_max":826,"o":"m 678 603 q 558 544 614 564 q 553 544 556 544 q 549 543 551 543 l 549 510 q 406 567 488 567 q 139 474 261 567 q 7 233 7 375 q 94 50 7 117 q 293 -15 176 -15 q 542 136 500 -15 q 586 -26 546 -26 l 607 -31 q 631 -33 621 -32 q 649 -33 642 -33 q 826 35 746 -33 l 815 68 q 751 39 779 39 q 693 90 715 39 q 689 228 689 119 q 689 343 689 301 q 690 399 689 386 q 700 492 693 444 q 722 589 707 540 l 678 603 m 339 478 q 460 460 407 478 q 547 386 535 433 q 574 308 547 365 q 599 228 600 250 q 597 224 599 225 q 533 307 549 301 q 525 308 532 308 q 500 258 500 308 q 503 215 500 243 q 506 172 506 186 q 494 128 506 142 q 383 81 447 81 q 208 143 275 81 q 140 314 140 207 q 206 433 140 386 q 267 467 233 457 q 339 478 301 478 m 615 786 q 631 910 631 836 l 597 910 q 591 860 594 882 q 582 826 588 839 q 561 794 572 806 q 533 783 550 783 l 525 783 l 518 782 q 511 779 515 781 q 501 781 507 778 q 451 826 481 782 q 301 911 400 911 q 228 844 258 911 q 203 692 207 799 l 236 692 q 301 815 253 815 l 317 815 q 382 774 360 814 q 472 686 424 699 q 492 685 481 685 q 518 690 503 686 q 526 692 524 692 q 615 786 588 692 m 557 503 q 554 504 556 503 q 553 506 553 506 q 554 517 553 510 q 558 538 556 525 q 558 526 558 535 q 557 503 558 518 z "},"ä":{"ha":875,"x_min":7,"x_max":826,"o":"m 678 603 q 558 544 614 564 q 553 544 556 544 q 549 543 551 543 l 549 510 q 406 567 488 567 q 139 474 261 567 q 7 233 7 375 q 94 50 7 117 q 293 -15 176 -15 q 542 136 500 -15 q 586 -26 546 -26 l 607 -31 q 631 -33 621 -32 q 649 -33 642 -33 q 826 35 746 -33 l 815 68 q 751 39 779 39 q 693 90 715 39 q 689 228 689 119 q 689 343 689 301 q 690 399 689 386 q 700 492 693 444 q 722 589 707 540 l 678 603 m 339 478 q 460 460 407 478 q 547 386 535 433 q 574 308 547 365 q 599 228 600 250 q 597 224 599 225 q 533 307 549 301 q 525 308 532 308 q 500 258 500 308 q 503 215 500 243 q 506 172 506 186 q 494 128 506 142 q 383 81 447 81 q 208 143 275 81 q 140 314 140 207 q 206 433 140 386 q 267 467 233 457 q 339 478 301 478 m 376 797 q 351 857 376 832 q 289 882 325 882 q 227 858 253 882 q 200 797 201 833 q 249 708 197 708 q 269 709 256 708 q 289 710 283 710 q 351 735 325 710 q 376 797 376 761 m 633 797 q 547 882 633 882 q 483 858 507 882 q 458 797 458 833 q 483 733 458 757 q 547 710 507 710 q 608 735 582 710 q 633 797 633 761 m 614 819 l 575 790 l 586 743 l 543 768 l 500 744 l 514 790 l 475 822 l 525 825 l 544 867 l 564 824 l 614 819 m 357 819 l 318 790 l 328 743 l 286 768 l 243 744 l 257 790 l 218 822 l 268 825 l 289 867 l 307 824 l 357 819 m 557 503 q 554 504 556 503 q 553 506 553 506 q 554 517 553 510 q 558 538 556 525 q 558 526 558 535 q 557 503 558 518 z "},"å":{"ha":875,"x_min":7,"x_max":826,"o":"m 678 603 q 558 544 614 564 q 553 544 556 544 q 549 543 551 543 l 549 510 q 406 567 488 567 q 139 474 261 567 q 7 233 7 375 q 94 50 7 117 q 293 -15 176 -15 q 542 136 500 -15 q 586 -26 546 -26 l 607 -31 q 631 -33 621 -32 q 649 -33 642 -33 q 826 35 746 -33 l 815 68 q 751 39 779 39 q 693 90 715 39 q 689 228 689 119 q 689 343 689 301 q 690 399 689 386 q 700 492 693 444 q 722 589 707 540 l 678 603 m 339 478 q 460 460 407 478 q 547 386 535 433 q 574 308 547 365 q 599 228 600 250 q 597 224 599 225 q 533 307 549 301 q 525 308 532 308 q 500 258 500 308 q 503 215 500 243 q 506 172 506 186 q 494 128 506 142 q 383 81 447 81 q 208 143 275 81 q 140 314 140 207 q 206 433 140 386 q 267 467 233 457 q 339 478 301 478 m 551 728 q 574 794 574 758 q 524 892 574 854 q 417 925 478 925 q 310 892 357 925 q 260 794 260 854 q 310 697 260 735 q 417 664 356 664 q 551 728 508 664 m 417 856 q 468 840 444 856 q 493 794 493 821 q 468 751 493 765 q 417 736 444 736 q 367 751 390 736 q 340 794 340 769 q 365 840 340 821 q 417 856 389 856 m 557 503 q 554 504 556 503 q 553 506 553 506 q 554 517 553 510 q 558 538 556 525 q 558 526 558 535 q 557 503 558 518 z "},"æ":{"ha":1343,"x_min":7,"x_max":1293,"o":"m 849 292 l 907 283 q 960 278 929 279 q 1031 276 990 276 q 1290 297 1142 276 l 1286 378 q 990 576 1233 576 q 781 481 864 576 q 700 260 700 388 q 792 51 700 128 q 751 39 771 39 q 693 90 715 39 q 689 228 689 119 q 689 343 689 301 q 690 399 689 386 q 700 492 693 444 q 722 589 707 540 l 678 603 q 558 547 617 565 l 549 543 q 549 524 549 532 q 550 508 549 515 q 406 567 489 567 q 139 474 261 567 q 7 233 7 375 q 94 50 7 117 q 293 -15 176 -15 q 542 136 500 -15 q 586 -26 546 -26 l 607 -31 q 631 -33 621 -32 q 649 -33 642 -33 q 819 31 740 -33 q 894 -1 854 8 q 982 -11 935 -11 q 1063 -1 1021 -11 q 1150 31 1104 8 q 1230 73 1194 50 q 1293 125 1265 96 l 1239 135 q 1053 75 1136 75 q 881 140 938 75 q 853 207 857 168 l 849 292 m 339 478 q 460 460 407 478 q 547 386 535 433 q 574 308 547 365 q 599 228 600 250 q 597 224 599 225 q 533 307 549 301 q 525 308 532 308 q 500 258 500 308 q 503 215 500 243 q 506 172 506 186 q 494 128 506 142 q 383 81 447 81 q 208 143 275 81 q 140 314 140 207 q 206 433 140 386 q 267 467 233 457 q 339 478 301 478 m 1164 360 q 1124 356 1151 357 q 1053 357 1096 356 q 1022 360 1039 358 q 983 368 1004 363 q 951 378 953 376 l 850 357 q 999 481 871 481 q 1056 486 1024 481 q 1090 489 1079 492 q 1164 360 1143 458 m 557 503 l 553 507 q 558 525 556 513 q 558 517 558 522 q 557 503 558 513 m 951 378 l 958 381 q 951 378 953 381 z "},"ç":{"ha":658,"x_min":7,"x_max":610,"o":"m 465 -281 q 511 -185 511 -239 q 361 -64 511 -114 l 367 -26 q 608 64 485 -22 q 597 72 610 68 q 576 75 576 75 q 581 88 576 76 q 585 103 585 100 q 581 111 585 108 q 406 60 469 60 q 293 85 353 60 q 147 301 147 146 q 306 472 147 472 q 317 469 308 472 q 335 460 326 465 q 353 452 344 456 q 364 449 361 449 q 367 451 367 449 q 368 453 368 450 q 365 460 367 456 q 357 472 363 464 q 350 486 350 482 q 353 490 350 490 q 357 489 356 490 l 368 483 q 433 432 418 438 l 431 494 l 431 497 q 525 415 436 493 q 536 428 532 415 q 589 490 549 476 q 607 500 607 497 q 510 556 607 531 q 385 576 431 576 q 218 533 308 576 q 135 483 172 513 q 69 417 99 453 q 7 242 7 338 q 69 64 7 119 q 200 -6 119 19 q 237 -15 219 -10 q 274 -22 254 -19 q 267 -39 267 -36 q 237 -92 256 -65 q 193 -151 218 -119 q 390 -208 390 -160 q 265 -282 390 -264 q 165 -286 232 -286 l 165 -351 q 201 -353 186 -351 q 222 -357 215 -354 q 286 -367 251 -367 q 465 -281 369 -367 z "},"è":{"ha":651,"x_min":7,"x_max":601,"o":"m 156 278 l 214 269 q 267 265 236 267 q 336 264 297 264 q 458 268 393 264 q 597 283 522 272 l 593 365 q 299 564 540 564 q 86 467 171 564 q 7 247 7 375 q 86 49 7 124 q 289 -25 167 -25 q 457 17 363 -25 q 601 111 544 54 l 547 122 q 360 61 440 61 q 189 126 243 61 q 160 193 161 156 l 156 278 m 469 349 q 360 343 446 340 q 290 356 332 346 q 258 365 263 361 l 158 343 q 306 468 179 468 q 331 469 317 468 q 361 474 344 471 q 397 475 388 478 q 469 349 451 447 m 315 733 l 443 733 q 399 768 419 744 q 360 828 379 792 q 318 903 322 901 l 165 907 q 244 817 204 888 q 284 760 267 781 q 315 733 301 740 m 265 367 l 258 365 q 265 367 258 367 z "},"é":{"ha":651,"x_min":7,"x_max":601,"o":"m 156 278 l 214 269 q 267 265 236 267 q 336 264 297 264 q 458 268 393 264 q 597 283 522 272 l 593 365 q 299 564 540 564 q 86 467 171 564 q 7 247 7 375 q 86 49 7 124 q 289 -25 167 -25 q 457 17 363 -25 q 601 111 544 54 l 547 122 q 360 61 440 61 q 189 126 243 61 q 160 193 161 156 l 156 278 m 469 349 q 360 343 446 340 q 290 356 332 346 q 258 365 263 361 l 158 343 q 306 468 179 468 q 331 469 317 468 q 361 474 344 471 q 397 475 388 478 q 469 349 451 447 m 293 733 q 361 817 321 746 q 443 907 403 888 l 290 903 q 250 828 286 899 q 165 733 211 756 l 293 733 m 265 367 l 258 365 q 265 367 258 367 z "},"ê":{"ha":651,"x_min":7,"x_max":601,"o":"m 156 278 l 214 269 q 267 265 236 267 q 336 264 297 264 q 458 268 393 264 q 597 283 522 272 l 593 365 q 299 564 540 564 q 86 467 171 564 q 7 247 7 375 q 86 49 7 124 q 289 -25 167 -25 q 457 17 363 -25 q 601 111 544 54 l 547 122 q 360 61 440 61 q 189 126 243 61 q 160 193 161 156 l 156 278 m 419 700 l 549 700 q 494 772 536 735 q 473 792 490 776 q 425 831 456 807 l 328 953 l 285 953 q 213 869 239 901 q 176 824 186 838 q 151 799 168 814 q 111 764 135 785 q 60 700 72 726 l 193 700 q 232 786 225 781 q 269 815 251 801 q 306 842 286 828 q 343 819 325 831 q 378 797 361 808 q 403 745 393 769 q 419 700 413 721 m 469 349 q 360 343 446 340 q 290 356 332 346 q 258 365 263 361 l 158 343 q 306 468 179 468 q 331 469 317 468 q 361 474 344 471 q 397 475 388 478 q 469 349 451 447 m 265 367 l 258 365 q 265 367 258 367 z "},"ë":{"ha":651,"x_min":7,"x_max":601,"o":"m 156 278 l 214 269 q 267 265 236 267 q 336 264 297 264 q 458 268 393 264 q 597 283 522 272 l 593 365 q 299 564 540 564 q 86 467 171 564 q 7 247 7 375 q 86 49 7 124 q 289 -25 167 -25 q 457 17 363 -25 q 601 111 544 54 l 547 122 q 360 61 440 61 q 189 126 243 61 q 160 193 161 156 l 156 278 m 469 349 q 360 343 446 340 q 290 356 332 346 q 258 365 263 361 l 158 343 q 306 468 179 468 q 331 469 317 468 q 361 474 344 471 q 397 475 388 478 q 469 349 451 447 m 264 797 q 238 857 264 832 q 176 882 213 882 q 115 857 140 882 q 89 797 89 832 q 136 708 85 708 q 156 709 143 708 q 176 710 169 710 q 238 735 213 710 q 264 797 264 761 m 522 797 q 433 882 522 882 q 371 857 397 882 q 344 797 344 832 q 371 735 344 761 q 433 710 397 710 q 496 735 469 710 q 522 797 522 761 m 501 819 l 464 790 l 474 743 l 432 768 l 389 744 l 400 790 l 364 822 l 414 825 l 433 867 l 451 824 l 501 819 m 243 819 l 206 790 l 217 743 l 174 768 l 131 744 l 143 790 l 106 822 l 156 825 l 175 867 l 193 824 l 243 819 m 265 367 l 258 365 q 265 367 258 367 z "},"ì":{"ha":408,"x_min":7,"x_max":358,"o":"m 7 -22 l 358 -14 l 331 42 q 324 43 325 42 q 326 44 325 43 l 318 44 q 265 58 269 51 q 253 243 253 100 q 254 297 253 269 q 257 353 256 325 q 267 482 260 428 q 285 569 275 536 q 242 578 256 578 q 40 485 138 507 q 10 453 10 479 q 67 426 10 432 q 88 424 79 425 q 100 424 96 424 q 108 333 106 372 q 114 268 111 294 l 132 183 q 110 85 110 126 q 76 40 106 51 q 60 39 75 40 q 17 35 46 38 l 7 -22 m 189 733 l 318 733 q 232 828 271 756 q 192 903 197 900 l 39 907 q 118 817 78 888 q 189 733 161 746 z "},"í":{"ha":408,"x_min":7,"x_max":358,"o":"m 7 -22 l 17 35 q 60 39 46 38 q 76 40 75 40 q 110 85 106 50 q 132 183 110 129 l 114 268 q 108 333 111 294 q 100 424 106 372 q 88 424 96 424 q 67 426 79 425 q 10 453 10 433 q 40 485 10 479 q 242 578 139 508 q 285 569 256 578 q 267 482 275 536 q 257 353 260 428 q 254 297 256 325 q 253 243 253 269 q 265 58 253 100 q 318 44 271 50 l 326 44 q 324 43 325 43 q 331 42 325 42 l 358 -14 l 7 -22 m 167 733 l 39 733 q 124 828 85 756 q 165 903 161 900 l 318 907 q 235 817 279 889 q 167 733 196 747 z "},"î":{"ha":544,"x_min":7,"x_max":494,"o":"m 81 -22 l 90 35 q 133 39 118 38 q 150 40 149 40 q 183 85 179 50 q 206 183 183 129 l 186 268 q 174 424 185 321 q 161 424 169 424 q 140 426 153 425 q 85 453 85 432 q 114 485 85 478 q 315 578 211 507 q 358 569 329 578 q 340 481 347 535 q 331 353 333 428 q 326 243 326 296 q 339 58 326 100 q 392 44 344 50 l 400 44 q 397 43 399 43 q 403 42 399 42 l 432 -14 l 81 -22 m 367 700 q 325 797 353 739 q 288 819 306 808 q 251 842 271 831 q 215 815 232 828 q 178 786 197 801 q 140 700 171 779 l 7 700 q 58 764 21 726 q 100 799 83 785 q 124 824 117 814 q 158 869 132 838 q 232 953 185 901 l 275 953 l 372 831 l 443 772 q 494 700 475 747 l 367 700 z "},"ï":{"ha":490,"x_min":4,"x_max":440,"o":"m 53 -22 l 406 -14 l 376 42 q 368 43 369 42 q 372 44 369 43 l 364 44 q 311 58 317 49 q 299 243 299 100 q 299 302 299 275 q 301 353 300 329 q 332 569 313 504 q 286 578 300 578 q 85 485 182 507 q 57 453 57 478 q 114 426 57 432 q 133 424 125 425 q 144 424 142 424 q 153 333 150 372 q 160 268 157 294 l 178 183 q 167 138 171 157 q 160 103 163 118 q 124 40 147 46 q 105 39 119 40 q 64 35 90 38 l 53 -22 m 183 797 q 157 857 183 832 q 94 882 131 882 q 34 857 60 882 q 7 797 8 832 q 56 708 4 708 q 76 709 63 708 q 94 710 90 710 q 157 735 131 710 q 183 797 183 761 m 440 797 q 353 882 440 882 q 290 857 317 882 q 264 797 264 832 q 290 735 264 761 q 353 710 317 710 q 415 735 389 710 q 440 797 440 761 m 419 819 l 382 790 l 393 743 l 350 768 l 307 744 l 319 790 l 282 822 l 332 825 l 351 867 l 369 824 l 419 819 m 164 819 l 125 790 l 135 743 l 93 768 l 50 744 l 64 790 l 25 822 l 75 825 l 94 867 l 114 824 l 164 819 z "},"ð":{"ha":797,"x_min":7,"x_max":747,"o":"m 747 349 q 508 797 747 621 l 608 844 q 594 910 589 863 q 603 968 603 960 l 394 867 q 274 917 340 894 q 131 960 208 940 l 101 903 q 299 818 215 865 l 185 764 q 199 694 211 744 q 189 640 189 656 l 406 747 q 451 700 431 724 q 492 653 472 676 q 586 374 586 524 q 447 75 586 163 q 333 39 389 39 q 200 93 250 39 q 151 228 151 146 q 211 400 151 325 q 372 478 274 478 q 461 417 417 478 q 494 365 481 390 q 515 314 508 340 q 549 375 546 315 l 536 393 q 523 418 533 399 q 493 474 513 438 q 386 561 450 540 q 303 569 358 569 q 94 494 178 569 q 7 293 7 417 q 60 131 7 207 q 367 -28 168 -28 q 640 75 531 -28 q 747 349 747 179 z "},"ñ":{"ha":882,"x_min":7,"x_max":832,"o":"m 661 -10 q 747 -12 704 -10 q 832 -19 789 -15 l 828 35 q 776 47 800 42 q 733 57 753 53 q 736 93 732 58 q 740 130 739 113 q 742 167 742 147 q 735 228 742 210 l 710 303 q 708 319 708 311 q 707 333 707 326 q 709 353 707 340 q 713 381 711 367 q 717 409 715 396 q 719 431 719 422 q 653 532 719 497 q 531 558 601 558 q 272 486 433 558 q 233 567 268 567 q 185 550 224 567 q 99 500 164 540 q 74 469 83 483 q 57 444 64 456 q 60 440 60 442 q 58 436 60 439 q 57 433 57 433 q 106 435 106 431 q 128 303 128 428 q 110 74 128 100 q 7 44 97 57 l 11 -8 l 218 -8 q 382 -17 269 -8 l 386 42 q 275 64 285 50 q 267 239 264 76 l 272 417 q 472 461 378 461 q 583 381 571 461 q 588 336 586 361 q 589 278 589 311 q 569 69 589 104 q 468 35 558 54 l 468 -19 q 577 -12 529 -15 q 661 -10 625 -10 m 617 786 q 632 910 632 836 l 599 910 q 585 826 597 854 q 535 783 568 783 l 526 783 l 519 782 q 513 779 517 781 q 503 781 508 778 q 453 826 483 782 q 303 911 401 911 q 231 844 258 911 q 206 692 207 799 l 239 692 q 303 815 254 815 l 318 815 q 383 774 361 814 q 474 686 425 699 q 494 685 482 685 q 519 690 506 686 q 531 692 525 692 q 617 786 589 692 z "},"ò":{"ha":794,"x_min":7,"x_max":744,"o":"m 699 126 q 744 276 744 194 q 628 490 744 408 q 389 565 525 565 q 242 543 310 565 q 76 444 139 514 q 7 268 7 368 q 68 99 7 164 q 381 -25 181 -25 q 699 126 597 -25 m 439 422 q 486 351 465 378 q 526 315 507 325 q 557 298 546 304 q 572 289 568 292 q 587 269 582 279 q 592 244 592 260 q 538 98 592 153 q 389 43 483 43 q 218 125 286 43 q 157 307 157 199 q 208 444 157 394 q 344 493 260 493 q 394 476 372 493 q 439 422 417 458 m 389 733 l 517 733 q 432 828 471 756 q 390 903 394 900 l 236 907 q 317 817 276 886 q 389 733 357 747 z "},"ó":{"ha":794,"x_min":7,"x_max":744,"o":"m 699 126 q 744 276 744 194 q 628 490 744 408 q 389 565 525 565 q 242 543 310 565 q 76 444 139 514 q 7 268 7 368 q 68 99 7 164 q 381 -25 181 -25 q 699 126 597 -25 m 439 422 q 486 351 465 378 q 526 315 507 325 q 557 298 546 304 q 572 289 568 292 q 587 269 582 279 q 592 244 592 260 q 538 98 592 153 q 389 43 483 43 q 218 125 286 43 q 157 307 157 199 q 208 444 157 394 q 344 493 260 493 q 394 476 372 493 q 439 422 417 458 m 365 733 q 433 817 393 746 q 476 875 454 853 q 517 907 497 897 l 361 903 q 322 828 361 903 q 236 733 285 757 l 365 733 z "},"ô":{"ha":794,"x_min":7,"x_max":744,"o":"m 699 126 q 744 276 744 194 q 628 490 744 408 q 389 565 525 565 q 242 543 310 565 q 76 444 139 514 q 7 268 7 368 q 68 99 7 164 q 381 -25 181 -25 q 699 126 597 -25 m 439 422 q 486 351 465 378 q 526 315 507 325 q 557 298 546 304 q 572 289 568 292 q 587 269 582 279 q 592 244 592 260 q 538 98 592 153 q 389 43 483 43 q 218 125 286 43 q 157 307 157 199 q 208 444 157 394 q 344 493 260 493 q 394 476 372 493 q 439 422 417 458 m 492 700 l 619 700 q 599 739 611 721 q 567 772 586 757 l 497 831 l 400 953 l 357 953 q 249 824 263 850 q 225 799 242 814 q 183 764 208 785 q 151 729 164 744 q 132 700 139 714 l 264 700 q 303 786 294 778 q 340 815 322 801 q 376 842 357 828 q 413 819 396 831 q 450 797 431 808 q 474 745 464 769 q 492 700 485 721 z "},"õ":{"ha":794,"x_min":7,"x_max":744,"o":"m 699 126 q 744 276 744 194 q 628 490 744 408 q 389 565 525 565 q 242 543 310 565 q 76 444 139 514 q 7 268 7 368 q 68 99 7 164 q 381 -25 181 -25 q 699 126 597 -25 m 439 422 q 486 351 465 378 q 526 315 507 325 q 557 298 546 304 q 572 289 568 292 q 587 269 582 279 q 592 244 592 260 q 538 98 592 153 q 389 43 483 43 q 218 125 286 43 q 157 307 157 199 q 208 444 157 394 q 344 493 260 493 q 394 476 372 493 q 439 422 417 458 m 575 786 q 585 840 582 810 q 590 910 589 871 l 556 910 q 550 860 553 882 q 542 826 547 839 q 493 783 525 783 l 485 783 l 478 782 q 470 779 475 781 q 460 781 465 778 q 411 826 438 782 q 261 911 360 911 q 186 844 217 911 q 171 783 176 821 q 164 692 165 746 l 197 692 q 260 815 210 815 l 276 815 q 340 774 318 814 q 431 686 382 699 q 451 685 439 685 q 478 690 463 686 q 486 692 482 692 q 575 786 547 692 z "},"ö":{"ha":794,"x_min":7,"x_max":744,"o":"m 699 126 q 744 276 744 194 q 628 490 744 408 q 389 565 525 565 q 242 543 310 565 q 76 444 139 514 q 7 268 7 368 q 68 99 7 164 q 381 -25 181 -25 q 699 126 597 -25 m 439 422 q 486 351 465 378 q 526 315 507 325 q 557 298 546 304 q 572 289 568 292 q 587 269 582 279 q 592 244 592 260 q 538 98 592 153 q 389 43 483 43 q 218 125 286 43 q 157 307 157 199 q 208 444 157 394 q 344 493 260 493 q 394 476 372 493 q 439 422 417 458 m 336 797 q 310 857 336 832 q 249 882 283 882 q 186 858 213 882 q 160 797 160 833 q 208 708 157 708 q 228 709 215 708 q 249 710 242 710 q 310 735 283 710 q 336 797 336 761 m 593 797 q 506 882 593 882 q 443 858 469 882 q 417 797 417 833 q 443 733 417 757 q 506 710 469 710 q 567 735 542 710 q 593 797 593 761 m 317 819 l 278 790 l 289 743 l 247 768 l 203 744 l 215 790 l 178 822 l 228 825 l 249 867 l 267 824 l 317 819 m 574 819 l 535 790 l 544 743 l 503 768 l 460 744 l 474 790 l 435 822 l 485 825 l 506 867 l 524 824 l 574 819 z "},"÷":{"ha":694,"x_min":7,"x_max":644,"o":"m 7 442 l 594 442 q 592 458 592 453 q 611 506 592 475 q 644 556 642 547 l 57 556 q 61 535 61 544 q 40 486 61 513 q 18 458 26 469 q 7 442 10 447 m 481 772 l 375 819 l 326 925 l 278 819 l 174 772 l 278 722 l 326 617 l 375 722 l 481 772 m 481 222 l 375 269 l 326 375 l 278 269 l 174 222 l 278 172 l 326 68 l 375 172 l 481 222 z "},"ø":{"ha":808,"x_min":7,"x_max":758,"o":"m 707 126 q 751 276 751 199 q 674 458 751 383 l 758 526 l 703 572 l 617 503 q 397 565 521 565 q 140 492 247 565 q 15 267 15 408 q 93 82 15 157 l 7 10 l 60 -35 l 149 39 q 389 -25 257 -25 q 707 126 606 -25 m 353 493 q 522 425 451 493 l 201 168 q 174 235 182 200 q 165 307 165 269 q 217 444 165 394 q 353 493 268 493 m 564 369 q 599 243 599 311 q 544 98 599 153 q 397 43 489 43 q 243 114 311 43 l 564 369 z "},"ù":{"ha":814,"x_min":7,"x_max":764,"o":"m 536 -43 q 594 -56 565 -56 q 764 18 667 -56 l 726 50 q 722 44 724 46 q 718 42 719 43 l 717 50 q 708 58 717 58 l 668 32 q 622 7 626 4 q 619 10 619 8 q 626 20 622 13 q 642 42 631 28 l 661 65 q 652 117 654 86 q 650 193 650 149 q 651 232 650 208 q 653 290 651 256 l 674 589 l 547 528 q 460 508 503 507 l 464 450 q 492 442 496 446 q 510 418 506 438 q 510 183 518 393 q 508 161 508 176 q 507 125 507 146 q 318 69 371 69 q 214 115 232 69 q 189 240 189 163 q 193 347 189 272 q 208 542 197 422 q 176 574 210 574 l 7 489 l 7 424 q 33 433 28 428 l 35 433 q 50 425 47 433 q 54 399 53 414 q 56 365 56 385 l 47 203 q 85 44 43 107 q 226 -26 132 -26 q 508 56 311 -26 q 536 -43 517 10 m 368 733 l 499 733 q 411 828 449 756 q 372 903 378 900 l 218 907 q 299 817 256 888 q 368 733 339 747 z "},"ú":{"ha":814,"x_min":7,"x_max":764,"o":"m 536 -43 q 594 -56 565 -56 q 764 18 667 -56 l 726 50 q 722 44 724 46 q 718 42 719 43 l 717 50 q 708 58 717 58 l 668 32 q 622 7 626 4 q 619 10 619 8 q 626 20 622 13 q 642 42 631 28 l 661 65 q 652 117 654 86 q 650 193 650 149 q 651 232 650 208 q 653 290 651 256 l 674 589 l 547 528 q 460 508 503 507 l 464 450 q 492 442 496 446 q 510 418 506 438 q 510 183 518 393 q 508 161 508 176 q 507 125 507 146 q 318 69 371 69 q 214 115 232 69 q 189 240 189 163 q 193 347 189 272 q 208 542 197 422 q 176 574 210 574 l 7 489 l 7 424 q 33 433 28 428 l 35 433 q 50 425 47 433 q 54 399 53 414 q 56 365 56 385 l 47 203 q 85 44 43 107 q 226 -26 132 -26 q 508 56 311 -26 q 536 -43 517 10 m 347 733 q 415 817 372 744 q 458 875 436 853 q 499 907 479 897 l 343 903 q 301 828 339 900 q 218 733 265 756 l 347 733 z "},"û":{"ha":814,"x_min":7,"x_max":764,"o":"m 536 -43 q 594 -56 565 -56 q 764 18 667 -56 l 726 50 q 722 44 724 46 q 718 42 719 43 l 717 50 q 708 58 717 58 l 668 32 q 622 7 626 4 q 619 10 619 8 q 626 20 622 13 q 642 42 631 28 l 661 65 q 652 117 654 86 q 650 193 650 149 q 651 232 650 208 q 653 290 651 256 l 674 589 l 547 528 q 460 508 503 507 l 464 450 q 492 442 496 446 q 510 418 506 438 q 510 183 518 393 q 508 161 508 176 q 507 125 507 146 q 318 69 371 69 q 214 115 232 69 q 189 240 189 163 q 193 347 189 272 q 208 542 197 422 q 176 574 210 574 l 7 489 l 7 424 q 33 433 28 428 l 35 433 q 50 425 47 433 q 54 399 53 414 q 56 365 56 385 l 47 203 q 85 44 43 107 q 226 -26 132 -26 q 508 56 311 -26 q 536 -43 517 10 m 474 700 l 601 700 q 581 739 593 721 q 549 772 568 757 l 478 831 l 382 953 l 339 953 q 265 869 292 901 q 228 824 238 838 q 165 764 215 807 q 114 700 126 726 l 244 700 q 285 786 278 779 q 322 815 304 801 q 358 842 339 828 q 395 819 378 831 q 432 797 413 808 q 456 745 446 769 q 474 700 467 721 z "},"ü":{"ha":814,"x_min":7,"x_max":764,"o":"m 536 -43 q 594 -56 565 -56 q 764 18 667 -56 l 726 50 q 722 44 724 46 q 718 42 719 43 l 717 50 q 708 58 717 58 l 668 32 q 622 7 626 4 q 619 10 619 8 q 626 20 622 13 q 642 42 631 28 l 661 65 q 652 117 654 86 q 650 193 650 149 q 651 232 650 208 q 653 290 651 256 l 674 589 l 547 528 q 460 508 503 507 l 464 450 q 492 442 496 446 q 510 418 506 438 q 510 183 518 393 q 508 161 508 176 q 507 125 507 146 q 318 69 371 69 q 214 115 232 69 q 189 240 189 163 q 193 347 189 272 q 208 542 197 422 q 176 574 210 574 l 7 489 l 7 424 q 33 433 28 428 l 35 433 q 50 425 47 433 q 54 399 53 414 q 56 365 56 385 l 47 203 q 85 44 43 107 q 226 -26 132 -26 q 508 56 311 -26 q 536 -43 517 10 m 318 797 q 292 857 318 832 q 231 882 265 882 q 168 858 194 882 q 142 797 142 833 q 190 708 139 708 q 210 709 197 708 q 231 710 224 710 q 292 735 265 710 q 318 797 318 761 m 575 797 q 486 882 575 882 q 424 858 450 882 q 399 797 399 833 q 424 733 399 757 q 486 710 450 710 q 549 735 522 710 q 575 797 575 761 m 556 819 l 517 790 l 526 743 l 485 768 l 442 744 l 453 790 l 417 822 l 467 825 l 486 867 l 506 824 l 556 819 m 299 819 l 258 790 l 269 743 l 228 768 l 183 744 l 197 790 l 160 822 l 208 825 l 228 867 l 249 824 l 299 819 z "},"ý":{"ha":781,"x_min":7,"x_max":731,"o":"m 703 44 l 731 560 l 460 508 l 464 450 q 517 447 496 449 q 549 442 538 446 q 567 418 563 438 q 567 183 575 393 q 565 161 565 176 q 564 125 564 146 q 375 69 425 69 q 268 115 290 69 q 244 240 244 165 q 265 542 244 304 q 233 574 267 574 l 7 474 l 15 428 q 57 439 44 439 q 81 435 72 436 q 90 433 90 433 q 107 425 104 433 q 110 365 111 400 l 103 203 q 142 44 100 106 q 283 -26 189 -26 q 557 51 361 -26 q 548 -61 554 -11 q 533 -150 542 -111 q 376 -285 499 -285 q 313 -275 357 -285 q 193 -243 268 -265 q 142 -267 167 -243 q 118 -318 118 -292 q 186 -374 118 -353 q 235 -383 210 -381 q 285 -385 260 -385 q 501 -319 381 -385 q 660 -169 611 -265 q 703 44 696 -96 m 358 733 q 426 817 386 746 q 508 907 469 889 l 356 903 q 314 828 351 901 q 228 733 276 757 l 358 733 z "},"þ":{"ha":867,"x_min":6,"x_max":817,"o":"m 765 131 q 817 285 817 192 q 728 483 817 406 q 522 558 644 558 q 393 532 450 558 q 285 415 310 493 l 274 897 q 265 957 269 933 q 257 992 260 981 q 174 932 235 968 q 83 892 108 892 q 53 879 72 888 q 6 857 33 871 l 24 806 q 77 822 58 817 q 99 828 96 828 q 142 785 132 828 q 143 748 142 782 q 145 663 144 714 q 147 552 146 613 q 148 436 147 492 q 149 336 149 381 q 150 274 150 292 q 151 140 151 193 q 151 61 151 89 l 149 -149 q 146 -201 149 -182 q 140 -225 143 -219 l 128 -232 q 106 -243 122 -243 q 96 -243 101 -243 q 89 -242 92 -243 l 40 -226 q 46 -255 43 -240 q 50 -285 49 -269 q 238 -347 156 -319 q 378 -394 319 -374 q 414 -403 400 -403 q 433 -385 433 -403 q 375 -332 431 -354 q 317 -306 338 -315 q 294 -294 297 -297 q 282 -218 279 -283 l 285 -142 l 289 -6 q 400 -19 349 -19 q 444 -17 419 -19 q 501 -8 469 -15 q 765 131 679 25 m 558 433 q 683 224 683 350 q 649 128 683 164 q 572 74 614 92 q 475 57 529 57 q 410 68 457 57 q 285 100 364 79 l 286 349 q 378 453 319 421 q 443 472 413 472 q 501 463 472 472 q 558 433 529 453 z "},"ÿ":{"ha":781,"x_min":7,"x_max":731,"o":"m 703 44 l 731 560 l 460 508 l 464 450 q 517 447 496 449 q 549 442 538 446 q 567 418 563 438 q 567 183 575 393 q 565 161 565 176 q 564 125 564 146 q 375 69 425 69 q 268 115 290 69 q 244 240 244 165 q 265 542 244 304 q 233 574 267 574 l 7 474 l 15 428 q 57 439 44 439 q 81 435 72 436 q 90 433 90 433 q 107 425 104 433 q 110 365 111 400 l 103 203 q 142 44 100 106 q 283 -26 189 -26 q 557 51 361 -26 q 548 -61 554 -11 q 533 -150 542 -111 q 376 -285 499 -285 q 313 -275 357 -285 q 193 -243 268 -265 q 142 -267 167 -243 q 118 -318 118 -292 q 186 -374 118 -353 q 235 -383 210 -381 q 285 -385 260 -385 q 501 -319 381 -385 q 660 -169 611 -265 q 703 44 696 -96 m 328 797 q 302 857 328 832 q 240 882 276 882 q 178 857 204 882 q 151 797 153 832 q 200 708 149 708 q 220 709 207 708 q 240 710 233 710 q 302 735 276 710 q 328 797 328 761 m 585 797 q 499 882 585 882 q 435 857 463 882 q 408 797 408 832 q 435 735 408 761 q 499 710 463 710 q 559 735 533 710 q 585 797 585 761 m 308 819 l 269 790 l 281 743 l 239 768 l 194 744 l 208 790 l 169 822 l 219 825 l 240 867 l 258 824 l 308 819 m 565 819 l 526 790 l 536 743 l 494 768 l 451 744 l 465 790 l 426 822 l 476 825 l 497 867 l 515 824 l 565 819 z "},"€":{"ha":1082,"x_min":7,"x_max":1032,"o":"m 992 122 q 1013 165 1003 146 q 1032 200 1022 183 q 1026 208 1032 208 q 1010 201 1025 208 q 989 194 996 194 q 979 198 985 194 q 969 201 974 201 q 944 182 957 201 q 851 90 900 119 q 653 40 774 40 q 365 135 508 40 q 236 272 278 192 l 699 272 q 697 279 697 275 q 697 289 697 285 q 701 309 697 297 q 717 335 706 321 q 739 369 731 357 q 749 385 747 382 l 199 385 q 193 425 194 404 q 192 468 192 446 l 192 499 l 764 499 q 761 514 761 503 q 782 561 761 533 q 803 595 796 583 q 814 610 811 607 l 203 610 q 311 772 228 738 l 457 842 q 618 883 538 883 q 775 860 681 883 q 863 829 829 846 q 911 793 896 813 q 922 742 918 783 q 939 703 925 714 q 982 692 949 696 l 982 706 q 979 742 982 719 q 976 781 976 765 q 1032 893 976 854 q 1000 911 1010 914 q 985 910 993 911 q 967 908 978 910 q 936 910 953 908 q 900 919 919 913 q 657 957 772 957 q 357 907 494 957 q 215 838 278 878 q 107 744 153 797 q 7 468 7 628 q 206 97 7 238 q 622 -28 382 -28 q 1024 40 750 -28 q 1028 69 1028 57 q 1010 110 1028 96 q 998 117 1003 115 q 992 122 993 119 z "},"ż":{"ha":747,"x_min":7,"x_max":747,"o":"m 669 -28 q 668 -15 668 -21 q 668 -3 668 -10 q 732 178 668 85 l 672 178 q 615 92 651 115 q 390 50 554 50 q 322 51 354 50 q 260 53 289 51 l 507 294 q 747 543 654 438 l 333 543 q 224 544 267 543 q 161 549 182 546 q 114 558 129 551 l 65 578 q 50 482 68 525 q 18 393 42 435 l 78 393 q 182 467 101 450 q 315 475 221 475 l 482 475 q 232 213 350 328 q 7 15 114 99 l 33 -28 q 119 -22 76 -25 q 203 -19 161 -19 l 522 -18 q 573 -19 544 -18 q 636 -25 601 -21 q 651 -27 643 -26 q 669 -28 658 -28 m 526 729 l 422 778 l 374 882 l 325 778 l 219 729 l 325 681 l 374 575 l 422 681 l 526 729 z "},"ū":{"ha":765,"x_min":7,"x_max":764,"o":"m 536 -43 q 594 -56 565 -56 q 764 18 667 -56 l 726 50 q 722 44 724 46 q 718 42 719 43 l 717 50 q 708 58 717 58 l 668 32 q 622 7 626 4 q 619 10 619 8 q 626 20 622 13 q 642 42 631 28 l 661 65 q 652 117 654 86 q 650 193 650 149 q 651 232 650 208 q 653 290 651 256 l 674 589 l 547 528 q 460 508 503 507 l 464 450 q 492 442 496 446 q 510 418 506 438 q 510 183 518 393 q 508 161 508 176 q 507 125 507 146 q 318 69 371 69 q 214 115 232 69 q 189 240 189 163 q 193 347 189 272 q 208 542 197 422 q 176 574 210 574 l 7 489 l 7 424 q 33 433 28 428 l 35 433 q 50 425 47 433 q 54 399 53 414 q 56 365 56 385 l 47 203 q 85 44 43 107 q 226 -26 132 -26 q 508 56 311 -26 q 536 -43 517 10 m 99 649 l 625 649 l 625 738 l 99 738 l 99 649 z "},"ś":{"ha":601,"x_min":7,"x_max":551,"o":"m 486 40 q 551 157 551 71 q 486 285 551 233 q 351 356 444 321 q 260 392 294 376 q 215 418 226 408 q 200 453 200 431 q 292 524 200 524 q 324 513 296 524 q 407 481 353 501 q 422 476 413 476 q 435 492 435 476 q 433 507 435 501 l 526 415 q 486 558 486 504 q 486 571 486 565 q 489 582 486 576 q 324 594 368 594 q 183 568 244 594 q 53 414 53 511 q 115 310 53 353 q 226 257 150 285 q 296 228 268 240 q 340 207 324 215 q 407 117 407 167 q 375 68 407 81 q 293 56 333 56 q 190 78 242 56 q 117 118 126 111 q 94 160 94 132 q 69 150 83 150 q 7 190 43 150 q 19 166 10 179 q 42 133 28 153 q 60 90 60 104 l 69 72 q 82 47 82 53 q 31 10 82 24 q 166 -18 113 -10 q 249 -26 219 -26 q 363 -10 304 -26 q 486 40 422 6 m 318 672 q 389 756 344 685 q 469 846 432 829 l 317 843 q 275 768 313 840 q 190 672 238 694 l 318 672 z "},"ō":{"ha":794,"x_min":28,"x_max":765,"o":"m 719 126 q 765 276 765 194 q 649 490 765 408 q 410 565 546 565 q 263 543 331 565 q 97 444 160 514 q 28 268 28 368 q 89 99 28 164 q 401 -25 201 -25 q 719 126 618 -25 m 460 422 q 507 351 486 378 q 547 315 528 325 q 578 298 567 304 q 593 289 589 292 q 608 269 603 279 q 613 244 613 260 q 558 98 613 153 q 410 43 504 43 q 239 125 307 43 q 178 307 178 199 q 229 444 178 394 q 365 493 281 493 q 415 476 393 493 q 460 422 438 458 m 136 625 l 663 625 l 663 714 l 136 714 l 136 625 z "},"ņ":{"ha":836,"x_min":7,"x_max":832,"o":"m 661 -10 q 747 -12 704 -10 q 832 -19 789 -15 l 828 35 q 776 47 800 42 q 733 57 753 53 q 736 93 732 58 q 740 130 739 113 q 742 167 742 147 q 735 228 742 210 l 710 303 q 708 319 708 311 q 707 333 707 326 q 709 353 707 340 q 713 381 711 367 q 717 409 715 396 q 719 431 719 422 q 653 532 719 497 q 531 558 601 558 q 272 486 433 558 q 233 567 268 567 q 185 550 224 567 q 99 500 164 540 q 74 469 83 483 q 57 444 64 456 q 60 440 60 442 q 58 436 60 439 q 57 433 57 433 q 106 435 106 431 q 128 303 128 428 q 110 74 128 100 q 7 44 97 57 l 11 -8 l 218 -8 q 382 -17 269 -8 l 386 42 q 275 64 285 50 q 267 239 264 76 l 272 417 q 472 461 378 461 q 583 381 571 461 q 588 336 586 361 q 589 278 589 311 q 569 69 589 104 q 468 35 558 54 l 468 -19 q 577 -12 529 -15 q 661 -10 625 -10 m 344 -454 q 556 -229 531 -386 q 551 -166 558 -197 q 528 -100 543 -135 q 436 -56 499 -56 q 358 -84 392 -56 q 325 -157 325 -112 q 378 -244 325 -212 l 379 -247 l 386 -249 l 401 -254 q 428 -297 428 -267 q 379 -364 428 -331 q 301 -407 363 -376 l 344 -454 z "},"ń":{"ha":836,"x_min":7,"x_max":832,"o":"m 661 -10 q 747 -12 704 -10 q 832 -19 789 -15 l 828 35 q 776 47 800 42 q 733 57 753 53 q 736 93 732 58 q 740 130 739 113 q 742 167 742 147 q 735 228 742 210 l 710 303 q 708 319 708 311 q 707 333 707 326 q 709 353 707 340 q 713 381 711 367 q 717 409 715 396 q 719 431 719 422 q 653 532 719 497 q 531 558 601 558 q 272 486 433 558 q 233 567 268 567 q 185 550 224 567 q 99 500 164 540 q 74 469 83 483 q 57 444 64 456 q 60 440 60 442 q 58 436 60 439 q 57 433 57 433 q 106 435 106 431 q 128 303 128 428 q 110 74 128 100 q 7 44 97 57 l 11 -8 l 218 -8 q 382 -17 269 -8 l 386 42 q 275 64 285 50 q 267 239 264 76 l 272 417 q 472 461 378 461 q 583 381 571 461 q 588 336 586 361 q 589 278 589 311 q 569 69 589 104 q 468 35 558 54 l 468 -19 q 577 -12 529 -15 q 661 -10 625 -10 m 426 649 q 497 732 453 661 q 578 822 540 806 l 425 819 q 383 744 421 817 q 299 649 346 671 l 426 649 z "},"ļ":{"ha":411,"x_min":7,"x_max":406,"o":"m 186 -14 q 256 -16 201 -14 q 406 -25 311 -18 l 406 36 q 301 68 310 44 q 289 244 289 101 q 293 435 289 347 q 294 493 294 471 q 297 526 294 515 q 314 725 304 644 q 339 851 324 806 l 232 768 q 247 810 247 796 q 231 824 247 824 q 214 819 226 824 q 178 808 201 815 l 81 778 l 81 724 l 76 700 q 92 701 78 701 q 139 690 129 701 q 157 486 164 660 l 143 233 q 138 168 140 194 q 133 125 136 142 q 90 56 125 74 q 7 35 67 43 l 7 -22 q 186 -14 108 -14 m 114 -465 q 325 -240 300 -397 q 320 -177 328 -208 q 297 -111 313 -146 q 206 -67 268 -67 q 128 -95 161 -67 q 94 -168 94 -124 q 147 -256 94 -224 l 149 -258 l 156 -260 l 171 -265 q 197 -308 197 -278 q 149 -375 197 -342 q 71 -418 132 -387 l 114 -465 z "},"ī":{"ha":408,"x_min":-58,"x_max":468,"o":"m 7 -22 l 358 -14 l 331 42 q 324 43 325 42 q 326 44 325 43 l 318 44 q 265 58 269 51 q 253 243 253 100 q 254 297 253 269 q 257 353 256 325 q 267 482 260 428 q 285 569 275 536 q 242 578 256 578 q 40 485 138 507 q 10 453 10 479 q 67 426 10 432 q 88 424 79 425 q 100 424 96 424 q 108 333 106 372 q 114 268 111 294 l 132 183 q 110 85 110 126 q 76 40 106 51 q 60 39 75 40 q 17 35 46 38 l 7 -22 m -58 678 l 468 678 l 468 767 l -58 767 l -58 678 z "},"ķ":{"ha":835,"x_min":7,"x_max":828,"o":"m 540 49 q 494 41 510 43 q 476 39 478 39 l 476 -19 q 649 -15 553 -15 l 717 -15 q 773 -17 746 -15 q 828 -22 800 -18 l 828 40 q 735 68 776 46 q 679 105 715 79 q 590 175 643 131 l 383 339 l 510 408 q 644 469 582 447 q 758 494 706 492 l 719 542 q 694 544 710 542 q 660 549 678 546 q 627 553 643 551 q 601 556 611 556 l 389 557 l 389 501 q 453 485 453 497 q 368 411 453 465 q 313 377 340 392 q 258 349 285 363 q 267 590 267 567 l 268 722 q 290 850 268 792 l 231 850 q 213 834 222 842 q 193 824 204 826 q 97 782 118 788 l 69 772 q 42 760 56 767 q 14 747 28 754 l 28 715 q 51 719 40 719 q 72 713 58 719 q 85 707 85 707 q 110 689 103 707 q 125 319 125 643 q 153 253 125 300 q 168 232 161 242 q 182 214 175 222 q 144 240 163 231 q 106 264 125 250 q 108 211 110 251 q 105 103 107 140 q 100 61 103 65 q 56 44 90 49 l 7 39 l 7 -19 q 128 -15 72 -17 q 233 -14 185 -14 q 360 -22 293 -14 l 364 40 q 301 47 324 43 q 268 56 278 51 q 258 193 258 57 l 258 269 q 256 278 258 275 q 294 250 264 278 l 353 207 q 459 122 413 163 q 540 49 506 82 m 344 -469 q 556 -244 531 -401 q 551 -181 558 -212 q 528 -115 543 -150 q 436 -71 499 -71 q 358 -99 392 -71 q 325 -172 325 -128 q 378 -260 325 -228 l 379 -262 l 386 -264 l 401 -269 q 428 -312 428 -282 q 379 -379 428 -346 q 301 -422 363 -392 l 344 -469 z "},"ė":{"ha":643,"x_min":29,"x_max":624,"o":"m 178 278 l 236 269 q 289 265 258 267 q 358 264 319 264 q 480 268 415 264 q 619 283 544 272 l 615 365 q 321 564 563 564 q 108 467 193 564 q 29 247 29 375 q 108 49 29 124 q 311 -25 189 -25 q 479 17 385 -25 q 624 111 567 54 l 569 122 q 382 61 463 61 q 211 126 265 61 q 182 193 183 156 l 178 278 m 492 349 q 382 343 468 340 q 313 356 354 346 q 281 365 285 361 l 181 343 q 328 468 201 468 q 353 469 339 468 q 383 474 367 471 q 419 475 410 478 q 492 349 474 447 m 481 761 l 376 810 l 328 914 l 279 810 l 174 761 l 279 713 l 328 607 l 376 713 l 481 761 m 288 367 l 281 365 q 288 367 281 367 z "},"ź":{"ha":747,"x_min":7,"x_max":747,"o":"m 669 -28 q 668 -15 668 -21 q 668 -3 668 -10 q 732 178 668 85 l 672 178 q 615 92 651 115 q 390 50 554 50 q 322 51 354 50 q 260 53 289 51 l 507 294 q 747 543 654 438 l 333 543 q 224 544 267 543 q 161 549 182 546 q 114 558 129 551 l 65 578 q 50 482 68 525 q 18 393 42 435 l 78 393 q 182 467 101 450 q 315 475 221 475 l 482 475 q 232 213 350 328 q 7 15 114 99 l 33 -28 q 119 -22 76 -25 q 203 -19 161 -19 l 522 -18 q 573 -19 544 -18 q 636 -25 601 -21 q 651 -27 643 -26 q 669 -28 658 -28 m 389 624 q 460 707 415 636 q 540 797 503 781 l 388 794 q 346 719 383 792 q 261 624 308 646 l 389 624 z "},"č":{"ha":658,"x_min":33,"x_max":636,"o":"m 563 428 q 615 490 575 476 q 633 500 633 497 q 536 556 633 531 q 411 576 457 576 q 244 533 335 576 q 162 483 199 513 q 96 417 125 453 q 33 242 33 338 q 96 64 33 119 q 226 -6 146 19 q 301 -22 264 -17 q 374 -28 338 -28 q 635 64 504 -28 q 624 72 636 68 q 603 75 603 75 q 607 88 603 76 q 611 103 611 100 q 607 111 611 108 q 432 60 496 60 q 319 85 379 60 q 174 301 174 146 q 332 472 174 472 q 344 469 335 472 q 362 460 353 465 q 379 452 371 456 q 390 449 388 449 q 393 451 393 449 q 394 453 394 450 q 391 460 393 456 q 383 472 389 464 q 376 486 376 482 q 379 490 376 490 q 383 489 382 490 l 394 483 q 460 432 444 438 l 457 494 l 457 497 q 551 415 463 493 q 563 428 558 415 m 450 869 q 408 772 435 822 q 372 749 389 761 q 335 726 354 738 q 298 753 315 740 q 261 781 281 767 q 249 807 258 785 q 224 869 239 829 l 90 869 q 142 806 103 842 q 207 744 192 761 q 242 698 215 731 q 315 614 268 665 l 358 614 l 456 739 l 526 796 q 578 869 560 824 l 450 869 z "},"ē":{"ha":643,"x_min":29,"x_max":624,"o":"m 178 278 l 236 269 q 289 265 258 267 q 358 264 319 264 q 480 268 415 264 q 619 283 544 272 l 615 365 q 321 564 563 564 q 108 467 193 564 q 29 247 29 375 q 108 49 29 124 q 311 -25 189 -25 q 479 17 385 -25 q 624 111 567 54 l 569 122 q 382 61 463 61 q 211 126 265 61 q 182 193 183 156 l 178 278 m 54 642 l 581 642 l 581 731 l 54 731 l 54 642 m 492 349 q 382 343 468 340 q 313 356 354 346 q 281 365 285 361 l 181 343 q 328 468 201 468 q 353 469 339 468 q 383 474 367 471 q 419 475 410 478 q 492 349 474 447 m 288 367 l 281 365 q 288 367 281 367 z "}}}
